STARTFONT 2.1
COMMENT
COMMENT Converted from OpenType font "RobotoMono-SemiBold.ttf" by "otf2bdf 3.0".
COMMENT
FONT -FreeType-Roboto Mono SemiBold-Medium-R-Normal--25-180-100-100-P-125-ISO10646-1
SIZE 18 100 100
FONTBOUNDINGBOX 32 32 -13 -6
STARTPROPERTIES 19
FOUNDRY "FreeType"
FAMILY_NAME "Roboto Mono SemiBold"
WEIGHT_NAME "Medium"
SLANT "R"
SETWIDTH_NAME "Normal"
ADD_STYLE_NAME ""
PIXEL_SIZE 25
POINT_SIZE 180
RESOLUTION_X 100
RESOLUTION_Y 100
SPACING "P"
AVERAGE_WIDTH 125
CHARSET_REGISTRY "ISO10646"
CHARSET_ENCODING "1"
FONT_ASCENT 26
FONT_DESCENT 6
COPYRIGHT "Copyright 2015 The Roboto Mono Project Authors (https://github.com/googlefonts/robotomono)"
_OTF_FONTFILE "RobotoMono-SemiBold.ttf"
_OTF_PSNAME "RobotoMono-SemiBold"
ENDPROPERTIES
CHARS 876
STARTCHAR 000D
ENCODING 13
SWIDTH 600 0
DWIDTH 15 0
BBX 0 0 0 0
BITMAP
ENDCHAR
STARTCHAR 0020
ENCODING 32
SWIDTH 600 0
DWIDTH 15 0
BBX 0 0 0 0
BITMAP
ENDCHAR
STARTCHAR 0021
ENCODING 33
SWIDTH 600 0
DWIDTH 15 0
BBX 3 18 6 0
BITMAP
E0
E0
E0
E0
E0
E0
E0
E0
E0
E0
E0
E0
00
00
00
E0
E0
E0
ENDCHAR
STARTCHAR 0022
ENCODING 34
SWIDTH 600 0
DWIDTH 15 0
BBX 7 7 4 12
BITMAP
C6
C6
C6
C6
C6
C6
C6
ENDCHAR
STARTCHAR 0023
ENCODING 35
SWIDTH 600 0
DWIDTH 15 0
BBX 13 18 1 0
BITMAP
0660
0E60
0C60
0C60
0C60
FFF8
FFF8
18C0
18C0
18C0
18C0
FFF0
FFF0
3180
3180
3180
3380
7300
ENDCHAR
STARTCHAR 0024
ENCODING 36
SWIDTH 600 0
DWIDTH 15 0
BBX 12 24 2 -3
BITMAP
0600
0600
0600
1F80
3FC0
7FE0
F0E0
E0F0
F070
7000
7C00
3F00
1FC0
03E0
00E0
00F0
E070
E0F0
F9E0
7FE0
3F80
0600
0600
0600
ENDCHAR
STARTCHAR 0025
ENCODING 37
SWIDTH 600 0
DWIDTH 15 0
BBX 15 18 0 0
BITMAP
3C00
7E00
6620
E630
E660
6660
7EC0
3980
0180
0300
0310
067C
06CC
0CCE
1CCE
08CC
00FC
0078
ENDCHAR
STARTCHAR 0026
ENCODING 38
SWIDTH 600 0
DWIDTH 15 0
BBX 14 18 1 0
BITMAP
0F00
1FC0
3FC0
39C0
38C0
39C0
3B80
3F00
1E00
3E1C
7F18
F798
E3F8
E1F8
E0F0
F1F0
7FF8
3FBC
ENDCHAR
STARTCHAR 0027
ENCODING 39
SWIDTH 600 0
DWIDTH 15 0
BBX 2 7 6 12
BITMAP
C0
C0
C0
C0
C0
C0
C0
ENDCHAR
STARTCHAR 0028
ENCODING 40
SWIDTH 600 0
DWIDTH 15 0
BBX 7 26 4 -6
BITMAP
02
0E
0C
18
38
30
70
70
60
60
E0
E0
E0
E0
E0
E0
60
60
70
70
30
38
1C
0C
06
02
ENDCHAR
STARTCHAR 0029
ENCODING 41
SWIDTH 600 0
DWIDTH 15 0
BBX 7 26 4 -6
BITMAP
80
C0
E0
70
38
38
1C
1C
1C
1C
0E
0E
0E
0E
0E
0C
1C
1C
1C
18
38
38
70
E0
C0
80
ENDCHAR
STARTCHAR 002A
ENCODING 42
SWIDTH 600 0
DWIDTH 15 0
BBX 12 13 2 5
BITMAP
0600
0600
0600
8600
E670
FFF0
3FC0
0F00
1F00
1980
39C0
70E0
1080
ENDCHAR
STARTCHAR 002B
ENCODING 43
SWIDTH 600 0
DWIDTH 15 0
BBX 12 13 1 2
BITMAP
0700
0700
0700
0700
0700
FFF0
FFF0
FFF0
0700
0700
0700
0700
0700
ENDCHAR
STARTCHAR 002C
ENCODING 44
SWIDTH 600 0
DWIDTH 15 0
BBX 5 8 4 -5
BITMAP
78
78
78
70
70
70
E0
40
ENDCHAR
STARTCHAR 002D
ENCODING 45
SWIDTH 600 0
DWIDTH 15 0
BBX 10 2 3 7
BITMAP
FFC0
FFC0
ENDCHAR
STARTCHAR 002E
ENCODING 46
SWIDTH 600 0
DWIDTH 15 0
BBX 5 4 5 0
BITMAP
70
F8
F8
70
ENDCHAR
STARTCHAR 002F
ENCODING 47
SWIDTH 600 0
DWIDTH 15 0
BBX 10 20 3 -2
BITMAP
03C0
0380
0380
0700
0700
0700
0E00
0E00
0E00
1C00
1C00
1C00
3800
3800
3000
7000
7000
E000
E000
E000
ENDCHAR
STARTCHAR 0030
ENCODING 48
SWIDTH 600 0
DWIDTH 15 0
BBX 11 18 2 0
BITMAP
1F00
3F80
7FC0
F1E0
E0E0
E0E0
E0E0
E3E0
E7E0
EEE0
F8E0
F0E0
E0E0
E0E0
E0E0
79C0
7FC0
1F00
ENDCHAR
STARTCHAR 0031
ENCODING 49
SWIDTH 600 0
DWIDTH 15 0
BBX 8 18 2 0
BITMAP
01
0F
7F
FF
F7
87
07
07
07
07
07
07
07
07
07
07
07
07
ENDCHAR
STARTCHAR 0032
ENCODING 50
SWIDTH 600 0
DWIDTH 15 0
BBX 12 18 1 0
BITMAP
1F80
3FC0
7FE0
F0E0
E0F0
E0F0
00E0
00E0
01C0
03C0
0780
0F00
1E00
3C00
7800
7FF0
FFF0
FFF0
ENDCHAR
STARTCHAR 0033
ENCODING 51
SWIDTH 600 0
DWIDTH 15 0
BBX 12 18 1 0
BITMAP
1F80
3FE0
7FE0
70F0
F070
0070
00F0
01E0
0FC0
0FC0
00E0
0070
0070
E070
F070
79F0
7FE0
1F80
ENDCHAR
STARTCHAR 0034
ENCODING 52
SWIDTH 600 0
DWIDTH 15 0
BBX 13 18 1 0
BITMAP
01E0
01E0
03E0
07E0
07E0
0FE0
1DE0
1DE0
39E0
71E0
71E0
E1E0
FFF8
FFF8
01E0
01E0
01E0
01E0
ENDCHAR
STARTCHAR 0035
ENCODING 53
SWIDTH 600 0
DWIDTH 15 0
BBX 11 18 2 0
BITMAP
7FE0
7FE0
7FE0
7000
7000
6000
E600
FF80
FFC0
61E0
00E0
00E0
00E0
E0E0
E0E0
F1E0
7FC0
3F80
ENDCHAR
STARTCHAR 0036
ENCODING 54
SWIDTH 600 0
DWIDTH 15 0
BBX 12 18 1 0
BITMAP
03C0
0FC0
1FC0
3C00
3800
7000
7380
7FE0
FFE0
F0F0
F070
F070
F070
7070
7070
7DE0
3FE0
0F80
ENDCHAR
STARTCHAR 0037
ENCODING 55
SWIDTH 600 0
DWIDTH 15 0
BBX 12 18 1 0
BITMAP
FFF0
FFF0
FFF0
0070
00E0
00E0
01C0
01C0
0380
0380
0780
0700
0700
0E00
0E00
1C00
1C00
3C00
ENDCHAR
STARTCHAR 0038
ENCODING 56
SWIDTH 600 0
DWIDTH 15 0
BBX 11 18 2 0
BITMAP
1F00
7FC0
FFC0
E1E0
E0E0
E0E0
E1E0
7BC0
3F80
7F80
F1C0
E0E0
E0E0
E0E0
E0E0
F1E0
7FC0
3F80
ENDCHAR
STARTCHAR 0039
ENCODING 57
SWIDTH 600 0
DWIDTH 15 0
BBX 12 18 1 0
BITMAP
0F80
3FC0
7FE0
70E0
7070
E070
E070
F070
7070
79F0
3FF0
1F70
00E0
00E0
01E0
1FC0
1F80
1E00
ENDCHAR
STARTCHAR 003A
ENCODING 58
SWIDTH 600 0
DWIDTH 15 0
BBX 5 14 5 0
BITMAP
70
F8
F8
70
00
00
00
00
00
00
70
F8
F8
70
ENDCHAR
STARTCHAR 003B
ENCODING 59
SWIDTH 600 0
DWIDTH 15 0
BBX 6 19 5 -5
BITMAP
38
7C
7C
38
00
00
00
00
00
00
00
78
78
78
70
70
70
E0
40
ENDCHAR
STARTCHAR 003C
ENCODING 60
SWIDTH 600 0
DWIDTH 15 0
BBX 11 11 2 2
BITMAP
00E0
03E0
0FE0
7F00
F800
E000
FC00
3F80
0FE0
01E0
0060
ENDCHAR
STARTCHAR 003D
ENCODING 61
SWIDTH 600 0
DWIDTH 15 0
BBX 11 8 2 4
BITMAP
FFE0
FFE0
FFE0
0000
0000
0000
FFE0
FFE0
ENDCHAR
STARTCHAR 003E
ENCODING 62
SWIDTH 600 0
DWIDTH 15 0
BBX 11 11 2 2
BITMAP
C000
F800
FE00
1FC0
03E0
01E0
0FE0
3F80
FC00
F000
C000
ENDCHAR
STARTCHAR 003F
ENCODING 63
SWIDTH 600 0
DWIDTH 15 0
BBX 11 18 2 0
BITMAP
1F80
7FC0
7FE0
F0E0
E0E0
00E0
00E0
01C0
03C0
0780
0F00
0E00
0E00
0000
0000
0E00
0E00
0E00
ENDCHAR
STARTCHAR 0040
ENCODING 64
SWIDTH 600 0
DWIDTH 15 0
BBX 13 18 1 0
BITMAP
0380
1FE0
3870
7030
6398
CFD8
CCD8
D8D8
D8C8
D898
9898
D998
DFF0
CEE0
E000
7000
3FC0
1F80
ENDCHAR
STARTCHAR 0041
ENCODING 65
SWIDTH 600 0
DWIDTH 15 0
BBX 15 18 0 0
BITMAP
0380
03C0
03C0
07C0
07E0
06E0
0EE0
0E60
0E70
1C70
1C70
1FF8
3FF8
3FF8
381C
781C
701C
F01E
ENDCHAR
STARTCHAR 0042
ENCODING 66
SWIDTH 600 0
DWIDTH 15 0
BBX 12 18 2 0
BITMAP
FF00
FFC0
FFE0
E0F0
E070
E070
E0F0
E1E0
FFC0
FFE0
E0F0
E070
E070
E070
E0F0
FFF0
FFE0
FF80
ENDCHAR
STARTCHAR 0043
ENCODING 67
SWIDTH 600 0
DWIDTH 15 0
BBX 13 18 1 0
BITMAP
0F80
3FE0
3FF0
7070
7078
E038
E000
E000
E000
E000
E000
E000
E038
F038
7070
7CF0
3FE0
1FC0
ENDCHAR
STARTCHAR 0044
ENCODING 68
SWIDTH 600 0
DWIDTH 15 0
BBX 12 18 2 0
BITMAP
FC00
FF80
FFC0
E1E0
E0E0
E0E0
E0F0
E070
E070
E070
E070
E070
E0F0
E0E0
E1E0
FFC0
FF80
FE00
ENDCHAR
STARTCHAR 0045
ENCODING 69
SWIDTH 600 0
DWIDTH 15 0
BBX 12 18 2 0
BITMAP
FFF0
FFF0
FFF0
E000
E000
E000
E000
E000
FFC0
FFC0
E000
E000
E000
E000
E000
FFF0
FFF0
FFF0
ENDCHAR
STARTCHAR 0046
ENCODING 70
SWIDTH 600 0
DWIDTH 15 0
BBX 12 18 2 0
BITMAP
FFF0
FFF0
FFF0
E000
E000
E000
E000
E000
FFE0
FFE0
FFE0
E000
E000
E000
E000
E000
E000
E000
ENDCHAR
STARTCHAR 0047
ENCODING 71
SWIDTH 600 0
DWIDTH 15 0
BBX 13 18 1 0
BITMAP
0F80
1FE0
3FF0
7870
7078
F000
E000
E000
E000
E1F8
E1F8
E038
F038
7038
7038
7CF8
3FF0
0FC0
ENDCHAR
STARTCHAR 0048
ENCODING 72
SWIDTH 600 0
DWIDTH 15 0
BBX 11 18 2 0
BITMAP
E0E0
E0E0
E0E0
E0E0
E0E0
E0E0
E0E0
E0E0
FFE0
FFE0
E0E0
E0E0
E0E0
E0E0
E0E0
E0E0
E0E0
E0E0
ENDCHAR
STARTCHAR 0049
ENCODING 73
SWIDTH 600 0
DWIDTH 15 0
BBX 11 18 2 0
BITMAP
FFE0
FFE0
FFE0
0E00
0E00
0E00
0E00
0E00
0E00
0E00
0E00
0E00
0E00
0E00
0E00
FFE0
FFE0
FFE0
ENDCHAR
STARTCHAR 004A
ENCODING 74
SWIDTH 600 0
DWIDTH 15 0
BBX 12 18 1 0
BITMAP
0070
0070
0070
0070
0070
0070
0070
0070
0070
0070
0070
0070
0070
F070
7070
79E0
3FE0
1F80
ENDCHAR
STARTCHAR 004B
ENCODING 75
SWIDTH 600 0
DWIDTH 15 0
BBX 13 18 2 0
BITMAP
E078
E0F0
E1E0
E1C0
E3C0
E780
EF00
EE00
FE00
FF00
FF00
F780
E3C0
E1C0
E1E0
E0F0
E0F0
E078
ENDCHAR
STARTCHAR 004C
ENCODING 76
SWIDTH 600 0
DWIDTH 15 0
BBX 12 18 2 0
BITMAP
E000
E000
E000
E000
E000
E000
E000
E000
E000
E000
E000
E000
E000
E000
E000
FFF0
FFF0
FFF0
ENDCHAR
STARTCHAR 004D
ENCODING 77
SWIDTH 600 0
DWIDTH 15 0
BBX 12 18 2 0
BITMAP
F0F0
F1F0
F1F0
F1F0
FBF0
DB70
DB70
DF70
CE70
EE70
EE70
EE70
E070
E070
E070
E070
E070
E070
ENDCHAR
STARTCHAR 004E
ENCODING 78
SWIDTH 600 0
DWIDTH 15 0
BBX 11 18 2 0
BITMAP
E0E0
E0E0
F0E0
F0E0
F8E0
F8E0
FCE0
FCE0
EEE0
EEE0
E6E0
E7E0
E3E0
E3E0
E1E0
E1E0
E1E0
E0E0
ENDCHAR
STARTCHAR 004F
ENCODING 79
SWIDTH 600 0
DWIDTH 15 0
BBX 13 18 1 0
BITMAP
0F80
3FE0
3FE0
70F0
7070
E078
E038
E038
E038
E038
E038
E038
E078
F070
7070
7DF0
3FE0
1F80
ENDCHAR
STARTCHAR 0050
ENCODING 80
SWIDTH 600 0
DWIDTH 15 0
BBX 12 18 2 0
BITMAP
FF00
FFC0
FFE0
E0F0
E070
E070
E070
E070
E1F0
FFE0
FF80
E000
E000
E000
E000
E000
E000
E000
ENDCHAR
STARTCHAR 0051
ENCODING 81
SWIDTH 600 0
DWIDTH 15 0
BBX 14 21 1 -3
BITMAP
0F80
3FE0
3FE0
7070
7078
F038
E038
E038
E038
E038
E038
E038
E038
F078
7070
7DF0
3FE0
1FF0
0078
003C
0010
ENDCHAR
STARTCHAR 0052
ENCODING 82
SWIDTH 600 0
DWIDTH 15 0
BBX 12 18 2 0
BITMAP
FF00
FFC0
FFE0
E0F0
E0F0
E070
E070
E0F0
E3E0
FFC0
FF80
E380
E3C0
E1C0
E1E0
E0E0
E0F0
E070
ENDCHAR
STARTCHAR 0053
ENCODING 83
SWIDTH 600 0
DWIDTH 15 0
BBX 13 18 1 0
BITMAP
0FC0
3FE0
7FF0
7078
7038
7000
7800
3E00
3FC0
0FE0
01F0
0078
0038
E038
F038
7CF8
3FF0
1FC0
ENDCHAR
STARTCHAR 0054
ENCODING 84
SWIDTH 600 0
DWIDTH 15 0
BBX 15 18 0 0
BITMAP
FFFE
FFFE
FFFE
0380
0380
0380
0380
0380
0380
0380
0380
0380
0380
0380
0380
0380
0380
0380
ENDCHAR
STARTCHAR 0055
ENCODING 85
SWIDTH 600 0
DWIDTH 15 0
BBX 11 18 2 0
BITMAP
E0E0
E0E0
E0E0
E0E0
E0E0
E0E0
E0E0
E0E0
E0E0
E0E0
E0E0
E0E0
E0E0
E0E0
E0E0
FBE0
7FC0
3F80
ENDCHAR
STARTCHAR 0056
ENCODING 86
SWIDTH 600 0
DWIDTH 15 0
BBX 15 18 0 0
BITMAP
F01E
701C
783C
7838
3838
3838
3C78
1C70
1C70
1C70
0EE0
0EE0
0EE0
07C0
07C0
07C0
07C0
0380
ENDCHAR
STARTCHAR 0057
ENCODING 87
SWIDTH 600 0
DWIDTH 15 0
BBX 15 18 0 0
BITMAP
E38E
738C
739C
739C
739C
73DC
77DC
76DC
36DC
36D8
3ED8
3EF8
3EF8
3C78
3C78
3C78
1C70
1C70
ENDCHAR
STARTCHAR 0058
ENCODING 88
SWIDTH 600 0
DWIDTH 15 0
BBX 14 18 1 0
BITMAP
F03C
F078
7870
78F0
3CE0
1DE0
1FC0
0FC0
0F80
0F80
0F80
1FC0
1DE0
3CE0
38F0
7870
F078
F03C
ENDCHAR
STARTCHAR 0059
ENCODING 89
SWIDTH 600 0
DWIDTH 15 0
BBX 15 18 0 0
BITMAP
F01E
781C
383C
3838
1C78
1C70
1E70
0EE0
0FE0
07C0
07C0
0380
0380
0380
0380
0380
0380
0380
ENDCHAR
STARTCHAR 005A
ENCODING 90
SWIDTH 600 0
DWIDTH 15 0
BBX 13 18 1 0
BITMAP
FFF8
FFF8
FFF0
00F0
00E0
01C0
03C0
0380
0780
0F00
0E00
1E00
3C00
3800
7800
FFF8
FFF8
FFF8
ENDCHAR
STARTCHAR 005B
ENCODING 91
SWIDTH 600 0
DWIDTH 15 0
BBX 5 25 5 -4
BITMAP
F8
F8
F8
E0
E0
E0
E0
E0
E0
E0
E0
E0
E0
E0
E0
E0
E0
E0
E0
E0
E0
E0
E0
F8
F8
ENDCHAR
STARTCHAR 005C
ENCODING 92
SWIDTH 600 0
DWIDTH 15 0
BBX 10 20 3 -2
BITMAP
E000
E000
7000
7000
7000
3800
3800
3800
1C00
1C00
0C00
0E00
0E00
0700
0700
0700
0380
0380
0380
01C0
ENDCHAR
STARTCHAR 005D
ENCODING 93
SWIDTH 600 0
DWIDTH 15 0
BBX 5 25 5 -4
BITMAP
F8
F8
F8
38
38
38
38
38
38
38
38
38
38
38
38
38
38
38
38
38
38
38
38
F8
F8
ENDCHAR
STARTCHAR 005E
ENCODING 94
SWIDTH 600 0
DWIDTH 15 0
BBX 10 10 3 8
BITMAP
1C00
1C00
1E00
3E00
3700
7700
6300
6380
E180
C1C0
ENDCHAR
STARTCHAR 005F
ENCODING 95
SWIDTH 600 0
DWIDTH 15 0
BBX 11 2 2 -2
BITMAP
FFE0
FFE0
ENDCHAR
STARTCHAR 0060
ENCODING 96
SWIDTH 600 0
DWIDTH 15 0
BBX 6 3 5 15
BITMAP
F0
78
3C
ENDCHAR
STARTCHAR 0061
ENCODING 97
SWIDTH 600 0
DWIDTH 15 0
BBX 11 13 2 0
BITMAP
3F80
7FC0
E1E0
E0E0
00E0
3FE0
7FE0
E0E0
E0E0
E0E0
F3E0
FFE0
7EE0
ENDCHAR
STARTCHAR 0062
ENCODING 98
SWIDTH 600 0
DWIDTH 15 0
BBX 12 19 2 0
BITMAP
E000
E000
E000
E000
E000
E000
EF80
FFC0
F1E0
E0E0
E0E0
E0F0
E0F0
E0F0
E0E0
E0E0
F9E0
FFC0
EF80
ENDCHAR
STARTCHAR 0063
ENCODING 99
SWIDTH 600 0
DWIDTH 15 0
BBX 12 13 1 0
BITMAP
1FC0
3FE0
78F0
7070
7070
7000
F000
7000
7000
7070
7CF0
3FE0
1FC0
ENDCHAR
STARTCHAR 0064
ENCODING 100
SWIDTH 600 0
DWIDTH 15 0
BBX 12 19 1 0
BITMAP
0070
0070
0070
0070
0070
0070
1F70
3FF0
78F0
7070
7070
F070
F070
F070
7070
7070
7DF0
3FF0
1F70
ENDCHAR
STARTCHAR 0065
ENCODING 101
SWIDTH 600 0
DWIDTH 15 0
BBX 13 13 1 0
BITMAP
1FC0
3FE0
78F0
7070
7038
FFF8
FFF8
F000
7000
7820
7CF0
3FF0
0FC0
ENDCHAR
STARTCHAR 0066
ENCODING 102
SWIDTH 600 0
DWIDTH 15 0
BBX 12 19 2 0
BITMAP
07F0
0FF0
0F10
1E00
1C00
1C00
FFE0
FFE0
1C00
1C00
1C00
1C00
1C00
1C00
1C00
1C00
1C00
1C00
1C00
ENDCHAR
STARTCHAR 0067
ENCODING 103
SWIDTH 600 0
DWIDTH 15 0
BBX 12 18 1 -5
BITMAP
1FF0
3FF0
78F0
7070
7070
F070
F070
F070
7070
7070
7CF0
3FF0
1F70
0070
2070
39F0
7FE0
1F80
ENDCHAR
STARTCHAR 0068
ENCODING 104
SWIDTH 600 0
DWIDTH 15 0
BBX 11 19 2 0
BITMAP
E000
E000
E000
E000
E000
E000
EFC0
FFE0
F1E0
E0E0
E0E0
E0E0
E0E0
E0E0
E0E0
E0E0
E0E0
E0E0
E0E0
ENDCHAR
STARTCHAR 0069
ENCODING 105
SWIDTH 600 0
DWIDTH 15 0
BBX 10 18 3 0
BITMAP
1E00
1E00
0C00
0000
0000
FE00
FE00
1E00
1E00
1E00
1E00
1E00
1E00
1E00
1E00
FFC0
FFC0
FFC0
ENDCHAR
STARTCHAR 006A
ENCODING 106
SWIDTH 600 0
DWIDTH 15 0
BBX 8 23 3 -5
BITMAP
0E
0F
0E
00
00
7E
7E
0E
0E
0E
0E
0E
0E
0E
0E
0E
0E
0E
0E
0E
1E
FE
F8
ENDCHAR
STARTCHAR 006B
ENCODING 107
SWIDTH 600 0
DWIDTH 15 0
BBX 12 19 2 0
BITMAP
E000
E000
E000
E000
E000
E010
E1E0
E3C0
E780
EF00
EE00
FE00
FF00
F700
E780
E3C0
E1E0
E1E0
E0F0
ENDCHAR
STARTCHAR 006C
ENCODING 108
SWIDTH 600 0
DWIDTH 15 0
BBX 12 19 2 0
BITMAP
FF00
FF00
FF00
0F00
0F00
0F00
0F00
0F00
0F00
0F00
0F00
0F00
0F00
0F00
0F00
0F00
FFF0
FFF0
FFF0
ENDCHAR
STARTCHAR 006D
ENCODING 109
SWIDTH 600 0
DWIDTH 15 0
BBX 13 13 1 0
BITMAP
FEF0
FFF8
E738
E738
E738
E738
E738
E738
E738
E738
E738
E738
E738
ENDCHAR
STARTCHAR 006E
ENCODING 110
SWIDTH 600 0
DWIDTH 15 0
BBX 11 13 2 0
BITMAP
EFC0
FFE0
F1E0
E0E0
E0E0
E0E0
E0E0
E0E0
E0E0
E0E0
E0E0
E0E0
E0E0
ENDCHAR
STARTCHAR 006F
ENCODING 111
SWIDTH 600 0
DWIDTH 15 0
BBX 13 13 1 0
BITMAP
1FC0
3FE0
78F0
7070
F070
E078
E038
F078
7070
7070
7DF0
3FE0
1FC0
ENDCHAR
STARTCHAR 0070
ENCODING 112
SWIDTH 600 0
DWIDTH 15 0
BBX 12 18 2 -5
BITMAP
FF80
FFC0
F1E0
E0E0
E0E0
E0F0
E0F0
E0E0
E0E0
E0E0
F3E0
FFC0
EF80
E000
E000
E000
E000
E000
ENDCHAR
STARTCHAR 0071
ENCODING 113
SWIDTH 600 0
DWIDTH 15 0
BBX 12 18 1 -5
BITMAP
1FF0
3FF0
78F0
7070
7070
F070
F070
F070
7070
7070
7CF0
3FF0
1F70
0070
0070
0070
0070
0070
ENDCHAR
STARTCHAR 0072
ENCODING 114
SWIDTH 600 0
DWIDTH 15 0
BBX 10 13 4 0
BITMAP
EFC0
FF80
FF80
F000
E000
E000
E000
E000
E000
E000
E000
E000
E000
ENDCHAR
STARTCHAR 0073
ENCODING 115
SWIDTH 600 0
DWIDTH 15 0
BBX 11 13 2 0
BITMAP
3F80
7FE0
F0E0
E0E0
F000
7E00
3FC0
07E0
00E0
E0E0
F0E0
7FE0
3F80
ENDCHAR
STARTCHAR 0074
ENCODING 116
SWIDTH 600 0
DWIDTH 15 0
BBX 11 16 2 0
BITMAP
1C00
1C00
1C00
FFE0
FFE0
1C00
1C00
1C00
1C00
1C00
1C00
1C00
1C00
1E20
1FE0
0FE0
ENDCHAR
STARTCHAR 0075
ENCODING 117
SWIDTH 600 0
DWIDTH 15 0
BBX 11 13 2 0
BITMAP
E0E0
E0E0
E0E0
E0E0
E0E0
E0E0
E0E0
E0E0
E0E0
E0E0
F3E0
7FE0
3EE0
ENDCHAR
STARTCHAR 0076
ENCODING 118
SWIDTH 600 0
DWIDTH 15 0
BBX 13 13 1 0
BITMAP
E038
7070
7070
7070
38E0
38E0
18C0
1DC0
1DC0
0D80
0F80
0F80
0700
ENDCHAR
STARTCHAR 0077
ENCODING 119
SWIDTH 600 0
DWIDTH 15 0
BBX 14 13 0 0
BITMAP
E39C
739C
739C
739C
779C
76D8
36D8
36D8
36F8
3CF8
3C70
1C70
1C70
ENDCHAR
STARTCHAR 0078
ENCODING 120
SWIDTH 600 0
DWIDTH 15 0
BBX 13 13 1 0
BITMAP
F078
7870
3CE0
1DE0
0FC0
0F80
0780
0FC0
1FC0
1DE0
38F0
7870
F038
ENDCHAR
STARTCHAR 0079
ENCODING 121
SWIDTH 600 0
DWIDTH 15 0
BBX 14 18 1 -5
BITMAP
E03C
F038
7078
7870
38F0
38E0
1CE0
1DC0
0FC0
0FC0
0F80
0780
0700
0700
0E00
1E00
7C00
7800
ENDCHAR
STARTCHAR 007A
ENCODING 122
SWIDTH 600 0
DWIDTH 15 0
BBX 12 13 2 0
BITMAP
FFE0
FFE0
01E0
03C0
0780
0F00
1E00
1C00
3C00
7800
FFF0
FFF0
FFF0
ENDCHAR
STARTCHAR 007B
ENCODING 123
SWIDTH 600 0
DWIDTH 15 0
BBX 8 24 4 -4
BITMAP
01
07
0E
1C
1C
1C
1C
1C
1C
1C
38
F8
E0
F8
38
1C
1C
1C
1C
1C
1C
1C
0F
07
ENDCHAR
STARTCHAR 007C
ENCODING 124
SWIDTH 600 0
DWIDTH 15 0
BBX 2 23 7 -5
BITMAP
C0
C0
C0
C0
C0
C0
C0
C0
C0
C0
C0
C0
C0
C0
C0
C0
C0
C0
C0
C0
C0
C0
C0
ENDCHAR
STARTCHAR 007D
ENCODING 125
SWIDTH 600 0
DWIDTH 15 0
BBX 8 24 4 -4
BITMAP
80
E0
70
38
38
38
38
38
38
38
1C
1F
07
1F
1C
38
38
38
38
38
38
30
F0
E0
ENDCHAR
STARTCHAR 007E
ENCODING 126
SWIDTH 600 0
DWIDTH 15 0
BBX 14 5 0 5
BITMAP
3C00
7F0C
7F9C
E3F8
40F8
ENDCHAR
STARTCHAR 00A0
ENCODING 160
SWIDTH 600 0
DWIDTH 15 0
BBX 0 0 0 0
BITMAP
ENDCHAR
STARTCHAR 00A1
ENCODING 161
SWIDTH 600 0
DWIDTH 15 0
BBX 4 18 6 -5
BITMAP
E0
F0
E0
00
00
00
E0
E0
E0
E0
E0
E0
E0
E0
E0
E0
E0
E0
ENDCHAR
STARTCHAR 00A2
ENCODING 162
SWIDTH 600 0
DWIDTH 15 0
BBX 11 19 2 -3
BITMAP
0600
0600
0600
3F80
7FC0
71E0
E0E0
E0E0
E000
E000
E000
E000
F0E0
79E0
7FC0
1F80
0600
0600
0600
ENDCHAR
STARTCHAR 00A3
ENCODING 163
SWIDTH 600 0
DWIDTH 15 0
BBX 13 18 1 0
BITMAP
07C0
0FF0
1FF8
3C38
3838
3800
3800
3800
FF80
FF80
FF80
3C00
3C00
3C00
3800
FFF8
FFF8
FFF8
ENDCHAR
STARTCHAR 00A4
ENCODING 164
SWIDTH 600 0
DWIDTH 15 0
BBX 13 13 1 0
BITMAP
4310
FFF8
7FF0
7070
6030
6030
E038
6038
6030
7070
78F0
FFF8
6F90
ENDCHAR
STARTCHAR 00A5
ENCODING 165
SWIDTH 600 0
DWIDTH 15 0
BBX 15 18 0 0
BITMAP
F01E
701C
383C
3838
1C78
1C70
0EE0
0EE0
07C0
3FF8
3FF8
0380
3F80
3FF8
0380
0380
0380
0380
ENDCHAR
STARTCHAR 00A6
ENCODING 166
SWIDTH 600 0
DWIDTH 15 0
BBX 3 21 6 -3
BITMAP
E0
E0
E0
E0
E0
E0
E0
E0
E0
00
00
00
E0
E0
E0
E0
E0
E0
E0
E0
E0
ENDCHAR
STARTCHAR 00A7
ENCODING 167
SWIDTH 600 0
DWIDTH 15 0
BBX 13 24 1 -6
BITMAP
0FC0
3FE0
7FF0
7078
F038
7000
7800
7F80
7FE0
77F0
E0F8
E038
F038
7C38
7FF8
1FE0
03F0
00F8
0038
E038
F078
7FF0
3FE0
0700
ENDCHAR
STARTCHAR 00A8
ENCODING 168
SWIDTH 600 0
DWIDTH 15 0
BBX 9 3 3 15
BITMAP
6380
E380
6100
ENDCHAR
STARTCHAR 00A9
ENCODING 169
SWIDTH 600 0
DWIDTH 15 0
BBX 13 13 1 0
BITMAP
1FC0
3060
6710
4F98
9888
9848
9808
9848
C888
4F90
6030
3060
0FC0
ENDCHAR
STARTCHAR 00AA
ENCODING 170
SWIDTH 600 0
DWIDTH 15 0
BBX 9 10 3 8
BITMAP
3E00
7F00
6300
0300
3F00
7300
C300
E700
7F00
1080
ENDCHAR
STARTCHAR 00AB
ENCODING 171
SWIDTH 600 0
DWIDTH 15 0
BBX 9 9 3 2
BITMAP
1980
3300
7700
EE00
CC00
EE00
7700
3300
1980
ENDCHAR
STARTCHAR 00AC
ENCODING 172
SWIDTH 600 0
DWIDTH 15 0
BBX 10 5 2 5
BITMAP
FFC0
FFC0
00C0
00C0
00C0
ENDCHAR
STARTCHAR 00AD
ENCODING 173
SWIDTH 600 0
DWIDTH 15 0
BBX 10 2 3 7
BITMAP
FFC0
FFC0
ENDCHAR
STARTCHAR 00AE
ENCODING 174
SWIDTH 600 0
DWIDTH 15 0
BBX 13 13 1 0
BITMAP
1FC0
3060
6E10
4F90
8888
8888
8F08
8908
C988
4890
6070
3060
0FC0
ENDCHAR
STARTCHAR 00AF
ENCODING 175
SWIDTH 600 0
DWIDTH 15 0
BBX 9 2 3 16
BITMAP
FF80
FF80
ENDCHAR
STARTCHAR 00B0
ENCODING 176
SWIDTH 600 0
DWIDTH 15 0
BBX 7 7 4 11
BITMAP
38
7C
C6
C6
66
7C
10
ENDCHAR
STARTCHAR 00B1
ENCODING 177
SWIDTH 600 0
DWIDTH 15 0
BBX 11 16 2 0
BITMAP
0E00
0E00
0E00
0E00
0E00
FFE0
FFE0
0E00
0E00
0E00
0E00
0E00
0000
FFE0
FFE0
FFE0
ENDCHAR
STARTCHAR 00B2
ENCODING 178
SWIDTH 600 0
DWIDTH 15 0
BBX 7 10 4 8
BITMAP
38
FE
C6
06
0E
1C
38
70
FE
FE
ENDCHAR
STARTCHAR 00B3
ENCODING 179
SWIDTH 600 0
DWIDTH 15 0
BBX 7 10 4 8
BITMAP
7C
FE
C6
06
3C
3E
06
C6
FE
7C
ENDCHAR
STARTCHAR 00B4
ENCODING 180
SWIDTH 600 0
DWIDTH 15 0
BBX 6 3 5 15
BITMAP
3C
70
E0
ENDCHAR
STARTCHAR 00B5
ENCODING 181
SWIDTH 600 0
DWIDTH 15 0
BBX 12 18 2 -5
BITMAP
E0F0
E0F0
E0F0
E0F0
E0F0
E0F0
E0F0
E0F0
E0F0
F0F0
F9F0
FFF0
FF70
E000
E000
E000
E000
E000
ENDCHAR
STARTCHAR 00B6
ENCODING 182
SWIDTH 600 0
DWIDTH 15 0
BBX 9 18 3 0
BITMAP
0F80
3F80
7F80
FF80
FF80
FF80
FF80
FF80
FF80
7F80
3F80
0780
0180
0180
0180
0180
0180
0180
ENDCHAR
STARTCHAR 00B7
ENCODING 183
SWIDTH 600 0
DWIDTH 15 0
BBX 4 3 6 7
BITMAP
E0
F0
E0
ENDCHAR
STARTCHAR 00B8
ENCODING 184
SWIDTH 600 0
DWIDTH 15 0
BBX 5 6 5 -6
BITMAP
60
F0
38
38
70
80
ENDCHAR
STARTCHAR 00B9
ENCODING 185
SWIDTH 600 0
DWIDTH 15 0
BBX 5 10 5 8
BITMAP
08
78
F8
B8
38
38
38
38
38
38
ENDCHAR
STARTCHAR 00BA
ENCODING 186
SWIDTH 600 0
DWIDTH 15 0
BBX 9 10 3 8
BITMAP
3E00
7F00
6300
C180
C180
C180
E380
6300
7E00
0800
ENDCHAR
STARTCHAR 00BB
ENCODING 187
SWIDTH 600 0
DWIDTH 15 0
BBX 10 9 3 2
BITMAP
C600
6300
7380
39C0
18C0
39C0
7380
6300
C600
ENDCHAR
STARTCHAR 00BC
ENCODING 188
SWIDTH 600 0
DWIDTH 15 0
BBX 13 18 1 0
BITMAP
1000
F000
F000
30C0
30C0
3180
3180
3300
3300
0630
0670
0C70
0CF0
19B0
1330
03F8
0030
0030
ENDCHAR
STARTCHAR 00BD
ENCODING 189
SWIDTH 600 0
DWIDTH 15 0
BBX 15 18 0 0
BITMAP
1800
F800
F800
3860
38C0
38C0
3980
3B00
3B00
0638
06FC
0CCC
0C0C
181C
1838
0070
00FE
00FE
ENDCHAR
STARTCHAR 00BE
ENCODING 190
SWIDTH 600 0
DWIDTH 15 0
BBX 15 18 0 0
BITMAP
3C00
7E00
6600
0630
1C30
0660
E660
7EC0
3CC0
018C
019C
033C
036C
066C
04CC
00FE
000C
000C
ENDCHAR
STARTCHAR 00BF
ENCODING 191
SWIDTH 600 0
DWIDTH 15 0
BBX 11 18 2 -5
BITMAP
0600
0F00
0600
0000
0000
0600
0600
0E00
1E00
3C00
7800
7000
7000
F0E0
70E0
7FE0
3FC0
0F00
ENDCHAR
STARTCHAR 00C0
ENCODING 192
SWIDTH 600 0
DWIDTH 15 0
BBX 15 22 0 0
BITMAP
1E00
0F00
0700
0080
0380
03C0
03C0
07C0
07E0
06E0
0EE0
0E60
0E70
1C70
1C70
1FF8
3FF8
3FF8
381C
781C
701C
F01E
ENDCHAR
STARTCHAR 00C1
ENCODING 193
SWIDTH 600 0
DWIDTH 15 0
BBX 15 22 0 0
BITMAP
0078
00E0
01C0
0000
0380
03C0
03C0
07C0
07E0
06E0
0EE0
0E60
0E70
1C70
1C70
1FF8
3FF8
3FF8
381C
781C
701C
F01E
ENDCHAR
STARTCHAR 00C2
ENCODING 194
SWIDTH 600 0
DWIDTH 15 0
BBX 15 23 0 0
BITMAP
0180
03C0
07E0
0E30
0000
0380
03C0
03C0
07C0
07E0
06E0
0EE0
0E60
0E70
1C70
1C70
1FF8
3FF8
3FF8
381C
781C
701C
F01E
ENDCHAR
STARTCHAR 00C3
ENCODING 195
SWIDTH 600 0
DWIDTH 15 0
BBX 15 23 0 0
BITMAP
0210
0FF0
0FF0
0840
0000
0380
03C0
03C0
07C0
07E0
06E0
0EE0
0E60
0E70
1C70
1C70
1FF8
3FF8
3FF8
381C
781C
701C
F01E
ENDCHAR
STARTCHAR 00C4
ENCODING 196
SWIDTH 600 0
DWIDTH 15 0
BBX 15 22 0 0
BITMAP
0C70
1C70
0C20
0000
0380
03C0
03C0
07C0
07E0
06E0
0EE0
0E60
0E70
1C70
1C70
1FF8
3FF8
3FF8
381C
781C
701C
F01E
ENDCHAR
STARTCHAR 00C5
ENCODING 197
SWIDTH 600 0
DWIDTH 15 0
BBX 15 24 0 0
BITMAP
0100
07C0
0440
06C0
0380
0000
0380
03C0
03C0
07C0
07E0
06E0
0EE0
0E60
0E70
1C70
1C70
1FF8
3FF8
3FF8
381C
781C
701C
F01E
ENDCHAR
STARTCHAR 00C6
ENCODING 198
SWIDTH 600 0
DWIDTH 15 0
BBX 13 18 1 0
BITMAP
03F8
07F8
07F8
0FC0
0FC0
0DC0
1DC0
1DC0
1DF8
39F8
39C0
3FC0
7FC0
7FC0
71C0
F1F8
E1F8
E1F8
ENDCHAR
STARTCHAR 00C7
ENCODING 199
SWIDTH 600 0
DWIDTH 15 0
BBX 13 24 1 -6
BITMAP
0F80
3FE0
3FF0
7070
7078
E038
E000
E000
E000
E000
E000
E000
E038
F038
7070
7CF0
3FE0
1FC0
0300
0780
01C0
01C0
0380
0400
ENDCHAR
STARTCHAR 00C8
ENCODING 200
SWIDTH 600 0
DWIDTH 15 0
BBX 12 22 2 0
BITMAP
7800
3C00
1C00
0200
FFF0
FFF0
FFF0
E000
E000
E000
E000
E000
FFC0
FFC0
E000
E000
E000
E000
E000
FFF0
FFF0
FFF0
ENDCHAR
STARTCHAR 00C9
ENCODING 201
SWIDTH 600 0
DWIDTH 15 0
BBX 12 22 2 0
BITMAP
01E0
0380
0700
0000
FFF0
FFF0
FFF0
E000
E000
E000
E000
E000
FFC0
FFC0
E000
E000
E000
E000
E000
FFF0
FFF0
FFF0
ENDCHAR
STARTCHAR 00CA
ENCODING 202
SWIDTH 600 0
DWIDTH 15 0
BBX 12 23 2 0
BITMAP
0600
0F00
1F80
38C0
0000
FFF0
FFF0
FFF0
E000
E000
E000
E000
E000
FFC0
FFC0
E000
E000
E000
E000
E000
FFF0
FFF0
FFF0
ENDCHAR
STARTCHAR 00CB
ENCODING 203
SWIDTH 600 0
DWIDTH 15 0
BBX 12 22 2 0
BITMAP
31C0
71C0
3080
0000
FFF0
FFF0
FFF0
E000
E000
E000
E000
E000
FFC0
FFC0
E000
E000
E000
E000
E000
FFF0
FFF0
FFF0
ENDCHAR
STARTCHAR 00CC
ENCODING 204
SWIDTH 600 0
DWIDTH 15 0
BBX 11 22 2 0
BITMAP
7800
3C00
1C00
0200
FFE0
FFE0
FFE0
0E00
0E00
0E00
0E00
0E00
0E00
0E00
0E00
0E00
0E00
0E00
0E00
FFE0
FFE0
FFE0
ENDCHAR
STARTCHAR 00CD
ENCODING 205
SWIDTH 600 0
DWIDTH 15 0
BBX 11 22 2 0
BITMAP
03C0
0700
0E00
0000
FFE0
FFE0
FFE0
0E00
0E00
0E00
0E00
0E00
0E00
0E00
0E00
0E00
0E00
0E00
0E00
FFE0
FFE0
FFE0
ENDCHAR
STARTCHAR 00CE
ENCODING 206
SWIDTH 600 0
DWIDTH 15 0
BBX 11 23 2 0
BITMAP
0C00
1E00
3F00
7180
0000
FFE0
FFE0
FFE0
0E00
0E00
0E00
0E00
0E00
0E00
0E00
0E00
0E00
0E00
0E00
0E00
FFE0
FFE0
FFE0
ENDCHAR
STARTCHAR 00CF
ENCODING 207
SWIDTH 600 0
DWIDTH 15 0
BBX 11 22 2 0
BITMAP
6380
E380
6100
0000
FFE0
FFE0
FFE0
0E00
0E00
0E00
0E00
0E00
0E00
0E00
0E00
0E00
0E00
0E00
0E00
FFE0
FFE0
FFE0
ENDCHAR
STARTCHAR 00D0
ENCODING 208
SWIDTH 600 0
DWIDTH 15 0
BBX 15 18 -1 0
BITMAP
1F80
1FF0
1FF8
1C3C
1C1C
1C1E
1C0E
1C0E
FF8E
FF8E
1C0E
1C0E
1C1E
1C1C
1C3C
1FF8
1FF0
1FC0
ENDCHAR
STARTCHAR 00D1
ENCODING 209
SWIDTH 600 0
DWIDTH 15 0
BBX 11 23 2 0
BITMAP
1080
7F80
7F80
4200
0000
E0E0
E0E0
F0E0
F0E0
F8E0
F8E0
FCE0
FCE0
EEE0
EEE0
E6E0
E7E0
E3E0
E3E0
E1E0
E1E0
E1E0
E0E0
ENDCHAR
STARTCHAR 00D2
ENCODING 210
SWIDTH 600 0
DWIDTH 15 0
BBX 13 23 1 0
BITMAP
3C00
1E00
0E00
0100
0000
0F80
3FE0
3FE0
70F0
7070
E078
E038
E038
E038
E038
E038
E038
E078
F070
7070
7DF0
3FE0
1F80
ENDCHAR
STARTCHAR 00D3
ENCODING 211
SWIDTH 600 0
DWIDTH 15 0
BBX 13 22 1 0
BITMAP
01E0
0380
0700
0000
0F80
3FE0
3FE0
70F0
7070
E078
E038
E038
E038
E038
E038
E038
E078
F070
7070
7DF0
3FE0
1F80
ENDCHAR
STARTCHAR 00D4
ENCODING 212
SWIDTH 600 0
DWIDTH 15 0
BBX 13 24 1 0
BITMAP
0600
0F00
1F80
38C0
0000
0000
0F80
3FE0
3FE0
70F0
7070
E078
E038
E038
E038
E038
E038
E038
E078
F070
7070
7DF0
3FE0
1F80
ENDCHAR
STARTCHAR 00D5
ENCODING 213
SWIDTH 600 0
DWIDTH 15 0
BBX 13 24 1 0
BITMAP
0420
1FE0
1FE0
1080
0000
0000
0F80
3FE0
3FE0
70F0
7070
E078
E038
E038
E038
E038
E038
E038
E078
F070
7070
7DF0
3FE0
1F80
ENDCHAR
STARTCHAR 00D6
ENCODING 214
SWIDTH 600 0
DWIDTH 15 0
BBX 13 23 1 0
BITMAP
18E0
38E0
1840
0000
0000
0F80
3FE0
3FE0
70F0
7070
E078
E038
E038
E038
E038
E038
E038
E078
F070
7070
7DF0
3FE0
1F80
ENDCHAR
STARTCHAR 00D7
ENCODING 215
SWIDTH 600 0
DWIDTH 15 0
BBX 11 11 2 3
BITMAP
4040
E0E0
71E0
3BC0
1F80
0F00
1F00
3F80
79C0
F0E0
6040
ENDCHAR
STARTCHAR 00D8
ENCODING 216
SWIDTH 600 0
DWIDTH 15 0
BBX 13 20 1 -1
BITMAP
0018
0FB0
3FF0
3FE0
70F0
70F0
E1F8
E1B8
E338
E338
E638
E638
EC38
FC38
F878
7070
7DF0
7FE0
7F80
C000
ENDCHAR
STARTCHAR 00D9
ENCODING 217
SWIDTH 600 0
DWIDTH 15 0
BBX 11 22 2 0
BITMAP
7800
3C00
1C00
0200
E0E0
E0E0
E0E0
E0E0
E0E0
E0E0
E0E0
E0E0
E0E0
E0E0
E0E0
E0E0
E0E0
E0E0
E0E0
FBE0
7FC0
3F80
ENDCHAR
STARTCHAR 00DA
ENCODING 218
SWIDTH 600 0
DWIDTH 15 0
BBX 11 22 2 0
BITMAP
01E0
0380
0700
0000
E0E0
E0E0
E0E0
E0E0
E0E0
E0E0
E0E0
E0E0
E0E0
E0E0
E0E0
E0E0
E0E0
E0E0
E0E0
FBE0
7FC0
3F80
ENDCHAR
STARTCHAR 00DB
ENCODING 219
SWIDTH 600 0
DWIDTH 15 0
BBX 11 23 2 0
BITMAP
0600
0F00
1F80
38C0
0000
E0E0
E0E0
E0E0
E0E0
E0E0
E0E0
E0E0
E0E0
E0E0
E0E0
E0E0
E0E0
E0E0
E0E0
E0E0
FBE0
7FC0
3F80
ENDCHAR
STARTCHAR 00DC
ENCODING 220
SWIDTH 600 0
DWIDTH 15 0
BBX 11 22 2 0
BITMAP
31C0
71C0
3080
0000
E0E0
E0E0
E0E0
E0E0
E0E0
E0E0
E0E0
E0E0
E0E0
E0E0
E0E0
E0E0
E0E0
E0E0
E0E0
FBE0
7FC0
3F80
ENDCHAR
STARTCHAR 00DD
ENCODING 221
SWIDTH 600 0
DWIDTH 15 0
BBX 15 22 0 0
BITMAP
0078
00E0
01C0
0000
F01E
781C
383C
3838
1C78
1C70
1E70
0EE0
0FE0
07C0
07C0
0380
0380
0380
0380
0380
0380
0380
ENDCHAR
STARTCHAR 00DE
ENCODING 222
SWIDTH 600 0
DWIDTH 15 0
BBX 12 18 2 0
BITMAP
E000
E000
E000
E000
FFC0
FFE0
E1F0
E070
E070
E070
E070
E0F0
FFE0
FFC0
E000
E000
E000
E000
ENDCHAR
STARTCHAR 00DF
ENCODING 223
SWIDTH 600 0
DWIDTH 15 0
BBX 12 19 2 0
BITMAP
1F00
3F80
7FC0
F1C0
E1C0
E1C0
E1C0
E380
E380
E380
E3C0
E1E0
E0E0
E0F0
E070
E070
ECF0
EFE0
EFC0
ENDCHAR
STARTCHAR 00E0
ENCODING 224
SWIDTH 600 0
DWIDTH 15 0
BBX 11 18 2 0
BITMAP
7800
3C00
1C00
0200
0000
3F80
7FC0
E1E0
E0E0
00E0
3FE0
7FE0
E0E0
E0E0
E0E0
F3E0
FFE0
7EE0
ENDCHAR
STARTCHAR 00E1
ENCODING 225
SWIDTH 600 0
DWIDTH 15 0
BBX 11 18 2 0
BITMAP
03C0
0700
0E00
0000
0000
3F80
7FC0
E1E0
E0E0
00E0
3FE0
7FE0
E0E0
E0E0
E0E0
F3E0
FFE0
7EE0
ENDCHAR
STARTCHAR 00E2
ENCODING 226
SWIDTH 600 0
DWIDTH 15 0
BBX 11 19 2 0
BITMAP
0C00
1E00
3F00
7180
0000
0000
3F80
7FC0
E1E0
E0E0
00E0
3FE0
7FE0
E0E0
E0E0
E0E0
F3E0
FFE0
7EE0
ENDCHAR
STARTCHAR 00E3
ENCODING 227
SWIDTH 600 0
DWIDTH 15 0
BBX 11 19 2 0
BITMAP
1080
7F80
7F80
4200
0000
0000
3F80
7FC0
E1E0
E0E0
00E0
3FE0
7FE0
E0E0
E0E0
E0E0
F3E0
FFE0
7EE0
ENDCHAR
STARTCHAR 00E4
ENCODING 228
SWIDTH 600 0
DWIDTH 15 0
BBX 11 18 2 0
BITMAP
31C0
71C0
3080
0000
0000
3F80
7FC0
E1E0
E0E0
00E0
3FE0
7FE0
E0E0
E0E0
E0E0
F3E0
FFE0
7EE0
ENDCHAR
STARTCHAR 00E5
ENCODING 229
SWIDTH 600 0
DWIDTH 15 0
BBX 11 20 2 0
BITMAP
0400
1F00
1100
1B00
0E00
0000
0000
3F80
7FC0
E1E0
E0E0
00E0
3FE0
7FE0
E0E0
E0E0
E0E0
F3E0
FFE0
7EE0
ENDCHAR
STARTCHAR 00E6
ENCODING 230
SWIDTH 600 0
DWIDTH 15 0
BBX 14 13 1 0
BITMAP
7FF0
FFF8
E738
071C
071C
3FFC
7FFC
F700
E700
E700
E788
FFF8
7DF8
ENDCHAR
STARTCHAR 00E7
ENCODING 231
SWIDTH 600 0
DWIDTH 15 0
BBX 12 19 1 -6
BITMAP
1FC0
3FE0
78F0
7070
7070
7000
F000
7000
7000
7070
7CF0
3FE0
1FC0
0300
0780
01C0
01C0
0380
0400
ENDCHAR
STARTCHAR 00E8
ENCODING 232
SWIDTH 600 0
DWIDTH 15 0
BBX 13 18 1 0
BITMAP
3C00
1E00
0E00
0100
0000
1FC0
3FE0
78F0
7070
7038
FFF8
FFF8
F000
7000
7820
7CF0
3FF0
0FC0
ENDCHAR
STARTCHAR 00E9
ENCODING 233
SWIDTH 600 0
DWIDTH 15 0
BBX 13 18 1 0
BITMAP
01E0
0380
0700
0000
0000
1FC0
3FE0
78F0
7070
7038
FFF8
FFF8
F000
7000
7820
7CF0
3FF0
0FC0
ENDCHAR
STARTCHAR 00EA
ENCODING 234
SWIDTH 600 0
DWIDTH 15 0
BBX 13 19 1 0
BITMAP
0600
0F00
1F80
38C0
0000
0000
1FC0
3FE0
78F0
7070
7038
FFF8
FFF8
F000
7000
7820
7CF0
3FF0
0FC0
ENDCHAR
STARTCHAR 00EB
ENCODING 235
SWIDTH 600 0
DWIDTH 15 0
BBX 13 18 1 0
BITMAP
18E0
38E0
1840
0000
0000
1FC0
3FE0
78F0
7070
7038
FFF8
FFF8
F000
7000
7820
7CF0
3FF0
0FC0
ENDCHAR
STARTCHAR 00EC
ENCODING 236
SWIDTH 600 0
DWIDTH 15 0
BBX 12 18 2 0
BITMAP
3C00
1E00
0E00
0100
0000
FF00
FF00
0F00
0F00
0F00
0F00
0F00
0F00
0F00
0F00
FFF0
FFF0
FFF0
ENDCHAR
STARTCHAR 00ED
ENCODING 237
SWIDTH 600 0
DWIDTH 15 0
BBX 12 18 2 0
BITMAP
01E0
0380
0700
0000
0000
FF00
FF00
0F00
0F00
0F00
0F00
0F00
0F00
0F00
0F00
FFF0
FFF0
FFF0
ENDCHAR
STARTCHAR 00EE
ENCODING 238
SWIDTH 600 0
DWIDTH 15 0
BBX 12 19 2 0
BITMAP
0600
0F00
1F80
38C0
0000
0000
FF00
FF00
0F00
0F00
0F00
0F00
0F00
0F00
0F00
0F00
FFF0
FFF0
FFF0
ENDCHAR
STARTCHAR 00EF
ENCODING 239
SWIDTH 600 0
DWIDTH 15 0
BBX 12 18 2 0
BITMAP
31C0
71C0
3080
0000
0000
FF00
FF00
0F00
0F00
0F00
0F00
0F00
0F00
0F00
0F00
FFF0
FFF0
FFF0
ENDCHAR
STARTCHAR 00F0
ENCODING 240
SWIDTH 600 0
DWIDTH 15 0
BBX 12 19 1 0
BITMAP
0400
0630
0FF0
07C0
07E0
1CE0
08F0
0E70
3FF0
7FF0
F070
E070
E070
E070
E070
E0F0
F9E0
7FC0
1F80
ENDCHAR
STARTCHAR 00F1
ENCODING 241
SWIDTH 600 0
DWIDTH 15 0
BBX 11 19 2 0
BITMAP
1080
7F80
7F80
4200
0000
0000
EFC0
FFE0
F1E0
E0E0
E0E0
E0E0
E0E0
E0E0
E0E0
E0E0
E0E0
E0E0
E0E0
ENDCHAR
STARTCHAR 00F2
ENCODING 242
SWIDTH 600 0
DWIDTH 15 0
BBX 13 18 1 0
BITMAP
3C00
1E00
0E00
0100
0000
1FC0
3FE0
78F0
7070
F070
E078
E038
F078
7070
7070
7DF0
3FE0
1FC0
ENDCHAR
STARTCHAR 00F3
ENCODING 243
SWIDTH 600 0
DWIDTH 15 0
BBX 13 18 1 0
BITMAP
01E0
0380
0700
0000
0000
1FC0
3FE0
78F0
7070
F070
E078
E038
F078
7070
7070
7DF0
3FE0
1FC0
ENDCHAR
STARTCHAR 00F4
ENCODING 244
SWIDTH 600 0
DWIDTH 15 0
BBX 13 19 1 0
BITMAP
0600
0F00
1F80
38C0
0000
0000
1FC0
3FE0
78F0
7070
F070
E078
E038
F078
7070
7070
7DF0
3FE0
1FC0
ENDCHAR
STARTCHAR 00F5
ENCODING 245
SWIDTH 600 0
DWIDTH 15 0
BBX 13 19 1 0
BITMAP
0420
1FE0
1FE0
1080
0000
0000
1FC0
3FE0
78F0
7070
F070
E078
E038
F078
7070
7070
7DF0
3FE0
1FC0
ENDCHAR
STARTCHAR 00F6
ENCODING 246
SWIDTH 600 0
DWIDTH 15 0
BBX 13 18 1 0
BITMAP
18E0
38E0
1840
0000
0000
1FC0
3FE0
78F0
7070
F070
E078
E038
F078
7070
7070
7DF0
3FE0
1FC0
ENDCHAR
STARTCHAR 00F7
ENCODING 247
SWIDTH 600 0
DWIDTH 15 0
BBX 13 13 1 2
BITMAP
0700
0700
0700
0000
0000
FFF8
FFF8
FFF8
0000
0000
0700
0700
0700
ENDCHAR
STARTCHAR 00F8
ENCODING 248
SWIDTH 600 0
DWIDTH 15 0
BBX 13 17 1 -2
BITMAP
0030
0060
1FC0
3FE0
78F0
71F0
F178
E378
E238
F678
7470
7C70
7DF0
3FE0
1FC0
3000
3000
ENDCHAR
STARTCHAR 00F9
ENCODING 249
SWIDTH 600 0
DWIDTH 15 0
BBX 11 18 2 0
BITMAP
7800
3C00
1C00
0200
0000
E0E0
E0E0
E0E0
E0E0
E0E0
E0E0
E0E0
E0E0
E0E0
E0E0
F3E0
7FE0
3EE0
ENDCHAR
STARTCHAR 00FA
ENCODING 250
SWIDTH 600 0
DWIDTH 15 0
BBX 11 18 2 0
BITMAP
03C0
0700
0E00
0000
0000
E0E0
E0E0
E0E0
E0E0
E0E0
E0E0
E0E0
E0E0
E0E0
E0E0
F3E0
7FE0
3EE0
ENDCHAR
STARTCHAR 00FB
ENCODING 251
SWIDTH 600 0
DWIDTH 15 0
BBX 11 19 2 0
BITMAP
0C00
1E00
3F00
7180
0000
0000
E0E0
E0E0
E0E0
E0E0
E0E0
E0E0
E0E0
E0E0
E0E0
E0E0
F3E0
7FE0
3EE0
ENDCHAR
STARTCHAR 00FC
ENCODING 252
SWIDTH 600 0
DWIDTH 15 0
BBX 11 18 2 0
BITMAP
31C0
71C0
3080
0000
0000
E0E0
E0E0
E0E0
E0E0
E0E0
E0E0
E0E0
E0E0
E0E0
E0E0
F3E0
7FE0
3EE0
ENDCHAR
STARTCHAR 00FD
ENCODING 253
SWIDTH 600 0
DWIDTH 15 0
BBX 14 23 1 -5
BITMAP
00F0
01C0
0380
0000
0000
E03C
F038
7078
7870
38F0
38E0
1CE0
1DC0
0FC0
0FC0
0F80
0780
0700
0700
0E00
1E00
7C00
7800
ENDCHAR
STARTCHAR 00FE
ENCODING 254
SWIDTH 600 0
DWIDTH 15 0
BBX 12 24 2 -5
BITMAP
E000
E000
E000
E000
E000
E000
EF80
FFC0
F1E0
E0E0
E0E0
E0F0
E0F0
E0E0
E0E0
E0E0
F3E0
FFC0
EF80
E000
E000
E000
E000
E000
ENDCHAR
STARTCHAR 00FF
ENCODING 255
SWIDTH 600 0
DWIDTH 15 0
BBX 14 23 1 -5
BITMAP
18E0
38E0
1840
0000
0000
E03C
F038
7078
7870
38F0
38E0
1CE0
1DC0
0FC0
0FC0
0F80
0780
0700
0700
0E00
1E00
7C00
7800
ENDCHAR
STARTCHAR 0100
ENCODING 256
SWIDTH 600 0
DWIDTH 15 0
BBX 15 22 0 0
BITMAP
1FF0
1FF0
0000
0000
0380
03C0
03C0
07C0
07E0
06E0
0EE0
0E60
0E70
1C70
1C70
1FF8
3FF8
3FF8
381C
781C
701C
F01E
ENDCHAR
STARTCHAR 0101
ENCODING 257
SWIDTH 600 0
DWIDTH 15 0
BBX 11 18 2 0
BITMAP
7FC0
7FC0
0000
0000
0000
3F80
7FC0
E1E0
E0E0
00E0
3FE0
7FE0
E0E0
E0E0
E0E0
F3E0
FFE0
7EE0
ENDCHAR
STARTCHAR 0102
ENCODING 258
SWIDTH 600 0
DWIDTH 15 0
BBX 15 23 0 0
BITMAP
0C70
0C70
0FE0
03C0
0000
0380
03C0
03C0
07C0
07E0
06E0
0EE0
0E60
0E70
1C70
1C70
1FF8
3FF8
3FF8
381C
781C
701C
F01E
ENDCHAR
STARTCHAR 0103
ENCODING 259
SWIDTH 600 0
DWIDTH 15 0
BBX 11 19 2 0
BITMAP
31C0
31C0
3F80
0F00
0000
0000
3F80
7FC0
E1E0
E0E0
00E0
3FE0
7FE0
E0E0
E0E0
E0E0
F3E0
FFE0
7EE0
ENDCHAR
STARTCHAR 0104
ENCODING 260
SWIDTH 600 0
DWIDTH 15 0
BBX 15 23 0 -5
BITMAP
0380
03C0
03C0
07C0
07E0
06E0
0EE0
0E60
0E70
1C70
1C70
1FF8
3FF8
3FF8
381C
781C
701C
F01E
0018
0030
0030
003C
003E
ENDCHAR
STARTCHAR 0105
ENCODING 261
SWIDTH 600 0
DWIDTH 15 0
BBX 11 18 2 -5
BITMAP
3F80
7FC0
E1E0
E0E0
00E0
3FE0
7FE0
E0E0
E0E0
E0E0
F3E0
FFE0
7EE0
01C0
0180
0380
03E0
01E0
ENDCHAR
STARTCHAR 0106
ENCODING 262
SWIDTH 600 0
DWIDTH 15 0
BBX 13 22 1 0
BITMAP
00F0
01C0
0380
0000
0F80
3FE0
3FF0
7070
7078
E038
E000
E000
E000
E000
E000
E000
E038
F038
7070
7CF0
3FE0
1FC0
ENDCHAR
STARTCHAR 0107
ENCODING 263
SWIDTH 600 0
DWIDTH 15 0
BBX 12 18 1 0
BITMAP
00F0
01C0
0380
0000
0000
1FC0
3FE0
78F0
7070
7070
7000
F000
7000
7000
7070
7CF0
3FE0
1FC0
ENDCHAR
STARTCHAR 0108
ENCODING 264
SWIDTH 600 0
DWIDTH 15 0
BBX 13 23 1 0
BITMAP
0300
0780
0FC0
1C60
0000
0F80
3FE0
3FF0
7070
7078
E038
E000
E000
E000
E000
E000
E000
E038
F038
7070
7CF0
3FE0
1FC0
ENDCHAR
STARTCHAR 0109
ENCODING 265
SWIDTH 600 0
DWIDTH 15 0
BBX 12 19 1 0
BITMAP
0300
0780
0FC0
1C60
0000
0000
1FC0
3FE0
78F0
7070
7070
7000
F000
7000
7000
7070
7CF0
3FE0
1FC0
ENDCHAR
STARTCHAR 010A
ENCODING 266
SWIDTH 600 0
DWIDTH 15 0
BBX 13 22 1 0
BITMAP
0380
0380
0380
0000
0F80
3FE0
3FF0
7070
7078
E038
E000
E000
E000
E000
E000
E000
E038
F038
7070
7CF0
3FE0
1FC0
ENDCHAR
STARTCHAR 010B
ENCODING 267
SWIDTH 600 0
DWIDTH 15 0
BBX 12 18 1 0
BITMAP
0700
0700
0700
0000
0000
1FC0
3FE0
78F0
7070
7070
7000
F000
7000
7000
7070
7CF0
3FE0
1FC0
ENDCHAR
STARTCHAR 010C
ENCODING 268
SWIDTH 600 0
DWIDTH 15 0
BBX 13 23 1 0
BITMAP
1C70
0EE0
07C0
0380
0000
0F80
3FE0
3FF0
7070
7078
E038
E000
E000
E000
E000
E000
E000
E038
F038
7070
7CF0
3FE0
1FC0
ENDCHAR
STARTCHAR 010D
ENCODING 269
SWIDTH 600 0
DWIDTH 15 0
BBX 12 19 1 0
BITMAP
38E0
1DC0
0F80
0700
0000
0000
1FC0
3FE0
78F0
7070
7070
7000
F000
7000
7000
7070
7CF0
3FE0
1FC0
ENDCHAR
STARTCHAR 010E
ENCODING 270
SWIDTH 600 0
DWIDTH 15 0
BBX 12 23 2 0
BITMAP
E380
7700
3E00
1C00
0000
FC00
FF80
FFC0
E1E0
E0E0
E0E0
E0F0
E070
E070
E070
E070
E070
E0F0
E0E0
E1E0
FFC0
FF80
FE00
ENDCHAR
STARTCHAR 010F
ENCODING 271
SWIDTH 600 0
DWIDTH 15 0
BBX 17 19 0 0
BITMAP
007180
007180
007180
007180
007380
007300
1F7100
3FF000
78F000
707000
707000
F07000
F07000
F07000
707000
707000
7DF000
3FF000
1F7000
ENDCHAR
STARTCHAR 0110
ENCODING 272
SWIDTH 600 0
DWIDTH 15 0
BBX 15 18 -1 0
BITMAP
1F80
1FF0
1FF8
1C3C
1C1C
1C1E
1C0E
1C0E
FF8E
FF8E
1C0E
1C0E
1C1E
1C1C
1C3C
1FF8
1FF0
1FC0
ENDCHAR
STARTCHAR 0111
ENCODING 273
SWIDTH 600 0
DWIDTH 15 0
BBX 14 19 1 0
BITMAP
0070
0070
03FC
03FC
0070
0070
1F70
3FF0
78F0
7070
F070
E070
E070
E070
F070
7070
7DF0
3FF0
1F70
ENDCHAR
STARTCHAR 0112
ENCODING 274
SWIDTH 600 0
DWIDTH 15 0
BBX 12 22 2 0
BITMAP
7FC0
7FC0
0000
0000
FFF0
FFF0
FFF0
E000
E000
E000
E000
E000
FFC0
FFC0
E000
E000
E000
E000
E000
FFF0
FFF0
FFF0
ENDCHAR
STARTCHAR 0113
ENCODING 275
SWIDTH 600 0
DWIDTH 15 0
BBX 13 18 1 0
BITMAP
3FE0
3FE0
0000
0000
0000
1FC0
3FE0
78F0
7070
7038
FFF8
FFF8
F000
7000
7820
7CF0
3FF0
0FC0
ENDCHAR
STARTCHAR 0114
ENCODING 276
SWIDTH 600 0
DWIDTH 15 0
BBX 12 23 2 0
BITMAP
31C0
31C0
3F80
0F00
0000
FFF0
FFF0
FFF0
E000
E000
E000
E000
E000
FFC0
FFC0
E000
E000
E000
E000
E000
FFF0
FFF0
FFF0
ENDCHAR
STARTCHAR 0115
ENCODING 277
SWIDTH 600 0
DWIDTH 15 0
BBX 13 19 1 0
BITMAP
18E0
18E0
1FC0
0780
0000
0000
1FC0
3FE0
78F0
7070
7038
FFF8
FFF8
F000
7000
7820
7CF0
3FF0
0FC0
ENDCHAR
STARTCHAR 0116
ENCODING 278
SWIDTH 600 0
DWIDTH 15 0
BBX 12 22 2 0
BITMAP
0E00
0E00
0E00
0000
FFF0
FFF0
FFF0
E000
E000
E000
E000
E000
FFC0
FFC0
E000
E000
E000
E000
E000
FFF0
FFF0
FFF0
ENDCHAR
STARTCHAR 0117
ENCODING 279
SWIDTH 600 0
DWIDTH 15 0
BBX 13 18 1 0
BITMAP
0700
0700
0700
0000
0000
1FC0
3FE0
78F0
7070
7038
FFF8
FFF8
F000
7000
7820
7CF0
3FF0
0FC0
ENDCHAR
STARTCHAR 0118
ENCODING 280
SWIDTH 600 0
DWIDTH 15 0
BBX 12 23 2 -5
BITMAP
FFF0
FFF0
FFF0
E000
E000
E000
E000
E000
FFC0
FFC0
E000
E000
E000
E000
E000
FFF0
FFF0
FFF0
0180
0300
0300
03C0
01E0
ENDCHAR
STARTCHAR 0119
ENCODING 281
SWIDTH 600 0
DWIDTH 15 0
BBX 13 18 1 -5
BITMAP
1FC0
3FE0
78F0
7070
7038
FFF8
FFF8
F000
7000
7820
7CF0
3FF0
0FC0
0380
0300
0700
03C0
01C0
ENDCHAR
STARTCHAR 011A
ENCODING 282
SWIDTH 600 0
DWIDTH 15 0
BBX 12 23 2 0
BITMAP
71C0
3B80
1F00
0E00
0000
FFF0
FFF0
FFF0
E000
E000
E000
E000
E000
FFC0
FFC0
E000
E000
E000
E000
E000
FFF0
FFF0
FFF0
ENDCHAR
STARTCHAR 011B
ENCODING 283
SWIDTH 600 0
DWIDTH 15 0
BBX 13 19 1 0
BITMAP
38E0
1DC0
0F80
0700
0000
0000
1FC0
3FE0
78F0
7070
7038
FFF8
FFF8
F000
7000
7820
7CF0
3FF0
0FC0
ENDCHAR
STARTCHAR 011C
ENCODING 284
SWIDTH 600 0
DWIDTH 15 0
BBX 13 23 1 0
BITMAP
0300
0780
0FC0
1C60
0000
0F80
1FE0
3FF0
7870
7078
F000
E000
E000
E000
E1F8
E1F8
E038
F038
7038
7038
7CF8
3FF0
0FC0
ENDCHAR
STARTCHAR 011D
ENCODING 285
SWIDTH 600 0
DWIDTH 15 0
BBX 12 24 1 -5
BITMAP
0600
0F00
1F80
38C0
0000
0000
1FF0
3FF0
78F0
7070
7070
F070
F070
F070
7070
7070
7CF0
3FF0
1F70
0070
2070
39F0
7FE0
1F80
ENDCHAR
STARTCHAR 011E
ENCODING 286
SWIDTH 600 0
DWIDTH 15 0
BBX 13 23 1 0
BITMAP
18E0
18E0
1FC0
0780
0000
0F80
1FE0
3FF0
7870
7078
F000
E000
E000
E000
E1F8
E1F8
E038
F038
7038
7038
7CF8
3FF0
0FC0
ENDCHAR
STARTCHAR 011F
ENCODING 287
SWIDTH 600 0
DWIDTH 15 0
BBX 12 24 1 -5
BITMAP
18E0
18E0
1FC0
0780
0000
0000
1FF0
3FF0
78F0
7070
7070
F070
F070
F070
7070
7070
7CF0
3FF0
1F70
0070
2070
39F0
7FE0
1F80
ENDCHAR
STARTCHAR 0120
ENCODING 288
SWIDTH 600 0
DWIDTH 15 0
BBX 13 22 1 0
BITMAP
0700
0700
0700
0000
0F80
1FE0
3FF0
7870
7078
F000
E000
E000
E000
E1F8
E1F8
E038
F038
7038
7038
7CF8
3FF0
0FC0
ENDCHAR
STARTCHAR 0121
ENCODING 289
SWIDTH 600 0
DWIDTH 15 0
BBX 12 23 1 -5
BITMAP
0700
0700
0700
0000
0000
1FF0
3FF0
78F0
7070
7070
F070
F070
F070
7070
7070
7CF0
3FF0
1F70
0070
2070
39F0
7FE0
1F80
ENDCHAR
STARTCHAR 0122
ENCODING 290
SWIDTH 600 0
DWIDTH 15 0
BBX 13 24 1 -6
BITMAP
0F80
1FE0
3FF0
7870
7078
F000
E000
E000
E000
E1F8
E1F8
E038
F038
7038
7038
7CF8
3FF0
0FC0
0000
0380
0380
0300
0300
0600
ENDCHAR
STARTCHAR 0123
ENCODING 291
SWIDTH 600 0
DWIDTH 15 0
BBX 12 26 1 -5
BITMAP
0300
0700
0700
0600
0600
0000
0000
0000
1FF0
3FF0
78F0
7070
7070
F070
F070
F070
7070
7070
7CF0
3FF0
1F70
0070
2070
39F0
7FE0
1F80
ENDCHAR
STARTCHAR 0124
ENCODING 292
SWIDTH 600 0
DWIDTH 15 0
BBX 11 23 2 0
BITMAP
0C00
1E00
3F00
7180
0000
E0E0
E0E0
E0E0
E0E0
E0E0
E0E0
E0E0
E0E0
FFE0
FFE0
E0E0
E0E0
E0E0
E0E0
E0E0
E0E0
E0E0
E0E0
ENDCHAR
STARTCHAR 0125
ENCODING 293
SWIDTH 600 0
DWIDTH 15 0
BBX 14 24 -1 0
BITMAP
1800
3C00
7E00
E300
0000
1C00
1C00
1C00
1C00
1C00
1C00
1DF8
1FFC
1E3C
1C1C
1C1C
1C1C
1C1C
1C1C
1C1C
1C1C
1C1C
1C1C
1C1C
ENDCHAR
STARTCHAR 0126
ENCODING 294
SWIDTH 600 0
DWIDTH 15 0
BBX 15 18 0 0
BITMAP
7038
7038
7038
FFFE
FFFE
7038
7038
7038
7FF8
7FF8
7038
7038
7038
7038
7038
7038
7038
7038
ENDCHAR
STARTCHAR 0127
ENCODING 295
SWIDTH 600 0
DWIDTH 15 0
BBX 14 19 0 0
BITMAP
3800
3800
FF00
FF00
3800
3800
3BF0
3FF8
3C78
383C
383C
383C
383C
383C
383C
383C
383C
383C
383C
ENDCHAR
STARTCHAR 0128
ENCODING 296
SWIDTH 600 0
DWIDTH 15 0
BBX 11 23 2 0
BITMAP
1080
7F80
7F80
4200
0000
FFE0
FFE0
FFE0
0E00
0E00
0E00
0E00
0E00
0E00
0E00
0E00
0E00
0E00
0E00
0E00
FFE0
FFE0
FFE0
ENDCHAR
STARTCHAR 0129
ENCODING 297
SWIDTH 600 0
DWIDTH 15 0
BBX 12 19 2 0
BITMAP
0840
3FC0
3FC0
2100
0000
0000
FF00
FF00
0F00
0F00
0F00
0F00
0F00
0F00
0F00
0F00
FFF0
FFF0
FFF0
ENDCHAR
STARTCHAR 012A
ENCODING 298
SWIDTH 600 0
DWIDTH 15 0
BBX 11 22 2 0
BITMAP
7FC0
7FC0
0000
0000
FFE0
FFE0
FFE0
0E00
0E00
0E00
0E00
0E00
0E00
0E00
0E00
0E00
0E00
0E00
0E00
FFE0
FFE0
FFE0
ENDCHAR
STARTCHAR 012B
ENCODING 299
SWIDTH 600 0
DWIDTH 15 0
BBX 12 18 2 0
BITMAP
7FC0
7FC0
0000
0000
0000
FF00
FF00
0F00
0F00
0F00
0F00
0F00
0F00
0F00
0F00
FFF0
FFF0
FFF0
ENDCHAR
STARTCHAR 012C
ENCODING 300
SWIDTH 600 0
DWIDTH 15 0
BBX 11 23 2 0
BITMAP
31C0
31C0
3F80
0F00
0000
FFE0
FFE0
FFE0
0E00
0E00
0E00
0E00
0E00
0E00
0E00
0E00
0E00
0E00
0E00
0E00
FFE0
FFE0
FFE0
ENDCHAR
STARTCHAR 012D
ENCODING 301
SWIDTH 600 0
DWIDTH 15 0
BBX 12 19 2 0
BITMAP
31C0
31C0
3F80
0F00
0000
0000
FF00
FF00
0F00
0F00
0F00
0F00
0F00
0F00
0F00
0F00
FFF0
FFF0
FFF0
ENDCHAR
STARTCHAR 012E
ENCODING 302
SWIDTH 600 0
DWIDTH 15 0
BBX 11 23 2 -5
BITMAP
FFE0
FFE0
FFE0
0E00
0E00
0E00
0E00
0E00
0E00
0E00
0E00
0E00
0E00
0E00
0E00
FFE0
FFE0
FFE0
0E00
1C00
1C00
1F00
0F00
ENDCHAR
STARTCHAR 012F
ENCODING 303
SWIDTH 600 0
DWIDTH 15 0
BBX 10 23 3 -5
BITMAP
1E00
1E00
0E00
0000
0000
FE00
FE00
1E00
1E00
1E00
1E00
1E00
1E00
1E00
1E00
FFC0
FFC0
FFC0
1800
3800
3000
3C00
1E00
ENDCHAR
STARTCHAR 0130
ENCODING 304
SWIDTH 600 0
DWIDTH 15 0
BBX 11 22 2 0
BITMAP
0E00
0E00
0E00
0000
FFE0
FFE0
FFE0
0E00
0E00
0E00
0E00
0E00
0E00
0E00
0E00
0E00
0E00
0E00
0E00
FFE0
FFE0
FFE0
ENDCHAR
STARTCHAR 0131
ENCODING 305
SWIDTH 600 0
DWIDTH 15 0
BBX 12 13 2 0
BITMAP
FF00
FF00
0F00
0F00
0F00
0F00
0F00
0F00
0F00
0F00
FFF0
FFF0
FFF0
ENDCHAR
STARTCHAR 0132
ENCODING 306
SWIDTH 600 0
DWIDTH 15 0
BBX 11 18 2 0
BITMAP
C060
C060
C060
C060
C060
C060
C060
C060
C060
C060
C060
C060
C060
C060
DC60
DC60
CFE0
C7C0
ENDCHAR
STARTCHAR 0133
ENCODING 307
SWIDTH 600 0
DWIDTH 15 0
BBX 13 23 1 -5
BITMAP
1830
1838
1810
0000
0000
F9F0
F9F0
1830
1830
1830
1830
1830
1830
1830
1830
1830
FF30
FF30
0030
0030
0070
07E0
07C0
ENDCHAR
STARTCHAR 0134
ENCODING 308
SWIDTH 600 0
DWIDTH 15 0
BBX 15 23 1 0
BITMAP
0030
0078
00FC
01C6
0000
0070
0070
0070
0070
0070
0070
0070
0070
0070
0070
0070
0070
0070
F070
7070
79E0
3FE0
1F80
ENDCHAR
STARTCHAR 0135
ENCODING 309
SWIDTH 600 0
DWIDTH 15 0
BBX 10 24 3 -5
BITMAP
0600
0F00
1F80
38C0
0000
0000
7E00
7E00
0E00
0E00
0E00
0E00
0E00
0E00
0E00
0E00
0E00
0E00
0E00
0E00
0E00
1E00
FC00
F800
ENDCHAR
STARTCHAR 0136
ENCODING 310
SWIDTH 600 0
DWIDTH 15 0
BBX 13 24 2 -6
BITMAP
E078
E0F0
E1E0
E1C0
E3C0
E780
EF00
EE00
FE00
FF00
FF00
F780
E3C0
E1C0
E1E0
E0F0
E0F0
E078
0000
0E00
0E00
0C00
0C00
1800
ENDCHAR
STARTCHAR 0137
ENCODING 311
SWIDTH 600 0
DWIDTH 15 0
BBX 12 25 2 -6
BITMAP
E000
E000
E000
E000
E000
E010
E1E0
E3C0
E780
EF00
EE00
FE00
FF00
F700
E780
E3C0
E1E0
E1E0
E0F0
0000
0E00
0E00
0C00
0C00
1800
ENDCHAR
STARTCHAR 0138
ENCODING 312
SWIDTH 600 0
DWIDTH 15 0
BBX 13 13 2 0
BITMAP
E0F0
E1E0
E3C0
E780
EF00
FF00
FF00
FF80
F3C0
E3C0
E1E0
E0F0
E0F8
ENDCHAR
STARTCHAR 0139
ENCODING 313
SWIDTH 600 0
DWIDTH 15 0
BBX 12 22 2 0
BITMAP
1E00
3800
7000
0000
E000
E000
E000
E000
E000
E000
E000
E000
E000
E000
E000
E000
E000
E000
E000
FFF0
FFF0
FFF0
ENDCHAR
STARTCHAR 013A
ENCODING 314
SWIDTH 600 0
DWIDTH 15 0
BBX 12 23 2 0
BITMAP
01E0
0380
0700
0000
FF00
FF00
FF00
0F00
0F00
0F00
0F00
0F00
0F00
0F00
0F00
0F00
0F00
0F00
0F00
0F00
FFF0
FFF0
FFF0
ENDCHAR
STARTCHAR 013B
ENCODING 315
SWIDTH 600 0
DWIDTH 15 0
BBX 12 24 2 -6
BITMAP
E000
E000
E000
E000
E000
E000
E000
E000
E000
E000
E000
E000
E000
E000
E000
FFF0
FFF0
FFF0
0000
0E00
0E00
0C00
0C00
1800
ENDCHAR
STARTCHAR 013C
ENCODING 316
SWIDTH 600 0
DWIDTH 15 0
BBX 12 25 2 -6
BITMAP
FF00
FF00
FF00
0F00
0F00
0F00
0F00
0F00
0F00
0F00
0F00
0F00
0F00
0F00
0F00
0F00
FFF0
FFF0
FFF0
0000
0700
0700
0600
0600
0C00
ENDCHAR
STARTCHAR 013D
ENCODING 317
SWIDTH 600 0
DWIDTH 15 0
BBX 12 18 2 0
BITMAP
E0C0
E0C0
E0C0
E0C0
E1C0
E180
E080
E000
E000
E000
E000
E000
E000
E000
E000
FFF0
FFF0
FFF0
ENDCHAR
STARTCHAR 013E
ENCODING 318
SWIDTH 600 0
DWIDTH 15 0
BBX 13 19 1 0
BITMAP
FF18
FF18
FF18
0F18
0F38
0F30
0F10
0F00
0F00
0F00
0F00
0F00
0F00
0F00
0F00
0F00
FFF0
FFF0
FFF0
ENDCHAR
STARTCHAR 013F
ENCODING 319
SWIDTH 600 0
DWIDTH 15 0
BBX 12 18 2 0
BITMAP
E000
E000
E000
E000
E000
E000
E000
E380
E380
E380
E000
E000
E000
E000
E000
FFF0
FFF0
FFF0
ENDCHAR
STARTCHAR 0140
ENCODING 320
SWIDTH 600 0
DWIDTH 15 0
BBX 12 19 1 0
BITMAP
FF00
FF00
FF00
0F00
0F00
0F00
0F00
0F00
0F70
0F70
0F70
0F00
0F00
0F00
0F00
0F00
FFF0
FFF0
FFF0
ENDCHAR
STARTCHAR 0141
ENCODING 321
SWIDTH 600 0
DWIDTH 15 0
BBX 13 18 1 0
BITMAP
7000
7000
7000
7000
7000
7000
7100
7E00
FE00
F800
F000
7000
7000
7000
7000
7FF8
7FF8
7FF8
ENDCHAR
STARTCHAR 0142
ENCODING 322
SWIDTH 600 0
DWIDTH 15 0
BBX 11 19 3 0
BITMAP
FE00
FE00
FE00
0E00
0E00
0E40
0FC0
0FC0
1F00
FE00
EE00
8E00
0E00
0E00
0E00
0E00
FFE0
FFE0
FFE0
ENDCHAR
STARTCHAR 0143
ENCODING 323
SWIDTH 600 0
DWIDTH 15 0
BBX 11 22 2 0
BITMAP
03C0
0700
0E00
0000
E0E0
E0E0
F0E0
F0E0
F8E0
F8E0
FCE0
FCE0
EEE0
EEE0
E6E0
E7E0
E3E0
E3E0
E1E0
E1E0
E1E0
E0E0
ENDCHAR
STARTCHAR 0144
ENCODING 324
SWIDTH 600 0
DWIDTH 15 0
BBX 11 18 2 0
BITMAP
03C0
0700
0E00
0000
0000
EFC0
FFE0
F1E0
E0E0
E0E0
E0E0
E0E0
E0E0
E0E0
E0E0
E0E0
E0E0
E0E0
ENDCHAR
STARTCHAR 0145
ENCODING 325
SWIDTH 600 0
DWIDTH 15 0
BBX 11 24 2 -6
BITMAP
E0E0
E0E0
F0E0
F0E0
F8E0
F8E0
FCE0
FCE0
EEE0
EEE0
E6E0
E7E0
E3E0
E3E0
E1E0
E1E0
E1E0
E0E0
0000
0E00
0E00
0C00
0C00
1800
ENDCHAR
STARTCHAR 0146
ENCODING 326
SWIDTH 600 0
DWIDTH 15 0
BBX 11 19 2 -6
BITMAP
EFC0
FFE0
F1E0
E0E0
E0E0
E0E0
E0E0
E0E0
E0E0
E0E0
E0E0
E0E0
E0E0
0000
0E00
0E00
0C00
0C00
1800
ENDCHAR
STARTCHAR 0147
ENCODING 327
SWIDTH 600 0
DWIDTH 15 0
BBX 11 23 2 0
BITMAP
71C0
3B80
1F00
0E00
0000
E0E0
E0E0
F0E0
F0E0
F8E0
F8E0
FCE0
FCE0
EEE0
EEE0
E6E0
E7E0
E3E0
E3E0
E1E0
E1E0
E1E0
E0E0
ENDCHAR
STARTCHAR 0148
ENCODING 328
SWIDTH 600 0
DWIDTH 15 0
BBX 11 19 2 0
BITMAP
71C0
3B80
1F00
0E00
0000
0000
EFC0
FFE0
F1E0
E0E0
E0E0
E0E0
E0E0
E0E0
E0E0
E0E0
E0E0
E0E0
E0E0
ENDCHAR
STARTCHAR 0149
ENCODING 329
SWIDTH 600 0
DWIDTH 15 0
BBX 14 19 -1 0
BITMAP
6000
6000
6000
6000
E000
C000
5DF8
1FFC
1E3C
1C1C
1C1C
1C1C
1C1C
1C1C
1C1C
1C1C
1C1C
1C1C
1C1C
ENDCHAR
STARTCHAR 014A
ENCODING 330
SWIDTH 600 0
DWIDTH 15 0
BBX 11 23 2 -5
BITMAP
E0E0
F0E0
F0E0
F8E0
F8E0
F8E0
FCE0
FCE0
EEE0
EEE0
E7E0
E7E0
E3E0
E3E0
E1E0
E1E0
E1E0
E0E0
00E0
00E0
01E0
07E0
07C0
ENDCHAR
STARTCHAR 014B
ENCODING 331
SWIDTH 600 0
DWIDTH 15 0
BBX 11 18 2 -5
BITMAP
EFC0
FFC0
F1E0
E0E0
E0E0
E0E0
E0E0
E0E0
E0E0
E0E0
E0E0
E0E0
E0E0
00E0
00E0
01E0
07C0
0780
ENDCHAR
STARTCHAR 014C
ENCODING 332
SWIDTH 600 0
DWIDTH 15 0
BBX 13 22 1 0
BITMAP
3FE0
3FE0
0000
0000
0F80
3FE0
3FE0
70F0
7070
E078
E038
E038
E038
E038
E038
E038
E078
F070
7070
7DF0
3FE0
1F80
ENDCHAR
STARTCHAR 014D
ENCODING 333
SWIDTH 600 0
DWIDTH 15 0
BBX 13 18 1 0
BITMAP
3FE0
3FE0
0000
0000
0000
1FC0
3FE0
78F0
7070
F070
E078
E038
F078
7070
7070
7DF0
3FE0
1FC0
ENDCHAR
STARTCHAR 014E
ENCODING 334
SWIDTH 600 0
DWIDTH 15 0
BBX 13 23 1 0
BITMAP
18E0
18E0
1FC0
0780
0000
0F80
3FE0
3FE0
70F0
7070
E078
E038
E038
E038
E038
E038
E038
E078
F070
7070
7DF0
3FE0
1F80
ENDCHAR
STARTCHAR 014F
ENCODING 335
SWIDTH 600 0
DWIDTH 15 0
BBX 13 19 1 0
BITMAP
18E0
18E0
1FC0
0780
0000
0000
1FC0
3FE0
78F0
7070
F070
E078
E038
F078
7070
7070
7DF0
3FE0
1FC0
ENDCHAR
STARTCHAR 0150
ENCODING 336
SWIDTH 600 0
DWIDTH 15 0
BBX 14 24 1 0
BITMAP
03BC
0770
0660
0DC0
0000
0000
0F80
3FE0
3FE0
70F0
7070
E078
E038
E038
E038
E038
E038
E038
E078
F070
7070
7DF0
3FE0
1F80
ENDCHAR
STARTCHAR 0151
ENCODING 337
SWIDTH 600 0
DWIDTH 15 0
BBX 14 19 1 0
BITMAP
03BC
0770
0660
0DC0
0000
0000
1FC0
3FE0
78F0
7070
F070
E078
E038
F078
7070
7070
7DF0
3FE0
1FC0
ENDCHAR
STARTCHAR 0152
ENCODING 338
SWIDTH 600 0
DWIDTH 15 0
BBX 14 18 1 0
BITMAP
1FF8
7FF8
7BF8
E380
E380
E380
E380
E380
E3F8
E3F8
E380
E380
E380
E380
E380
73FC
7FFC
3FFC
ENDCHAR
STARTCHAR 0153
ENCODING 339
SWIDTH 600 0
DWIDTH 15 0
BBX 15 13 0 0
BITMAP
3FF8
7FFC
73DC
739C
738C
E3FE
E3FE
E380
F380
73C0
73C8
7FFC
3EFC
ENDCHAR
STARTCHAR 0154
ENCODING 340
SWIDTH 600 0
DWIDTH 15 0
BBX 12 22 2 0
BITMAP
03C0
0700
0E00
0000
FF00
FFC0
FFE0
E0F0
E0F0
E070
E070
E0F0
E3E0
FFC0
FF80
E380
E3C0
E1C0
E1E0
E0E0
E0F0
E070
ENDCHAR
STARTCHAR 0155
ENCODING 341
SWIDTH 600 0
DWIDTH 15 0
BBX 10 18 4 0
BITMAP
0F00
1C00
3800
0000
0000
EFC0
FF80
FF80
F000
E000
E000
E000
E000
E000
E000
E000
E000
E000
ENDCHAR
STARTCHAR 0156
ENCODING 342
SWIDTH 600 0
DWIDTH 15 0
BBX 12 24 2 -6
BITMAP
FF00
FFC0
FFE0
E0F0
E0F0
E070
E070
E0F0
E3E0
FFC0
FF80
E380
E3C0
E1C0
E1E0
E0E0
E0F0
E070
0000
0E00
0E00
0C00
0C00
1800
ENDCHAR
STARTCHAR 0157
ENCODING 343
SWIDTH 600 0
DWIDTH 15 0
BBX 11 19 3 -6
BITMAP
77E0
7FC0
7FC0
7800
7000
7000
7000
7000
7000
7000
7000
7000
7000
0000
7000
7000
6000
6000
C000
ENDCHAR
STARTCHAR 0158
ENCODING 344
SWIDTH 600 0
DWIDTH 15 0
BBX 12 23 2 0
BITMAP
71C0
3B80
1F00
0E00
0000
FF00
FFC0
FFE0
E0F0
E0F0
E070
E070
E0F0
E3E0
FFC0
FF80
E380
E3C0
E1C0
E1E0
E0E0
E0F0
E070
ENDCHAR
STARTCHAR 0159
ENCODING 345
SWIDTH 600 0
DWIDTH 15 0
BBX 12 19 2 0
BITMAP
E380
7700
3E00
1C00
0000
0000
3BF0
3FE0
3FE0
3C00
3800
3800
3800
3800
3800
3800
3800
3800
3800
ENDCHAR
STARTCHAR 015A
ENCODING 346
SWIDTH 600 0
DWIDTH 15 0
BBX 13 22 1 0
BITMAP
00F0
01C0
0380
0000
0FC0
3FE0
7FF0
7078
7038
7000
7800
3E00
3FC0
0FE0
01F0
0078
0038
E038
F038
7CF8
3FF0
1FC0
ENDCHAR
STARTCHAR 015B
ENCODING 347
SWIDTH 600 0
DWIDTH 15 0
BBX 11 18 2 0
BITMAP
03C0
0700
0E00
0000
0000
3F80
7FE0
F0E0
E0E0
F000
7E00
3FC0
07E0
00E0
E0E0
F0E0
7FE0
3F80
ENDCHAR
STARTCHAR 015C
ENCODING 348
SWIDTH 600 0
DWIDTH 15 0
BBX 13 24 1 0
BITMAP
0300
0780
0FC0
1C60
0000
0000
0FC0
3FE0
7FF0
7078
7038
7000
7800
3E00
3FC0
0FE0
01F0
0078
0038
E038
F038
7CF8
3FF0
1FC0
ENDCHAR
STARTCHAR 015D
ENCODING 349
SWIDTH 600 0
DWIDTH 15 0
BBX 11 19 2 0
BITMAP
0C00
1E00
3F00
7180
0000
0000
3F80
7FE0
F0E0
E0E0
F000
7E00
3FC0
07E0
00E0
E0E0
F0E0
7FE0
3F80
ENDCHAR
STARTCHAR 015E
ENCODING 350
SWIDTH 600 0
DWIDTH 15 0
BBX 13 24 1 -6
BITMAP
0FC0
3FE0
7FF0
7078
7038
7000
7800
3E00
3FC0
0FE0
01F0
0078
0038
E038
F038
7CF8
3FF0
1FC0
0300
0780
01C0
01C0
0380
0400
ENDCHAR
STARTCHAR 015F
ENCODING 351
SWIDTH 600 0
DWIDTH 15 0
BBX 11 19 2 -6
BITMAP
3F80
7FE0
F0E0
E0E0
F000
7E00
3FC0
07E0
00E0
E0E0
F0E0
7FE0
3F80
0C00
1E00
0700
0700
0E00
1000
ENDCHAR
STARTCHAR 0160
ENCODING 352
SWIDTH 600 0
DWIDTH 15 0
BBX 13 24 1 0
BITMAP
38E0
1DC0
0F80
0700
0000
0000
0FC0
3FE0
7FF0
7078
7038
7000
7800
3E00
3FC0
0FE0
01F0
0078
0038
E038
F038
7CF8
3FF0
1FC0
ENDCHAR
STARTCHAR 0161
ENCODING 353
SWIDTH 600 0
DWIDTH 15 0
BBX 11 19 2 0
BITMAP
71C0
3B80
1F00
0E00
0000
0000
3F80
7FE0
F0E0
E0E0
F000
7E00
3FC0
07E0
00E0
E0E0
F0E0
7FE0
3F80
ENDCHAR
STARTCHAR 0162
ENCODING 354
SWIDTH 600 0
DWIDTH 15 0
BBX 15 24 0 -6
BITMAP
FFFE
FFFE
FFFE
0380
0380
0380
0380
0380
0380
0380
0380
0380
0380
0380
0380
0380
0380
0380
0180
03C0
00E0
00E0
01C0
0200
ENDCHAR
STARTCHAR 0163
ENCODING 355
SWIDTH 600 0
DWIDTH 15 0
BBX 11 22 2 -6
BITMAP
1C00
1C00
1C00
FFE0
FFE0
1C00
1C00
1C00
1C00
1C00
1C00
1C00
1C00
1E20
1FE0
0FE0
0600
0F00
0380
0380
0700
0800
ENDCHAR
STARTCHAR 0164
ENCODING 356
SWIDTH 600 0
DWIDTH 15 0
BBX 15 23 0 0
BITMAP
1C70
0EE0
07C0
0380
0000
FFFE
FFFE
FFFE
0380
0380
0380
0380
0380
0380
0380
0380
0380
0380
0380
0380
0380
0380
0380
ENDCHAR
STARTCHAR 0165
ENCODING 357
SWIDTH 600 0
DWIDTH 15 0
BBX 12 21 2 0
BITMAP
0030
0030
0030
0030
0070
1C60
1C20
1C00
FFE0
FFE0
1C00
1C00
1C00
1C00
1C00
1C00
1C00
1C00
1E20
1FE0
0FE0
ENDCHAR
STARTCHAR 0166
ENCODING 358
SWIDTH 600 0
DWIDTH 15 0
BBX 15 18 0 0
BITMAP
FFFE
FFFE
FFFE
0380
0380
0380
1FF0
1FF0
1FF0
0380
0380
0380
0380
0380
0380
0380
0380
0380
ENDCHAR
STARTCHAR 0167
ENCODING 359
SWIDTH 600 0
DWIDTH 15 0
BBX 11 16 2 0
BITMAP
1C00
1C00
1C00
FFE0
FFE0
1C00
1C00
FF80
FF80
1C00
1C00
1C00
1C00
1E20
1FE0
0FE0
ENDCHAR
STARTCHAR 0168
ENCODING 360
SWIDTH 600 0
DWIDTH 15 0
BBX 11 23 2 0
BITMAP
0840
3FC0
3FC0
2100
0000
E0E0
E0E0
E0E0
E0E0
E0E0
E0E0
E0E0
E0E0
E0E0
E0E0
E0E0
E0E0
E0E0
E0E0
E0E0
FBE0
7FC0
3F80
ENDCHAR
STARTCHAR 0169
ENCODING 361
SWIDTH 600 0
DWIDTH 15 0
BBX 11 19 2 0
BITMAP
0840
3FC0
3FC0
2100
0000
0000
E0E0
E0E0
E0E0
E0E0
E0E0
E0E0
E0E0
E0E0
E0E0
E0E0
F3E0
7FE0
3EE0
ENDCHAR
STARTCHAR 016A
ENCODING 362
SWIDTH 600 0
DWIDTH 15 0
BBX 11 22 2 0
BITMAP
7FC0
7FC0
0000
0000
E0E0
E0E0
E0E0
E0E0
E0E0
E0E0
E0E0
E0E0
E0E0
E0E0
E0E0
E0E0
E0E0
E0E0
E0E0
FBE0
7FC0
3F80
ENDCHAR
STARTCHAR 016B
ENCODING 363
SWIDTH 600 0
DWIDTH 15 0
BBX 11 18 2 0
BITMAP
7FC0
7FC0
0000
0000
0000
E0E0
E0E0
E0E0
E0E0
E0E0
E0E0
E0E0
E0E0
E0E0
E0E0
F3E0
7FE0
3EE0
ENDCHAR
STARTCHAR 016C
ENCODING 364
SWIDTH 600 0
DWIDTH 15 0
BBX 11 23 2 0
BITMAP
31C0
31C0
3F80
0F00
0000
E0E0
E0E0
E0E0
E0E0
E0E0
E0E0
E0E0
E0E0
E0E0
E0E0
E0E0
E0E0
E0E0
E0E0
E0E0
FBE0
7FC0
3F80
ENDCHAR
STARTCHAR 016D
ENCODING 365
SWIDTH 600 0
DWIDTH 15 0
BBX 11 19 2 0
BITMAP
31C0
31C0
3F80
0F00
0000
0000
E0E0
E0E0
E0E0
E0E0
E0E0
E0E0
E0E0
E0E0
E0E0
E0E0
F3E0
7FE0
3EE0
ENDCHAR
STARTCHAR 016E
ENCODING 366
SWIDTH 600 0
DWIDTH 15 0
BBX 11 24 2 0
BITMAP
0400
1F00
1100
1B00
0E00
0000
E0E0
E0E0
E0E0
E0E0
E0E0
E0E0
E0E0
E0E0
E0E0
E0E0
E0E0
E0E0
E0E0
E0E0
E0E0
FBE0
7FC0
3F80
ENDCHAR
STARTCHAR 016F
ENCODING 367
SWIDTH 600 0
DWIDTH 15 0
BBX 11 20 2 0
BITMAP
0400
1F00
1100
1B00
0E00
0000
0000
E0E0
E0E0
E0E0
E0E0
E0E0
E0E0
E0E0
E0E0
E0E0
E0E0
F3E0
7FE0
3EE0
ENDCHAR
STARTCHAR 0170
ENCODING 368
SWIDTH 600 0
DWIDTH 15 0
BBX 13 23 2 0
BITMAP
0778
0EE0
0CC0
1B80
0000
E0E0
E0E0
E0E0
E0E0
E0E0
E0E0
E0E0
E0E0
E0E0
E0E0
E0E0
E0E0
E0E0
E0E0
E0E0
FBE0
7FC0
3F80
ENDCHAR
STARTCHAR 0171
ENCODING 369
SWIDTH 600 0
DWIDTH 15 0
BBX 13 19 2 0
BITMAP
0778
0EE0
0CC0
1B80
0000
0000
E0E0
E0E0
E0E0
E0E0
E0E0
E0E0
E0E0
E0E0
E0E0
E0E0
F3E0
7FE0
3EE0
ENDCHAR
STARTCHAR 0172
ENCODING 370
SWIDTH 600 0
DWIDTH 15 0
BBX 11 22 2 -4
BITMAP
E0E0
E0E0
E0E0
E0E0
E0E0
E0E0
E0E0
E0E0
E0E0
E0E0
E0E0
E0E0
E0E0
E0E0
E0E0
FBE0
7FC0
3F80
0600
0600
0780
07C0
ENDCHAR
STARTCHAR 0173
ENCODING 371
SWIDTH 600 0
DWIDTH 15 0
BBX 12 18 2 -5
BITMAP
E0E0
E0E0
E0E0
E0E0
E0E0
E0E0
E0E0
E0E0
E0E0
E0E0
F1E0
7FE0
3EE0
00C0
0180
0180
01E0
01F0
ENDCHAR
STARTCHAR 0174
ENCODING 372
SWIDTH 600 0
DWIDTH 15 0
BBX 15 23 0 0
BITMAP
0300
0780
0FC0
1C60
0000
E38E
738C
739C
739C
739C
73DC
77DC
76DC
36DC
36D8
3ED8
3EF8
3EF8
3C78
3C78
3C78
1C70
1C70
ENDCHAR
STARTCHAR 0175
ENCODING 373
SWIDTH 600 0
DWIDTH 15 0
BBX 14 19 0 0
BITMAP
0300
0780
0FC0
1C60
0000
0000
E39C
739C
739C
739C
779C
76D8
36D8
36D8
36F8
3CF8
3C70
1C70
1C70
ENDCHAR
STARTCHAR 0176
ENCODING 374
SWIDTH 600 0
DWIDTH 15 0
BBX 15 23 0 0
BITMAP
0180
03C0
07E0
0E30
0000
F01E
781C
383C
3838
1C78
1C70
1E70
0EE0
0FE0
07C0
07C0
0380
0380
0380
0380
0380
0380
0380
ENDCHAR
STARTCHAR 0177
ENCODING 375
SWIDTH 600 0
DWIDTH 15 0
BBX 14 24 1 -5
BITMAP
0300
0780
0FC0
1C60
0000
0000
E03C
F038
7078
7870
38F0
38E0
1CE0
1DC0
0FC0
0FC0
0F80
0780
0700
0700
0E00
1E00
7C00
7800
ENDCHAR
STARTCHAR 0178
ENCODING 376
SWIDTH 600 0
DWIDTH 15 0
BBX 15 22 0 0
BITMAP
0C70
1C70
0C20
0000
F01E
781C
383C
3838
1C78
1C70
1E70
0EE0
0FE0
07C0
07C0
0380
0380
0380
0380
0380
0380
0380
ENDCHAR
STARTCHAR 0179
ENCODING 377
SWIDTH 600 0
DWIDTH 15 0
BBX 13 22 1 0
BITMAP
00F0
01C0
0380
0000
FFF8
FFF8
FFF0
00F0
00E0
01C0
03C0
0380
0780
0F00
0E00
1E00
3C00
3800
7800
FFF8
FFF8
FFF8
ENDCHAR
STARTCHAR 017A
ENCODING 378
SWIDTH 600 0
DWIDTH 15 0
BBX 12 18 2 0
BITMAP
01E0
0380
0700
0000
0000
FFE0
FFE0
01E0
03C0
0780
0F00
1E00
1C00
3C00
7800
FFF0
FFF0
FFF0
ENDCHAR
STARTCHAR 017B
ENCODING 379
SWIDTH 600 0
DWIDTH 15 0
BBX 13 22 1 0
BITMAP
0700
0700
0700
0000
FFF8
FFF8
FFF0
00F0
00E0
01C0
03C0
0380
0780
0F00
0E00
1E00
3C00
3800
7800
FFF8
FFF8
FFF8
ENDCHAR
STARTCHAR 017C
ENCODING 380
SWIDTH 600 0
DWIDTH 15 0
BBX 12 18 2 0
BITMAP
0E00
0E00
0E00
0000
0000
FFE0
FFE0
01E0
03C0
0780
0F00
1E00
1C00
3C00
7800
FFF0
FFF0
FFF0
ENDCHAR
STARTCHAR 017D
ENCODING 381
SWIDTH 600 0
DWIDTH 15 0
BBX 13 23 1 0
BITMAP
38E0
1DC0
0F80
0700
0000
FFF8
FFF8
FFF0
00F0
00E0
01C0
03C0
0380
0780
0F00
0E00
1E00
3C00
3800
7800
FFF8
FFF8
FFF8
ENDCHAR
STARTCHAR 017E
ENCODING 382
SWIDTH 600 0
DWIDTH 15 0
BBX 12 19 2 0
BITMAP
71C0
3B80
1F00
0E00
0000
0000
FFE0
FFE0
01E0
03C0
0780
0F00
1E00
1C00
3C00
7800
FFF0
FFF0
FFF0
ENDCHAR
STARTCHAR 017F
ENCODING 383
SWIDTH 600 0
DWIDTH 15 0
BBX 8 19 5 0
BITMAP
1F
7F
78
F0
E0
E0
E0
E0
E0
E0
E0
E0
E0
E0
E0
E0
E0
E0
E0
ENDCHAR
STARTCHAR 0192
ENCODING 402
SWIDTH 600 0
DWIDTH 15 0
BBX 12 24 2 -5
BITMAP
03F0
07F0
0F10
0E00
0E00
0E00
3F80
3F80
0E00
0E00
0E00
0E00
0E00
0E00
0E00
0E00
0E00
0E00
0E00
0E00
0E00
9E00
FC00
F800
ENDCHAR
STARTCHAR 01A0
ENCODING 416
SWIDTH 600 0
DWIDTH 15 0
BBX 14 18 1 0
BITMAP
0F8C
3FEC
3FF8
7878
7078
F038
E038
E038
E038
E038
E038
E038
F038
7078
7070
7DF0
3FE0
0FC0
ENDCHAR
STARTCHAR 01A1
ENCODING 417
SWIDTH 600 0
DWIDTH 15 0
BBX 14 14 1 0
BITMAP
001C
1FD8
3FF8
78F0
7070
F070
E078
E078
E078
F070
7070
7DF0
3FE0
1FC0
ENDCHAR
STARTCHAR 01AF
ENCODING 431
SWIDTH 600 0
DWIDTH 15 0
BBX 16 18 2 0
BITMAP
E0E7
E0E7
E0EE
E0FC
E0E0
E0E0
E0E0
E0E0
E0E0
E0E0
E0E0
E0E0
E0E0
E0E0
E0E0
FBE0
7FC0
3F80
ENDCHAR
STARTCHAR 01B0
ENCODING 432
SWIDTH 600 0
DWIDTH 15 0
BBX 15 14 2 0
BITMAP
000E
E0EC
E0FC
E0F8
E0E0
E0E0
E0E0
E0E0
E0E0
E0E0
E0E0
F3E0
7FE0
7EE0
ENDCHAR
STARTCHAR 01F0
ENCODING 496
SWIDTH 600 0
DWIDTH 15 0
BBX 10 24 3 -5
BITMAP
71C0
3B80
1F00
0E00
0000
0000
7E00
7E00
0E00
0E00
0E00
0E00
0E00
0E00
0E00
0E00
0E00
0E00
0E00
0E00
0E00
1E00
FC00
F800
ENDCHAR
STARTCHAR 01FA
ENCODING 506
SWIDTH 600 0
DWIDTH 15 0
BBX 15 26 0 0
BITMAP
0070
00E0
0180
0180
02C0
0240
03C0
0100
0380
03C0
03C0
07C0
07E0
06E0
0EE0
0E60
0E70
1C70
1C70
1FF8
3FF8
3FF8
381C
781C
701C
F01E
ENDCHAR
STARTCHAR 01FB
ENCODING 507
SWIDTH 600 0
DWIDTH 15 0
BBX 11 22 2 0
BITMAP
0380
0700
0C00
0C00
1600
1200
1E00
0800
0000
3F80
7FC0
E1E0
E0E0
00E0
3FE0
7FE0
E0E0
E0E0
E0E0
F3E0
FFE0
7EE0
ENDCHAR
STARTCHAR 01FC
ENCODING 508
SWIDTH 600 0
DWIDTH 15 0
BBX 13 22 1 0
BITMAP
0078
00E0
01C0
0000
03F8
07F8
07F8
0FC0
0FC0
0DC0
1DC0
1DC0
1DF8
39F8
39C0
3FC0
7FC0
7FC0
71C0
F1F8
E1F8
E1F8
ENDCHAR
STARTCHAR 01FD
ENCODING 509
SWIDTH 600 0
DWIDTH 15 0
BBX 14 18 1 0
BITMAP
00F0
01C0
0380
0000
0000
7FF0
FFF8
E738
071C
071C
3FFC
7FFC
F700
E700
E700
E788
FFF8
7DF8
ENDCHAR
STARTCHAR 01FE
ENCODING 510
SWIDTH 600 0
DWIDTH 15 0
BBX 13 24 1 -1
BITMAP
01E0
0380
0700
0000
0018
0FB0
3FF0
3FE0
70F0
70F0
E1F8
E1B8
E338
E338
E638
E638
EC38
FC38
F878
7070
7DF0
7FE0
7F80
C000
ENDCHAR
STARTCHAR 01FF
ENCODING 511
SWIDTH 600 0
DWIDTH 15 0
BBX 13 20 1 -2
BITMAP
01E0
0380
0700
0030
0060
1FC0
3FE0
78F0
71F0
F178
E378
E238
F678
7470
7C70
7DF0
3FE0
1FC0
3000
3000
ENDCHAR
STARTCHAR 0218
ENCODING 536
SWIDTH 600 0
DWIDTH 15 0
BBX 13 24 1 -6
BITMAP
0FC0
3FE0
7FF0
7078
7038
7000
7800
3E00
3FC0
0FE0
01F0
0078
0038
E038
F038
7CF8
3FF0
1FC0
0000
0380
0380
0300
0300
0600
ENDCHAR
STARTCHAR 0219
ENCODING 537
SWIDTH 600 0
DWIDTH 15 0
BBX 11 19 2 -6
BITMAP
3F80
7FE0
F0E0
E0E0
F000
7E00
3FC0
07E0
00E0
E0E0
F0E0
7FE0
3F80
0000
0E00
0E00
0C00
0C00
1800
ENDCHAR
STARTCHAR 021A
ENCODING 538
SWIDTH 600 0
DWIDTH 15 0
BBX 15 24 0 -6
BITMAP
FFFE
FFFE
FFFE
0380
0380
0380
0380
0380
0380
0380
0380
0380
0380
0380
0380
0380
0380
0380
0000
0380
0380
0300
0300
0600
ENDCHAR
STARTCHAR 021B
ENCODING 539
SWIDTH 600 0
DWIDTH 15 0
BBX 11 22 2 -6
BITMAP
1C00
1C00
1C00
FFE0
FFE0
1C00
1C00
1C00
1C00
1C00
1C00
1C00
1C00
1E20
1FE0
0FE0
0000
0700
0700
0600
0600
0C00
ENDCHAR
STARTCHAR 0237
ENCODING 567
SWIDTH 600 0
DWIDTH 15 0
BBX 7 18 3 -5
BITMAP
7E
7E
0E
0E
0E
0E
0E
0E
0E
0E
0E
0E
0E
0E
0E
1E
FC
F8
ENDCHAR
STARTCHAR 0259
ENCODING 601
SWIDTH 600 0
DWIDTH 15 0
BBX 12 13 2 0
BITMAP
7F80
FFC0
61E0
00E0
00F0
FFF0
FFF0
FFF0
E0F0
E0E0
79E0
7FC0
1F80
ENDCHAR
STARTCHAR 02BC
ENCODING 700
SWIDTH 600 0
DWIDTH 15 0
BBX 3 7 6 12
BITMAP
60
60
60
60
E0
C0
40
ENDCHAR
STARTCHAR 02C6
ENCODING 710
SWIDTH 600 0
DWIDTH 15 0
BBX 8 4 2 15
BITMAP
18
3C
7E
E3
ENDCHAR
STARTCHAR 02C7
ENCODING 711
SWIDTH 600 0
DWIDTH 15 0
BBX 9 4 3 15
BITMAP
E380
7700
3E00
1C00
ENDCHAR
STARTCHAR 02C9
ENCODING 713
SWIDTH 600 0
DWIDTH 15 0
BBX 9 2 3 16
BITMAP
FF80
FF80
ENDCHAR
STARTCHAR 02D8
ENCODING 728
SWIDTH 600 0
DWIDTH 15 0
BBX 8 4 4 14
BITMAP
C7
C7
FE
3C
ENDCHAR
STARTCHAR 02D9
ENCODING 729
SWIDTH 600 0
DWIDTH 15 0
BBX 3 3 6 15
BITMAP
E0
E0
E0
ENDCHAR
STARTCHAR 02DA
ENCODING 730
SWIDTH 600 0
DWIDTH 15 0
BBX 5 5 5 13
BITMAP
20
F8
88
D8
70
ENDCHAR
STARTCHAR 02DB
ENCODING 731
SWIDTH 600 0
DWIDTH 15 0
BBX 5 6 5 -5
BITMAP
20
70
C0
C0
F0
F8
ENDCHAR
STARTCHAR 02DC
ENCODING 732
SWIDTH 600 0
DWIDTH 15 0
BBX 8 4 2 15
BITMAP
21
FF
FF
84
ENDCHAR
STARTCHAR 02DD
ENCODING 733
SWIDTH 600 0
DWIDTH 15 0
BBX 10 4 3 15
BITMAP
3BC0
7700
6600
DC00
ENDCHAR
STARTCHAR 02F3
ENCODING 755
SWIDTH 600 0
DWIDTH 15 0
BBX 4 4 5 -5
BITMAP
70
D0
70
20
ENDCHAR
STARTCHAR 0300
ENCODING 768
SWIDTH 600 0
DWIDTH 15 0
BBX 5 4 -11 15
BITMAP
E0
70
30
18
ENDCHAR
STARTCHAR 0301
ENCODING 769
SWIDTH 600 0
DWIDTH 15 0
BBX 4 4 -8 15
BITMAP
70
60
60
C0
ENDCHAR
STARTCHAR 0303
ENCODING 771
SWIDTH 600 0
DWIDTH 15 0
BBX 8 4 -11 15
BITMAP
21
FF
FF
84
ENDCHAR
STARTCHAR 0309
ENCODING 777
SWIDTH 600 0
DWIDTH 15 0
BBX 5 5 -9 15
BITMAP
F0
38
38
F0
E0
ENDCHAR
STARTCHAR 030F
ENCODING 783
SWIDTH 600 0
DWIDTH 15 0
BBX 11 4 -13 15
BITMAP
F700
3B80
1DC0
0EE0
ENDCHAR
STARTCHAR 0323
ENCODING 803
SWIDTH 600 0
DWIDTH 15 0
BBX 4 3 -9 -4
BITMAP
60
F0
E0
ENDCHAR
STARTCHAR 0384
ENCODING 900
SWIDTH 600 0
DWIDTH 15 0
BBX 4 5 7 15
BITMAP
70
60
E0
C0
C0
ENDCHAR
STARTCHAR 0385
ENCODING 901
SWIDTH 600 0
DWIDTH 15 0
BBX 10 7 3 15
BITMAP
0700
0600
0600
0C00
61C0
F1C0
61C0
ENDCHAR
STARTCHAR 0386
ENCODING 902
SWIDTH 600 0
DWIDTH 15 0
BBX 15 20 0 0
BITMAP
3800
3000
7380
63C0
63C0
07C0
07E0
06E0
0EE0
0E60
0E70
1C70
1C70
1FF8
3FF8
3FF8
381C
781C
701C
F01E
ENDCHAR
STARTCHAR 0387
ENCODING 903
SWIDTH 600 0
DWIDTH 15 0
BBX 4 3 7 7
BITMAP
E0
F0
E0
ENDCHAR
STARTCHAR 0388
ENCODING 904
SWIDTH 600 0
DWIDTH 15 0
BBX 16 20 -1 0
BITMAP
7000
6000
EFFF
CFFF
CFFF
0E00
0E00
0E00
0E00
0E00
0FFC
0FFC
0E00
0E00
0E00
0E00
0E00
0FFF
0FFF
0FFF
ENDCHAR
STARTCHAR 0389
ENCODING 905
SWIDTH 600 0
DWIDTH 15 0
BBX 15 20 -1 0
BITMAP
7000
6000
EE0E
CE0E
CE0E
0E0E
0E0E
0E0E
0E0E
0E0E
0FFE
0FFE
0E0E
0E0E
0E0E
0E0E
0E0E
0E0E
0E0E
0E0E
ENDCHAR
STARTCHAR 038A
ENCODING 906
SWIDTH 600 0
DWIDTH 15 0
BBX 14 20 -1 0
BITMAP
7000
6000
FFFC
DFFC
DFFC
01C0
01C0
01C0
01C0
01C0
01C0
01C0
01C0
01C0
01C0
01C0
01C0
1FFC
1FFC
1FFC
ENDCHAR
STARTCHAR 038C
ENCODING 908
SWIDTH 600 0
DWIDTH 15 0
BBX 15 20 -1 0
BITMAP
7000
6000
E3E0
CFF8
CFF8
1C3C
1C1C
381E
380E
380E
380E
380E
380E
380E
381E
3C1C
1C1C
1F7C
0FF8
07E0
ENDCHAR
STARTCHAR 038E
ENCODING 910
SWIDTH 600 0
DWIDTH 15 0
BBX 18 20 -2 0
BITMAP
700000
600000
FE03C0
CF0380
C70780
070700
038F00
038E00
03CE00
01DC00
01FC00
00F800
00F800
007000
007000
007000
007000
007000
007000
007000
ENDCHAR
STARTCHAR 038F
ENCODING 911
SWIDTH 600 0
DWIDTH 15 0
BBX 15 20 -1 0
BITMAP
7000
6000
E3E0
CFF8
CFFC
1E1C
1C1E
3C1E
3C1E
3C0E
3C0E
3C0E
3C1E
1C1C
1C1C
0C18
0E38
3F7E
3F7E
3F7E
ENDCHAR
STARTCHAR 0390
ENCODING 912
SWIDTH 600 0
DWIDTH 15 0
BBX 11 21 2 0
BITMAP
0380
0300
0300
0600
30E0
78E0
30E0
0000
FE00
FE00
0E00
0E00
0E00
0E00
0E00
0E00
0E00
0E00
0F20
0FE0
07E0
ENDCHAR
STARTCHAR 0391
ENCODING 913
SWIDTH 600 0
DWIDTH 15 0
BBX 15 18 0 0
BITMAP
0380
03C0
03C0
07C0
07E0
06E0
0EE0
0E60
0E70
1C70
1C70
1FF8
3FF8
3FF8
381C
781C
701C
F01E
ENDCHAR
STARTCHAR 0392
ENCODING 914
SWIDTH 600 0
DWIDTH 15 0
BBX 12 18 2 0
BITMAP
FF00
FFC0
FFE0
E0F0
E070
E070
E0F0
E1E0
FFC0
FFE0
E0F0
E070
E070
E070
E0F0
FFF0
FFE0
FF80
ENDCHAR
STARTCHAR 0393
ENCODING 915
SWIDTH 600 0
DWIDTH 15 0
BBX 11 18 2 0
BITMAP
FFE0
FFE0
FFE0
E000
E000
E000
E000
E000
E000
E000
E000
E000
E000
E000
E000
E000
E000
E000
ENDCHAR
STARTCHAR 0394
ENCODING 916
SWIDTH 600 0
DWIDTH 15 0
BBX 15 18 0 0
BITMAP
03C0
03C0
03C0
07E0
07E0
07E0
0E70
0E70
0E70
1C38
1C38
1C38
3C3C
381C
381C
7FFE
7FFE
FFFE
ENDCHAR
STARTCHAR 0395
ENCODING 917
SWIDTH 600 0
DWIDTH 15 0
BBX 12 18 2 0
BITMAP
FFF0
FFF0
FFF0
E000
E000
E000
E000
E000
FFC0
FFC0
E000
E000
E000
E000
E000
FFF0
FFF0
FFF0
ENDCHAR
STARTCHAR 0396
ENCODING 918
SWIDTH 600 0
DWIDTH 15 0
BBX 13 18 1 0
BITMAP
FFF8
FFF8
FFF0
00F0
00E0
01C0
03C0
0380
0780
0F00
0E00
1E00
3C00
3800
7800
FFF8
FFF8
FFF8
ENDCHAR
STARTCHAR 0397
ENCODING 919
SWIDTH 600 0
DWIDTH 15 0
BBX 11 18 2 0
BITMAP
E0E0
E0E0
E0E0
E0E0
E0E0
E0E0
E0E0
E0E0
FFE0
FFE0
E0E0
E0E0
E0E0
E0E0
E0E0
E0E0
E0E0
E0E0
ENDCHAR
STARTCHAR 0398
ENCODING 920
SWIDTH 600 0
DWIDTH 15 0
BBX 13 18 1 0
BITMAP
0F80
3FE0
3FF0
7870
7078
F038
E038
E038
EFB8
EFB8
E038
E038
F038
7078
7070
7DF0
3FE0
0FC0
ENDCHAR
STARTCHAR 0399
ENCODING 921
SWIDTH 600 0
DWIDTH 15 0
BBX 11 18 2 0
BITMAP
FFE0
FFE0
FFE0
0E00
0E00
0E00
0E00
0E00
0E00
0E00
0E00
0E00
0E00
0E00
0E00
FFE0
FFE0
FFE0
ENDCHAR
STARTCHAR 039A
ENCODING 922
SWIDTH 600 0
DWIDTH 15 0
BBX 13 18 2 0
BITMAP
E078
E0F0
E1E0
E1C0
E3C0
E780
EF00
EE00
FE00
FF00
FF00
F780
E3C0
E1C0
E1E0
E0F0
E0F0
E078
ENDCHAR
STARTCHAR 039B
ENCODING 923
SWIDTH 600 0
DWIDTH 15 0
BBX 15 18 0 0
BITMAP
0380
0380
07C0
07C0
07C0
0EE0
0EE0
0EE0
1C70
1C70
1C70
3C78
3838
3838
783C
701C
701C
F01E
ENDCHAR
STARTCHAR 039C
ENCODING 924
SWIDTH 600 0
DWIDTH 15 0
BBX 12 18 2 0
BITMAP
F0F0
F1F0
F1F0
F1F0
FBF0
DB70
DB70
DF70
CE70
EE70
EE70
EE70
E070
E070
E070
E070
E070
E070
ENDCHAR
STARTCHAR 039D
ENCODING 925
SWIDTH 600 0
DWIDTH 15 0
BBX 11 18 2 0
BITMAP
E0E0
E0E0
F0E0
F0E0
F8E0
F8E0
FCE0
FCE0
EEE0
EEE0
E6E0
E7E0
E3E0
E3E0
E1E0
E1E0
E1E0
E0E0
ENDCHAR
STARTCHAR 039E
ENCODING 926
SWIDTH 600 0
DWIDTH 15 0
BBX 11 18 2 0
BITMAP
FFE0
FFE0
FFE0
0000
0000
0000
0000
0000
7FC0
7FC0
0000
0000
0000
0000
0000
FFE0
FFE0
FFE0
ENDCHAR
STARTCHAR 039F
ENCODING 927
SWIDTH 600 0
DWIDTH 15 0
BBX 13 18 1 0
BITMAP
0F80
3FE0
3FE0
70F0
7070
E078
E038
E038
E038
E038
E038
E038
E078
F070
7070
7DF0
3FE0
1F80
ENDCHAR
STARTCHAR 03A0
ENCODING 928
SWIDTH 600 0
DWIDTH 15 0
BBX 11 18 2 0
BITMAP
FFE0
FFE0
FFE0
E0E0
E0E0
E0E0
E0E0
E0E0
E0E0
E0E0
E0E0
E0E0
E0E0
E0E0
E0E0
E0E0
E0E0
E0E0
ENDCHAR
STARTCHAR 03A1
ENCODING 929
SWIDTH 600 0
DWIDTH 15 0
BBX 12 18 2 0
BITMAP
FF00
FFC0
FFE0
E0F0
E070
E070
E070
E070
E1F0
FFE0
FF80
E000
E000
E000
E000
E000
E000
E000
ENDCHAR
STARTCHAR 03A3
ENCODING 931
SWIDTH 600 0
DWIDTH 15 0
BBX 13 18 1 0
BITMAP
FFF8
FFF8
7FF8
7800
3C00
1E00
0E00
0700
0780
0380
0700
0F00
1E00
3C00
3800
7FF8
FFF8
FFF8
ENDCHAR
STARTCHAR 03A4
ENCODING 932
SWIDTH 600 0
DWIDTH 15 0
BBX 15 18 0 0
BITMAP
FFFE
FFFE
FFFE
0380
0380
0380
0380
0380
0380
0380
0380
0380
0380
0380
0380
0380
0380
0380
ENDCHAR
STARTCHAR 03A5
ENCODING 933
SWIDTH 600 0
DWIDTH 15 0
BBX 15 18 0 0
BITMAP
F01E
781C
383C
3838
1C78
1C70
1E70
0EE0
0FE0
07C0
07C0
0380
0380
0380
0380
0380
0380
0380
ENDCHAR
STARTCHAR 03A6
ENCODING 934
SWIDTH 600 0
DWIDTH 15 0
BBX 14 18 1 0
BITMAP
0780
0780
0780
1FE0
3FF0
7FF8
F7BC
E79C
E79C
E79C
E79C
E7BC
77B8
7FF8
3FF0
0FC0
0780
0780
ENDCHAR
STARTCHAR 03A7
ENCODING 935
SWIDTH 600 0
DWIDTH 15 0
BBX 14 18 1 0
BITMAP
F03C
F078
7870
78F0
3CE0
1DE0
1FC0
0FC0
0F80
0F80
0F80
1FC0
1DE0
3CE0
38F0
7870
F078
F03C
ENDCHAR
STARTCHAR 03A8
ENCODING 936
SWIDTH 600 0
DWIDTH 15 0
BBX 14 18 1 0
BITMAP
E79C
E79C
E79C
E79C
E79C
E79C
E79C
E79C
E79C
E7BC
F7B8
7FF8
3FF0
0FC0
0780
0780
0780
0780
ENDCHAR
STARTCHAR 03A9
ENCODING 937
SWIDTH 600 0
DWIDTH 15 0
BBX 13 18 1 0
BITMAP
0F80
3FE0
3FF0
7870
7078
F078
F078
F038
F038
F038
F078
7070
7070
3060
38E0
FDF8
FDF8
FDF8
ENDCHAR
STARTCHAR 03AA
ENCODING 938
SWIDTH 600 0
DWIDTH 15 0
BBX 11 22 2 0
BITMAP
6380
E380
6100
0000
FFE0
FFE0
FFE0
0E00
0E00
0E00
0E00
0E00
0E00
0E00
0E00
0E00
0E00
0E00
0E00
FFE0
FFE0
FFE0
ENDCHAR
STARTCHAR 03AB
ENCODING 939
SWIDTH 600 0
DWIDTH 15 0
BBX 15 22 0 0
BITMAP
0C70
1C70
0C20
0000
F01E
781C
383C
3838
1C78
1C70
1E70
0EE0
0FE0
07C0
07C0
0380
0380
0380
0380
0380
0380
0380
ENDCHAR
STARTCHAR 03AC
ENCODING 940
SWIDTH 600 0
DWIDTH 15 0
BBX 13 20 1 0
BITMAP
01C0
0180
0380
0300
0300
0000
0000
1F70
3FF0
78F0
70F0
70F0
F0F0
F0F0
F0F0
F0F0
70F0
79F0
3FF8
1F78
ENDCHAR
STARTCHAR 03AD
ENCODING 941
SWIDTH 600 0
DWIDTH 15 0
BBX 12 20 2 0
BITMAP
0380
0300
0700
0600
0600
0000
0000
3FC0
FFE0
F0F0
E070
E000
7F80
3F80
F000
E000
E070
F0F0
7FE0
3FC0
ENDCHAR
STARTCHAR 03AE
ENCODING 942
SWIDTH 600 0
DWIDTH 15 0
BBX 11 25 2 -5
BITMAP
0380
0300
0700
0600
0600
0000
0000
EFC0
FFE0
F1E0
E0E0
E0E0
E0E0
E0E0
E0E0
E0E0
E0E0
E0E0
E0E0
E0E0
00E0
00E0
00E0
00E0
00E0
ENDCHAR
STARTCHAR 03AF
ENCODING 943
SWIDTH 600 0
DWIDTH 15 0
BBX 11 20 2 0
BITMAP
0380
0300
0700
0600
0600
0000
0000
FE00
FE00
0E00
0E00
0E00
0E00
0E00
0E00
0E00
0E00
0F20
0FE0
07E0
ENDCHAR
STARTCHAR 03B0
ENCODING 944
SWIDTH 600 0
DWIDTH 15 0
BBX 11 21 2 0
BITMAP
0700
0600
0600
0C00
61C0
F1C0
61C0
0000
E1C0
E0E0
E0E0
E0E0
E0E0
E0E0
E0E0
E0E0
E0E0
E1E0
F3E0
7FC0
3F80
ENDCHAR
STARTCHAR 03B1
ENCODING 945
SWIDTH 600 0
DWIDTH 15 0
BBX 13 13 1 0
BITMAP
1F70
3FF0
78F0
70F0
70F0
F0F0
F0F0
F0F0
F0F0
70F0
79F0
3FF8
1F78
ENDCHAR
STARTCHAR 03B2
ENCODING 946
SWIDTH 600 0
DWIDTH 15 0
BBX 12 23 2 -5
BITMAP
1F00
3FC0
7FE0
F0E0
E0E0
E0E0
E0E0
E3C0
E780
E7E0
E0E0
E070
E070
E070
E0F0
F1F0
FFE0
EFC0
E000
E000
E000
E000
E000
ENDCHAR
STARTCHAR 03B3
ENCODING 947
SWIDTH 600 0
DWIDTH 15 0
BBX 14 18 1 -5
BITMAP
E03C
F038
7070
7070
3870
38E0
38E0
1CC0
1DC0
0FC0
0F80
0780
0700
0700
0700
0700
0700
0700
ENDCHAR
STARTCHAR 03B4
ENCODING 948
SWIDTH 600 0
DWIDTH 15 0
BBX 13 19 1 0
BITMAP
0FC0
1FE0
3C40
3800
3C00
3E00
1F80
1FE0
39F0
7070
7078
E038
E038
E038
F038
7070
7CF0
3FE0
1FC0
ENDCHAR
STARTCHAR 03B5
ENCODING 949
SWIDTH 600 0
DWIDTH 15 0
BBX 12 13 2 0
BITMAP
3FC0
FFE0
F0F0
E070
E000
7F80
3F80
F000
E000
E070
F0F0
7FE0
3FC0
ENDCHAR
STARTCHAR 03B6
ENCODING 950
SWIDTH 600 0
DWIDTH 15 0
BBX 12 23 1 -5
BITMAP
FFF0
FFF0
FFF0
01E0
03C0
0780
0F00
1E00
3C00
3800
7000
7000
7000
F000
7000
7E00
3FC0
0FE0
00F0
00F0
00E0
01C0
0080
ENDCHAR
STARTCHAR 03B7
ENCODING 951
SWIDTH 600 0
DWIDTH 15 0
BBX 11 18 2 -5
BITMAP
EFC0
FFE0
F1E0
E0E0
E0E0
E0E0
E0E0
E0E0
E0E0
E0E0
E0E0
E0E0
E0E0
00E0
00E0
00E0
00E0
00E0
ENDCHAR
STARTCHAR 03B8
ENCODING 952
SWIDTH 600 0
DWIDTH 15 0
BBX 11 18 2 0
BITMAP
1F00
3FC0
7FC0
70E0
E0E0
E0E0
E0E0
E0E0
FFE0
FFE0
E0E0
E0E0
E0E0
E0E0
70E0
79C0
3FC0
1F80
ENDCHAR
STARTCHAR 03B9
ENCODING 953
SWIDTH 600 0
DWIDTH 15 0
BBX 11 13 2 0
BITMAP
FE00
FE00
0E00
0E00
0E00
0E00
0E00
0E00
0E00
0E00
0F20
0FE0
07E0
ENDCHAR
STARTCHAR 03BA
ENCODING 954
SWIDTH 600 0
DWIDTH 15 0
BBX 13 13 2 0
BITMAP
E0F0
E1E0
E3C0
E780
EF00
FF00
FF00
FF80
F3C0
E3C0
E1E0
E0F0
E0F8
ENDCHAR
STARTCHAR 03BB
ENCODING 955
SWIDTH 600 0
DWIDTH 15 0
BBX 14 19 0 0
BITMAP
7000
7C00
7E00
0E00
0F00
0700
0780
0780
0F80
0FC0
0FC0
1DC0
1DE0
3CE0
38F0
3870
7878
703C
F01C
ENDCHAR
STARTCHAR 03BC
ENCODING 956
SWIDTH 600 0
DWIDTH 15 0
BBX 12 18 2 -5
BITMAP
E0F0
E0F0
E0F0
E0F0
E0F0
E0F0
E0F0
E0F0
E0F0
F0F0
F9F0
FFF0
FF70
E000
E000
E000
E000
E000
ENDCHAR
STARTCHAR 03BD
ENCODING 957
SWIDTH 600 0
DWIDTH 15 0
BBX 13 13 1 0
BITMAP
E038
7070
7070
7070
38E0
38E0
18C0
1DC0
1DC0
0D80
0F80
0F80
0700
ENDCHAR
STARTCHAR 03BE
ENCODING 958
SWIDTH 600 0
DWIDTH 15 0
BBX 12 23 2 -5
BITMAP
0FE0
3FE0
3FE0
7800
7000
7800
3E00
1FC0
1FC0
7C00
7000
E000
E000
F000
F000
7E00
3FC0
0FF0
00F0
0070
00E0
00E0
0040
ENDCHAR
STARTCHAR 03BF
ENCODING 959
SWIDTH 600 0
DWIDTH 15 0
BBX 13 13 1 0
BITMAP
1FC0
3FE0
78F0
7070
F070
E078
E038
F078
7070
7070
7DF0
3FE0
1FC0
ENDCHAR
STARTCHAR 03C0
ENCODING 960
SWIDTH 600 0
DWIDTH 15 0
BBX 14 13 1 0
BITMAP
FFF8
FFF8
38F0
38F0
38F0
38F0
38F0
38F0
38F0
38F0
38F4
387C
387C
ENDCHAR
STARTCHAR 03C1
ENCODING 961
SWIDTH 600 0
DWIDTH 15 0
BBX 12 18 2 -5
BITMAP
3F80
7FC0
71E0
E0E0
E0E0
E0F0
E0F0
E0F0
E0E0
E0E0
F1E0
FFC0
EF80
E000
E000
E000
E000
E000
ENDCHAR
STARTCHAR 03C2
ENCODING 962
SWIDTH 600 0
DWIDTH 15 0
BBX 12 18 1 -5
BITMAP
1FC0
3FE0
78F0
7070
F070
E000
E000
E000
F000
7000
7E00
3FC0
0FE0
00F0
0070
00E0
01E0
0080
ENDCHAR
STARTCHAR 03C3
ENCODING 963
SWIDTH 600 0
DWIDTH 15 0
BBX 13 13 1 0
BITMAP
1FF8
3FF8
7DC0
70E0
E070
E070
E070
E070
E070
70F0
79E0
3FE0
1F80
ENDCHAR
STARTCHAR 03C4
ENCODING 964
SWIDTH 600 0
DWIDTH 15 0
BBX 12 13 1 0
BITMAP
FFF0
FFF0
0F00
0F00
0F00
0F00
0F00
0F00
0F00
0F00
0720
07F0
03F0
ENDCHAR
STARTCHAR 03C5
ENCODING 965
SWIDTH 600 0
DWIDTH 15 0
BBX 11 13 2 0
BITMAP
E1C0
E0E0
E0E0
E0E0
E0E0
E0E0
E0E0
E0E0
E0E0
E1E0
F3E0
7FC0
3F80
ENDCHAR
STARTCHAR 03C6
ENCODING 966
SWIDTH 600 0
DWIDTH 15 0
BBX 14 19 1 -6
BITMAP
33E0
7BF0
77B8
F738
E73C
E71C
E71C
E71C
F73C
7738
7FF8
3FF0
1FE0
0700
0700
0700
0700
0700
0700
ENDCHAR
STARTCHAR 03C7
ENCODING 967
SWIDTH 600 0
DWIDTH 15 0
BBX 13 13 1 0
BITMAP
F078
7870
3CE0
1DE0
0FC0
0F80
0780
0FC0
1FC0
1DE0
38F0
7870
F038
ENDCHAR
STARTCHAR 03C8
ENCODING 968
SWIDTH 600 0
DWIDTH 15 0
BBX 14 19 1 -6
BITMAP
E738
E738
E73C
E71C
E71C
E71C
E71C
E71C
E73C
7738
7FF8
3FF0
1FE0
0700
0700
0700
0700
0700
0700
ENDCHAR
STARTCHAR 03C9
ENCODING 969
SWIDTH 600 0
DWIDTH 15 0
BBX 14 13 1 0
BITMAP
7078
E038
E038
E738
E738
E738
E73C
E738
E738
E738
EFB8
7DF0
7CF0
ENDCHAR
STARTCHAR 03CA
ENCODING 970
SWIDTH 600 0
DWIDTH 15 0
BBX 11 18 2 0
BITMAP
31C0
71C0
3080
0000
0000
FE00
FE00
0E00
0E00
0E00
0E00
0E00
0E00
0E00
0E00
0F20
0FE0
07E0
ENDCHAR
STARTCHAR 03CB
ENCODING 971
SWIDTH 600 0
DWIDTH 15 0
BBX 11 18 2 0
BITMAP
6380
E380
6100
0000
0000
E1C0
E0E0
E0E0
E0E0
E0E0
E0E0
E0E0
E0E0
E0E0
E1E0
F3E0
7FC0
3F80
ENDCHAR
STARTCHAR 03CC
ENCODING 972
SWIDTH 600 0
DWIDTH 15 0
BBX 13 20 1 0
BITMAP
01C0
0180
0380
0300
0300
0000
0000
1FC0
3FE0
78F0
7070
F070
E078
E038
F078
7070
7070
7DF0
3FE0
1FC0
ENDCHAR
STARTCHAR 03CD
ENCODING 973
SWIDTH 600 0
DWIDTH 15 0
BBX 11 20 2 0
BITMAP
0700
0600
0E00
0C00
0C00
0000
0000
E1C0
E0E0
E0E0
E0E0
E0E0
E0E0
E0E0
E0E0
E0E0
E1E0
F3E0
7FC0
3F80
ENDCHAR
STARTCHAR 03CE
ENCODING 974
SWIDTH 600 0
DWIDTH 15 0
BBX 14 20 1 0
BITMAP
01C0
0180
0380
0300
0300
0000
0000
7078
E038
E038
E738
E738
E738
E73C
E738
E738
E738
EFB8
7DF0
7CF0
ENDCHAR
STARTCHAR 03D1
ENCODING 977
SWIDTH 600 0
DWIDTH 15 0
BBX 13 18 2 0
BITMAP
0780
0FC0
1FE0
1CE0
3CE0
3CE0
1CE0
1EE0
0FF8
E7F8
E3F8
E0E0
E0E0
E0E0
E0E0
7BE0
7FC0
1F80
ENDCHAR
STARTCHAR 03D2
ENCODING 978
SWIDTH 600 0
DWIDTH 15 0
BBX 14 18 1 0
BITMAP
E01C
F03C
F83C
3870
3870
1CE0
1CE0
0EE0
0FC0
0FC0
0780
0780
0780
0780
0780
0780
0780
0780
ENDCHAR
STARTCHAR 03D6
ENCODING 982
SWIDTH 600 0
DWIDTH 15 0
BBX 15 13 0 0
BITMAP
FFFE
FFFE
781C
701C
739C
739E
739E
739E
738E
73DE
77DC
7EFC
3E78
ENDCHAR
STARTCHAR 0400
ENCODING 1024
SWIDTH 600 0
DWIDTH 15 0
BBX 12 22 2 0
BITMAP
7800
3C00
1C00
0200
FFF0
FFF0
FFF0
E000
E000
E000
E000
E000
FFC0
FFC0
E000
E000
E000
E000
E000
FFF0
FFF0
FFF0
ENDCHAR
STARTCHAR 0401
ENCODING 1025
SWIDTH 600 0
DWIDTH 15 0
BBX 12 22 2 0
BITMAP
31C0
71C0
3080
0000
FFF0
FFF0
FFF0
E000
E000
E000
E000
E000
FFC0
FFC0
E000
E000
E000
E000
E000
FFF0
FFF0
FFF0
ENDCHAR
STARTCHAR 0402
ENCODING 1026
SWIDTH 600 0
DWIDTH 15 0
BBX 14 18 0 0
BITMAP
FFF8
FFF8
FFF8
0E00
0E00
0E00
0E00
0E00
0FF0
0FF8
0E3C
0E1C
0E1C
0E1C
0E1C
0E3C
0E78
0E70
ENDCHAR
STARTCHAR 0403
ENCODING 1027
SWIDTH 600 0
DWIDTH 15 0
BBX 11 22 2 0
BITMAP
03C0
0700
0E00
0000
FFE0
FFE0
FFE0
E000
E000
E000
E000
E000
E000
E000
E000
E000
E000
E000
E000
E000
E000
E000
ENDCHAR
STARTCHAR 0404
ENCODING 1028
SWIDTH 600 0
DWIDTH 15 0
BBX 13 18 1 0
BITMAP
0FC0
3FE0
3FF0
7078
7038
F038
E000
E000
FF80
FF80
E000
E000
F038
7038
7078
7CF0
3FE0
0FC0
ENDCHAR
STARTCHAR 0405
ENCODING 1029
SWIDTH 600 0
DWIDTH 15 0
BBX 13 18 1 0
BITMAP
0FC0
3FE0
7FF0
7078
7038
7000
7800
3E00
1F80
0FE0
01F0
0078
0038
E038
F038
7CF8
3FF0
0FC0
ENDCHAR
STARTCHAR 0406
ENCODING 1030
SWIDTH 600 0
DWIDTH 15 0
BBX 11 18 2 0
BITMAP
FFE0
FFE0
FFE0
0E00
0E00
0E00
0E00
0E00
0E00
0E00
0E00
0E00
0E00
0E00
0E00
FFE0
FFE0
FFE0
ENDCHAR
STARTCHAR 0407
ENCODING 1031
SWIDTH 600 0
DWIDTH 15 0
BBX 11 22 2 0
BITMAP
6380
E380
6100
0000
FFE0
FFE0
FFE0
0E00
0E00
0E00
0E00
0E00
0E00
0E00
0E00
0E00
0E00
0E00
0E00
FFE0
FFE0
FFE0
ENDCHAR
STARTCHAR 0408
ENCODING 1032
SWIDTH 600 0
DWIDTH 15 0
BBX 12 18 1 0
BITMAP
0070
0070
0070
0070
0070
0070
0070
0070
0070
0070
0070
0070
0070
F070
7070
79E0
3FE0
1F80
ENDCHAR
STARTCHAR 0409
ENCODING 1033
SWIDTH 600 0
DWIDTH 15 0
BBX 14 18 0 0
BITMAP
3F80
3F80
3F80
3980
3980
3980
3980
39F0
39F8
399C
399C
398C
398C
398C
399C
F1FC
F1F8
E1F0
ENDCHAR
STARTCHAR 040A
ENCODING 1034
SWIDTH 600 0
DWIDTH 15 0
BBX 13 18 1 0
BITMAP
E700
E700
E700
E700
E700
E700
E700
E7E0
FFF0
FF78
E738
E738
E738
E738
E738
E7F0
E7F0
E7E0
ENDCHAR
STARTCHAR 040B
ENCODING 1035
SWIDTH 600 0
DWIDTH 15 0
BBX 13 18 1 0
BITMAP
FFF0
FFF0
FFF0
1C00
1C00
1C00
1C00
1F00
1FE0
1FF0
1C70
1C70
1C78
1C78
1C78
1C78
1C78
1C78
ENDCHAR
STARTCHAR 040C
ENCODING 1036
SWIDTH 600 0
DWIDTH 15 0
BBX 13 22 2 0
BITMAP
03C0
0700
0E00
0000
E078
E0F0
E1E0
E1C0
E3C0
E780
EF00
EE00
FE00
FF00
FF00
F780
E3C0
E1C0
E1E0
E0F0
E0F0
E078
ENDCHAR
STARTCHAR 040D
ENCODING 1037
SWIDTH 600 0
DWIDTH 15 0
BBX 12 22 1 0
BITMAP
3C00
1E00
0E00
0100
F070
F0F0
F0F0
F0F0
F1F0
F1F0
F3F0
F370
F770
F770
FE70
FE70
FC70
FC70
F870
F870
F070
F070
ENDCHAR
STARTCHAR 040E
ENCODING 1038
SWIDTH 600 0
DWIDTH 15 0
BBX 15 23 0 0
BITMAP
0C70
0C70
0FE0
03C0
0000
F01E
701C
781C
383C
3C38
1C78
1C70
0E70
0EE0
07E0
07E0
03C0
03C0
0380
0380
4F00
7F00
7C00
ENDCHAR
STARTCHAR 040F
ENCODING 1039
SWIDTH 600 0
DWIDTH 15 0
BBX 12 22 1 -4
BITMAP
F070
F070
F070
F070
F070
F070
F070
F070
F070
F070
F070
F070
F070
F070
F070
FFF0
FFF0
FFF0
0700
0700
0700
0700
ENDCHAR
STARTCHAR 0410
ENCODING 1040
SWIDTH 600 0
DWIDTH 15 0
BBX 15 18 0 0
BITMAP
0380
03C0
03C0
07C0
07E0
06E0
0EE0
0E60
0E70
1C70
1C70
1FF8
3FF8
3FF8
381C
781C
701C
F01E
ENDCHAR
STARTCHAR 0411
ENCODING 1041
SWIDTH 600 0
DWIDTH 15 0
BBX 12 18 2 0
BITMAP
FFE0
FFE0
FFE0
E000
E000
E000
E000
FF00
FFC0
FFE0
E0E0
E0F0
E0F0
E0E0
E0E0
FFE0
FFC0
FF00
ENDCHAR
STARTCHAR 0412
ENCODING 1042
SWIDTH 600 0
DWIDTH 15 0
BBX 12 18 2 0
BITMAP
FF00
FFC0
FFE0
E0F0
E070
E070
E0F0
E1E0
FFC0
FFE0
E0F0
E070
E070
E070
E0F0
FFF0
FFE0
FF80
ENDCHAR
STARTCHAR 0413
ENCODING 1043
SWIDTH 600 0
DWIDTH 15 0
BBX 11 18 2 0
BITMAP
FFE0
FFE0
FFE0
E000
E000
E000
E000
E000
E000
E000
E000
E000
E000
E000
E000
E000
E000
E000
ENDCHAR
STARTCHAR 0414
ENCODING 1044
SWIDTH 600 0
DWIDTH 15 0
BBX 13 22 1 -4
BITMAP
1FF0
1FF0
1FF0
1C70
1C70
1C70
1C70
1C70
1C70
1C70
3C70
3C70
3870
3870
7870
FFF8
FFF8
FFF8
E038
E038
E038
E038
ENDCHAR
STARTCHAR 0415
ENCODING 1045
SWIDTH 600 0
DWIDTH 15 0
BBX 12 18 2 0
BITMAP
FFF0
FFF0
FFF0
E000
E000
E000
E000
E000
FFC0
FFC0
E000
E000
E000
E000
E000
FFF0
FFF0
FFF0
ENDCHAR
STARTCHAR 0416
ENCODING 1046
SWIDTH 600 0
DWIDTH 15 0
BBX 15 18 0 0
BITMAP
F39E
739C
739C
73B8
3BB8
3BB8
3BB0
1BB0
1FF0
1FF0
3FF0
3BB8
3BB8
7BB8
73BC
739C
F39C
F39E
ENDCHAR
STARTCHAR 0417
ENCODING 1047
SWIDTH 600 0
DWIDTH 15 0
BBX 13 18 1 0
BITMAP
0FC0
3FE0
7FF0
F078
E038
0038
0078
00F0
0FE0
0FE0
00F0
0038
0038
E038
F038
78F8
7FF0
1FC0
ENDCHAR
STARTCHAR 0418
ENCODING 1048
SWIDTH 600 0
DWIDTH 15 0
BBX 12 18 1 0
BITMAP
F070
F0F0
F0F0
F0F0
F1F0
F1F0
F3F0
F370
F770
F770
FE70
FE70
FC70
FC70
F870
F870
F070
F070
ENDCHAR
STARTCHAR 0419
ENCODING 1049
SWIDTH 600 0
DWIDTH 15 0
BBX 12 23 1 0
BITMAP
18E0
18E0
1FC0
0780
0000
F070
F0F0
F0F0
F0F0
F1F0
F1F0
F3F0
F370
F770
F770
FE70
FE70
FC70
FC70
F870
F870
F070
F070
ENDCHAR
STARTCHAR 041A
ENCODING 1050
SWIDTH 600 0
DWIDTH 15 0
BBX 13 18 2 0
BITMAP
E078
E0F0
E0E0
E1E0
E3C0
E380
E780
EF00
FE00
FF00
FF00
E780
E380
E3C0
E1E0
E0E0
E0F0
E078
ENDCHAR
STARTCHAR 041B
ENCODING 1051
SWIDTH 600 0
DWIDTH 15 0
BBX 12 18 1 0
BITMAP
3FF0
3FF0
3FF0
3870
3870
3870
3870
3870
3870
3870
3870
3870
3870
3870
7870
F070
F070
C070
ENDCHAR
STARTCHAR 041C
ENCODING 1052
SWIDTH 600 0
DWIDTH 15 0
BBX 12 18 2 0
BITMAP
F0F0
F1F0
F1F0
F1F0
FBF0
DB70
DB70
DF70
CE70
EE70
EE70
EE70
E070
E070
E070
E070
E070
E070
ENDCHAR
STARTCHAR 041D
ENCODING 1053
SWIDTH 600 0
DWIDTH 15 0
BBX 11 18 2 0
BITMAP
E0E0
E0E0
E0E0
E0E0
E0E0
E0E0
E0E0
E0E0
FFE0
FFE0
E0E0
E0E0
E0E0
E0E0
E0E0
E0E0
E0E0
E0E0
ENDCHAR
STARTCHAR 041E
ENCODING 1054
SWIDTH 600 0
DWIDTH 15 0
BBX 13 18 1 0
BITMAP
0F80
3FE0
3FE0
70F0
7070
E078
E038
E038
E038
E038
E038
E038
E078
F070
7070
7DF0
3FE0
1F80
ENDCHAR
STARTCHAR 041F
ENCODING 1055
SWIDTH 600 0
DWIDTH 15 0
BBX 11 18 2 0
BITMAP
FFE0
FFE0
FFE0
E0E0
E0E0
E0E0
E0E0
E0E0
E0E0
E0E0
E0E0
E0E0
E0E0
E0E0
E0E0
E0E0
E0E0
E0E0
ENDCHAR
STARTCHAR 0420
ENCODING 1056
SWIDTH 600 0
DWIDTH 15 0
BBX 12 18 2 0
BITMAP
FF00
FFC0
FFE0
E0F0
E070
E070
E070
E070
E1F0
FFE0
FF80
E000
E000
E000
E000
E000
E000
E000
ENDCHAR
STARTCHAR 0421
ENCODING 1057
SWIDTH 600 0
DWIDTH 15 0
BBX 13 18 1 0
BITMAP
0F80
3FE0
3FF0
7070
7078
E038
E000
E000
E000
E000
E000
E000
E038
F038
7070
7CF0
3FE0
1FC0
ENDCHAR
STARTCHAR 0422
ENCODING 1058
SWIDTH 600 0
DWIDTH 15 0
BBX 15 18 0 0
BITMAP
FFFE
FFFE
FFFE
0380
0380
0380
0380
0380
0380
0380
0380
0380
0380
0380
0380
0380
0380
0380
ENDCHAR
STARTCHAR 0423
ENCODING 1059
SWIDTH 600 0
DWIDTH 15 0
BBX 15 18 0 0
BITMAP
F01E
701C
781C
383C
3C38
1C78
1C70
0E70
0EE0
07E0
07E0
03C0
03C0
0380
0380
4F00
7F00
7C00
ENDCHAR
STARTCHAR 0424
ENCODING 1060
SWIDTH 600 0
DWIDTH 15 0
BBX 14 18 1 0
BITMAP
0780
0780
0780
1FE0
3FF0
7FF8
F7BC
E79C
E79C
E79C
E79C
E7BC
77B8
7FF8
3FF0
0FC0
0780
0780
ENDCHAR
STARTCHAR 0425
ENCODING 1061
SWIDTH 600 0
DWIDTH 15 0
BBX 14 18 1 0
BITMAP
F03C
F078
7870
78F0
3CE0
1DE0
1FC0
0FC0
0F80
0F80
0F80
1FC0
1DE0
3CE0
38F0
7870
F078
F03C
ENDCHAR
STARTCHAR 0426
ENCODING 1062
SWIDTH 600 0
DWIDTH 15 0
BBX 14 22 1 -4
BITMAP
F070
F070
F070
F070
F070
F070
F070
F070
F070
F070
F070
F070
F070
F070
F070
FFFC
FFFC
FFFC
001C
001C
001C
001C
ENDCHAR
STARTCHAR 0427
ENCODING 1063
SWIDTH 600 0
DWIDTH 15 0
BBX 12 18 2 0
BITMAP
E0F0
E0F0
E0F0
E0F0
E0F0
E0F0
E0F0
E0F0
F0F0
7FF0
3FF0
04F0
00F0
00F0
00F0
00F0
00F0
00F0
ENDCHAR
STARTCHAR 0428
ENCODING 1064
SWIDTH 600 0
DWIDTH 15 0
BBX 13 18 1 0
BITMAP
E738
E738
E738
E738
E738
E738
E738
E738
E738
E738
E738
E738
E738
E738
E738
FFF8
FFF8
FFF8
ENDCHAR
STARTCHAR 0429
ENCODING 1065
SWIDTH 600 0
DWIDTH 15 0
BBX 15 22 1 -4
BITMAP
E738
E738
E738
E738
E738
E738
E738
E738
E738
E738
E738
E738
E738
E738
E738
FFFE
FFFE
FFFE
001C
001C
001C
001C
ENDCHAR
STARTCHAR 042A
ENCODING 1066
SWIDTH 600 0
DWIDTH 15 0
BBX 13 18 1 0
BITMAP
FC00
FC00
FC00
1C00
1C00
1C00
1C00
1F00
1FE0
1FF0
1C78
1C38
1C38
1C38
1C78
1FF0
1FF0
1FC0
ENDCHAR
STARTCHAR 042B
ENCODING 1067
SWIDTH 600 0
DWIDTH 15 0
BBX 13 18 1 0
BITMAP
E038
E038
E038
E038
E038
E038
E038
F038
FE38
FF38
E738
E7B8
E3B8
E7B8
E738
EF38
FE38
FC38
ENDCHAR
STARTCHAR 042C
ENCODING 1068
SWIDTH 600 0
DWIDTH 15 0
BBX 12 18 2 0
BITMAP
E000
E000
E000
E000
E000
E000
E000
FF00
FFC0
FFE0
E0E0
E0F0
E0F0
E0E0
E0E0
FFE0
FFC0
FF00
ENDCHAR
STARTCHAR 042D
ENCODING 1069
SWIDTH 600 0
DWIDTH 15 0
BBX 12 18 1 0
BITMAP
1F80
3FC0
7FE0
F0F0
E070
E070
0070
0070
0FF0
0FF0
0070
0070
E070
E070
E0F0
F9E0
7FC0
1F80
ENDCHAR
STARTCHAR 042E
ENCODING 1070
SWIDTH 600 0
DWIDTH 15 0
BBX 13 18 1 0
BITMAP
E3C0
E7F0
E7F0
EE30
EE38
EE38
EE38
EE38
FE38
FE38
FE38
EE38
EE38
EE38
EE38
E770
E7F0
E3E0
ENDCHAR
STARTCHAR 042F
ENCODING 1071
SWIDTH 600 0
DWIDTH 15 0
BBX 13 18 0 0
BITMAP
07F8
1FF8
3FF8
7838
7038
7038
7038
7038
3FF8
1FF8
1FF8
1C38
3C38
3838
7838
7038
7038
E038
ENDCHAR
STARTCHAR 0430
ENCODING 1072
SWIDTH 600 0
DWIDTH 15 0
BBX 11 13 2 0
BITMAP
3F80
7FC0
E1E0
E0E0
00E0
3FE0
7FE0
E0E0
E0E0
E0E0
F3E0
FFE0
7EE0
ENDCHAR
STARTCHAR 0431
ENCODING 1073
SWIDTH 600 0
DWIDTH 15 0
BBX 13 19 1 0
BITMAP
0070
01E0
0FE0
1FC0
3C00
3000
7000
6FC0
7FE0
78F0
F070
F078
F038
F078
7078
7070
7CF0
3FE0
1FC0
ENDCHAR
STARTCHAR 0432
ENCODING 1074
SWIDTH 600 0
DWIDTH 15 0
BBX 11 13 2 0
BITMAP
FF80
FFC0
E3E0
E0E0
E1C0
FFC0
FF80
E1E0
E0E0
E0E0
FFE0
FFE0
FF80
ENDCHAR
STARTCHAR 0433
ENCODING 1075
SWIDTH 600 0
DWIDTH 15 0
BBX 11 13 2 0
BITMAP
FFE0
FFE0
E000
E000
E000
E000
E000
E000
E000
E000
E000
E000
E000
ENDCHAR
STARTCHAR 0434
ENCODING 1076
SWIDTH 600 0
DWIDTH 15 0
BBX 15 17 0 -4
BITMAP
0FF8
0FF8
0E38
0E38
0E38
0E38
0E38
0E38
1C38
1C38
FFFE
FFFE
7FFE
700E
700E
700E
700E
ENDCHAR
STARTCHAR 0435
ENCODING 1077
SWIDTH 600 0
DWIDTH 15 0
BBX 13 13 1 0
BITMAP
1FC0
3FE0
78F0
7070
7038
FFF8
FFF8
F000
7000
7820
7CF0
3FF0
0FC0
ENDCHAR
STARTCHAR 0436
ENCODING 1078
SWIDTH 600 0
DWIDTH 15 0
BBX 15 13 0 0
BITMAP
739C
73BC
3BB8
3BB8
1BF0
1FF0
1FF0
1FF0
3BB8
3BB8
73BC
739C
F39E
ENDCHAR
STARTCHAR 0437
ENCODING 1079
SWIDTH 600 0
DWIDTH 15 0
BBX 13 13 1 0
BITMAP
1FE0
7FF0
7070
7070
0070
0FE0
0FE0
00F0
0078
F078
78F0
7FF0
1FC0
ENDCHAR
STARTCHAR 0438
ENCODING 1080
SWIDTH 600 0
DWIDTH 15 0
BBX 11 13 2 0
BITMAP
E0E0
E1E0
E3E0
E3E0
E7E0
E6E0
EEE0
FCE0
F8E0
F8E0
F0E0
F0E0
E0E0
ENDCHAR
STARTCHAR 0439
ENCODING 1081
SWIDTH 600 0
DWIDTH 15 0
BBX 11 19 2 0
BITMAP
31C0
31C0
3F80
0F00
0000
0000
E0E0
E1E0
E3E0
E3E0
E7E0
E6E0
EEE0
FCE0
F8E0
F8E0
F0E0
F0E0
E0E0
ENDCHAR
STARTCHAR 043A
ENCODING 1082
SWIDTH 600 0
DWIDTH 15 0
BBX 13 13 2 0
BITMAP
E0F0
E1E0
E3C0
E3C0
E780
FF00
FF00
FF80
E780
E3C0
E1E0
E0F0
E0F8
ENDCHAR
STARTCHAR 043B
ENCODING 1083
SWIDTH 600 0
DWIDTH 15 0
BBX 13 13 0 0
BITMAP
1FF8
1FF8
1C38
1C38
1C38
1C38
1C38
1C38
1C38
3C38
F838
F838
F038
ENDCHAR
STARTCHAR 043C
ENCODING 1084
SWIDTH 600 0
DWIDTH 15 0
BBX 12 13 1 0
BITMAP
F8F0
F8F0
F8F0
F8F0
F9F0
FDF0
EDB0
EDB0
EDB0
EF30
E730
E730
E730
ENDCHAR
STARTCHAR 043D
ENCODING 1085
SWIDTH 600 0
DWIDTH 15 0
BBX 11 13 2 0
BITMAP
E0E0
E0E0
E0E0
E0E0
E0E0
FFE0
FFE0
FFE0
E0E0
E0E0
E0E0
E0E0
E0E0
ENDCHAR
STARTCHAR 043E
ENCODING 1086
SWIDTH 600 0
DWIDTH 15 0
BBX 13 13 1 0
BITMAP
1FC0
3FE0
78F0
7070
F070
E078
E038
F078
7070
7070
7DF0
3FE0
1FC0
ENDCHAR
STARTCHAR 043F
ENCODING 1087
SWIDTH 600 0
DWIDTH 15 0
BBX 11 13 2 0
BITMAP
FFE0
FFE0
E0E0
E0E0
E0E0
E0E0
E0E0
E0E0
E0E0
E0E0
E0E0
E0E0
E0E0
ENDCHAR
STARTCHAR 0440
ENCODING 1088
SWIDTH 600 0
DWIDTH 15 0
BBX 12 18 2 -5
BITMAP
FF80
FFC0
F1E0
E0E0
E0E0
E0F0
E0F0
E0E0
E0E0
E0E0
F3E0
FFC0
EF80
E000
E000
E000
E000
E000
ENDCHAR
STARTCHAR 0441
ENCODING 1089
SWIDTH 600 0
DWIDTH 15 0
BBX 12 13 1 0
BITMAP
1FC0
3FE0
78F0
7070
7070
7000
F000
7000
7000
7070
7CF0
3FE0
1FC0
ENDCHAR
STARTCHAR 0442
ENCODING 1090
SWIDTH 600 0
DWIDTH 15 0
BBX 14 13 1 0
BITMAP
FFFC
FFFC
0700
0700
0700
0700
0700
0700
0700
0700
0700
0700
0700
ENDCHAR
STARTCHAR 0443
ENCODING 1091
SWIDTH 600 0
DWIDTH 15 0
BBX 14 18 1 -5
BITMAP
E03C
F038
7078
7870
38F0
38E0
1CE0
1DC0
0FC0
0FC0
0F80
0780
0700
0700
0E00
1E00
7C00
7800
ENDCHAR
STARTCHAR 0444
ENCODING 1092
SWIDTH 600 0
DWIDTH 15 0
BBX 13 24 1 -5
BITMAP
0700
0700
0700
0700
0700
0700
1FC0
3FE0
7FF0
F778
E738
E738
E738
E738
E738
F778
7FF0
3FE0
1FC0
0700
0700
0700
0700
0700
ENDCHAR
STARTCHAR 0445
ENCODING 1093
SWIDTH 600 0
DWIDTH 15 0
BBX 13 13 1 0
BITMAP
F078
7870
3CE0
1DE0
0FC0
0F80
0780
0FC0
1FC0
1DE0
38F0
7870
F038
ENDCHAR
STARTCHAR 0446
ENCODING 1094
SWIDTH 600 0
DWIDTH 15 0
BBX 13 17 2 -4
BITMAP
E0E0
E0E0
E0E0
E0E0
E0E0
E0E0
E0E0
E0E0
E0E0
E0E0
FFF8
FFF8
FFF8
0038
0038
0030
0030
ENDCHAR
STARTCHAR 0447
ENCODING 1095
SWIDTH 600 0
DWIDTH 15 0
BBX 12 13 2 0
BITMAP
E0F0
E0F0
E0F0
E0F0
E0F0
E0F0
FFF0
7FF0
1FF0
00F0
00F0
00F0
00F0
ENDCHAR
STARTCHAR 0448
ENCODING 1096
SWIDTH 600 0
DWIDTH 15 0
BBX 13 13 1 0
BITMAP
E738
E738
E738
E738
E738
E738
E738
E738
E738
E738
FFF8
FFF8
FFF8
ENDCHAR
STARTCHAR 0449
ENCODING 1097
SWIDTH 600 0
DWIDTH 15 0
BBX 14 17 1 -4
BITMAP
E738
E738
E738
E738
E738
E738
E738
E738
E738
E738
FFFC
FFFC
FFFC
001C
001C
001C
001C
ENDCHAR
STARTCHAR 044A
ENCODING 1098
SWIDTH 600 0
DWIDTH 15 0
BBX 13 13 1 0
BITMAP
FC00
FC00
1C00
1C00
1C00
1FE0
1FF8
1C78
1C38
1C38
1CF8
1FF0
1FE0
ENDCHAR
STARTCHAR 044B
ENCODING 1099
SWIDTH 600 0
DWIDTH 15 0
BBX 13 13 1 0
BITMAP
E038
E038
E038
E038
E038
FE38
FF38
E738
E3B8
E3B8
EF38
FF38
FC38
ENDCHAR
STARTCHAR 044C
ENCODING 1100
SWIDTH 600 0
DWIDTH 15 0
BBX 12 13 2 0
BITMAP
E000
E000
E000
E000
FE00
FFC0
FFE0
E0F0
E070
E070
FFE0
FFE0
FF80
ENDCHAR
STARTCHAR 044D
ENCODING 1101
SWIDTH 600 0
DWIDTH 15 0
BBX 12 13 1 0
BITMAP
1FC0
7FE0
78F0
F070
0070
07F0
07F0
0070
E070
7070
79E0
3FE0
1F80
ENDCHAR
STARTCHAR 044E
ENCODING 1102
SWIDTH 600 0
DWIDTH 15 0
BBX 13 13 1 0
BITMAP
E3E0
E7F0
E738
EE38
EE38
FE38
FE38
FE38
EE38
EF38
E738
E7F0
E3E0
ENDCHAR
STARTCHAR 044F
ENCODING 1103
SWIDTH 600 0
DWIDTH 15 0
BBX 12 13 1 0
BITMAP
1FF0
7FF0
7870
7070
F070
7070
7FF0
3FF0
1C70
3870
7870
7070
E070
ENDCHAR
STARTCHAR 0450
ENCODING 1104
SWIDTH 600 0
DWIDTH 15 0
BBX 13 18 1 0
BITMAP
3C00
1E00
0E00
0100
0000
1FC0
3FE0
78F0
7070
7038
FFF8
FFF8
F000
7000
7820
7CF0
3FF0
0FC0
ENDCHAR
STARTCHAR 0451
ENCODING 1105
SWIDTH 600 0
DWIDTH 15 0
BBX 13 18 1 0
BITMAP
18E0
38E0
1840
0000
0000
1FC0
3FE0
78F0
7070
7038
FFF8
FFF8
F000
7000
7820
7CF0
3FF0
0FC0
ENDCHAR
STARTCHAR 0452
ENCODING 1106
SWIDTH 600 0
DWIDTH 15 0
BBX 14 24 -1 -5
BITMAP
1C00
1C00
FF80
FF80
1C00
1C00
1DF8
1FFC
1E3C
1C1C
1C1C
1C1C
1C1C
1C1C
1C1C
1C1C
1C1C
1C1C
1C1C
001C
001C
003C
00FC
00F8
ENDCHAR
STARTCHAR 0453
ENCODING 1107
SWIDTH 600 0
DWIDTH 15 0
BBX 11 18 2 0
BITMAP
03C0
0700
0E00
0000
0000
FFE0
FFE0
E000
E000
E000
E000
E000
E000
E000
E000
E000
E000
E000
ENDCHAR
STARTCHAR 0454
ENCODING 1108
SWIDTH 600 0
DWIDTH 15 0
BBX 12 13 1 0
BITMAP
1FC0
3FE0
78F0
7070
7070
FF00
FF00
FF00
7000
7070
78F0
3FE0
1FC0
ENDCHAR
STARTCHAR 0455
ENCODING 1109
SWIDTH 600 0
DWIDTH 15 0
BBX 11 13 2 0
BITMAP
3F80
7FE0
F0E0
E0E0
F000
7E00
3FC0
07E0
00E0
E0E0
F0E0
7FE0
3F80
ENDCHAR
STARTCHAR 0456
ENCODING 1110
SWIDTH 600 0
DWIDTH 15 0
BBX 10 18 3 0
BITMAP
1E00
1E00
0C00
0000
0000
FE00
FE00
1E00
1E00
1E00
1E00
1E00
1E00
1E00
1E00
FFC0
FFC0
FFC0
ENDCHAR
STARTCHAR 0457
ENCODING 1111
SWIDTH 600 0
DWIDTH 15 0
BBX 12 18 2 0
BITMAP
31C0
71C0
3080
0000
0000
FF00
FF00
0F00
0F00
0F00
0F00
0F00
0F00
0F00
0F00
FFF0
FFF0
FFF0
ENDCHAR
STARTCHAR 0458
ENCODING 1112
SWIDTH 600 0
DWIDTH 15 0
BBX 8 23 3 -5
BITMAP
0E
0F
0E
00
00
7E
7E
0E
0E
0E
0E
0E
0E
0E
0E
0E
0E
0E
0E
0E
1E
FE
F8
ENDCHAR
STARTCHAR 0459
ENCODING 1113
SWIDTH 600 0
DWIDTH 15 0
BBX 15 13 0 0
BITMAP
3FC0
3FC0
39C0
39C0
39F0
39FC
39FE
39CE
39CE
39CE
F9FE
F1FC
E1F8
ENDCHAR
STARTCHAR 045A
ENCODING 1114
SWIDTH 600 0
DWIDTH 15 0
BBX 13 13 1 0
BITMAP
E700
E700
E700
E700
E7C0
FFF0
FFF8
E738
E738
E738
E7F8
E7F0
E7E0
ENDCHAR
STARTCHAR 045B
ENCODING 1115
SWIDTH 600 0
DWIDTH 15 0
BBX 13 19 0 0
BITMAP
3800
3800
FF00
FF00
3800
3800
3BF0
3FF8
3C78
3838
3838
3838
3838
3838
3838
3838
3838
3838
3838
ENDCHAR
STARTCHAR 045C
ENCODING 1116
SWIDTH 600 0
DWIDTH 15 0
BBX 13 18 2 0
BITMAP
03C0
0700
0E00
0000
0000
E0F0
E1E0
E3C0
E3C0
E780
FF00
FF00
FF80
E780
E3C0
E1E0
E0F0
E0F8
ENDCHAR
STARTCHAR 045D
ENCODING 1117
SWIDTH 600 0
DWIDTH 15 0
BBX 11 18 2 0
BITMAP
7800
3C00
1C00
0200
0000
E0E0
E1E0
E3E0
E3E0
E7E0
E6E0
EEE0
FCE0
F8E0
F8E0
F0E0
F0E0
E0E0
ENDCHAR
STARTCHAR 045E
ENCODING 1118
SWIDTH 600 0
DWIDTH 15 0
BBX 14 24 1 -5
BITMAP
18E0
18E0
1FC0
0780
0000
0000
E03C
F038
7078
7870
38F0
38E0
1CE0
1DC0
0FC0
0FC0
0F80
0780
0700
0700
0E00
1E00
7C00
7800
ENDCHAR
STARTCHAR 045F
ENCODING 1119
SWIDTH 600 0
DWIDTH 15 0
BBX 11 17 2 -4
BITMAP
E0E0
E0E0
E0E0
E0E0
E0E0
E0E0
E0E0
E0E0
E0E0
E0E0
FFE0
FFE0
FFE0
0E00
0E00
0E00
0E00
ENDCHAR
STARTCHAR 0460
ENCODING 1120
SWIDTH 600 0
DWIDTH 15 0
BBX 13 18 1 0
BITMAP
E738
E738
E738
E738
E738
E738
E738
E738
E738
E738
E738
E738
E738
E738
E738
F7B8
7FF8
3DF0
ENDCHAR
STARTCHAR 0461
ENCODING 1121
SWIDTH 600 0
DWIDTH 15 0
BBX 13 13 1 0
BITMAP
E738
E738
E738
E738
E738
E738
E738
E738
E738
E738
EFB8
7FF0
3DF0
ENDCHAR
STARTCHAR 0462
ENCODING 1122
SWIDTH 600 0
DWIDTH 15 0
BBX 15 18 -1 0
BITMAP
1C00
1C00
1C00
FF80
FF80
1C00
1C00
1FE0
1FF8
1FFC
1C1C
1C1E
1C1E
1C1C
1C1C
1FFC
1FF8
1FE0
ENDCHAR
STARTCHAR 0463
ENCODING 1123
SWIDTH 600 0
DWIDTH 15 0
BBX 14 19 0 0
BITMAP
3C00
3C00
3C00
3C00
FF80
FF80
3C00
3C00
3C00
3C00
3F80
3FF0
3FF8
3C3C
3C1C
3C1C
3FF8
3FF8
3FE0
ENDCHAR
STARTCHAR 0464
ENCODING 1124
SWIDTH 600 0
DWIDTH 15 0
BBX 13 18 1 0
BITMAP
E1E0
E3F0
E7F8
E738
EE18
EE18
EE00
EE00
FFC0
FFC0
EE00
EE00
EE18
EE38
E738
E7F8
E3F0
E1E0
ENDCHAR
STARTCHAR 0465
ENCODING 1125
SWIDTH 600 0
DWIDTH 15 0
BBX 13 13 1 0
BITMAP
E3F0
E3F8
E738
E738
EF00
FFC0
FFC0
EF00
E700
E738
E7F8
E3F8
E1F0
ENDCHAR
STARTCHAR 0466
ENCODING 1126
SWIDTH 600 0
DWIDTH 15 0
BBX 15 18 0 0
BITMAP
03C0
03C0
03C0
07E0
07E0
0FE0
0EF0
0E70
1E70
1C78
1FF8
3FF8
3FFC
3B9C
7B9C
739E
738E
F38E
ENDCHAR
STARTCHAR 0467
ENCODING 1127
SWIDTH 600 0
DWIDTH 15 0
BBX 14 13 1 0
BITMAP
0780
0780
0F80
0FC0
1DC0
1CE0
1CE0
3FE0
3FF0
7FF0
7378
7338
E33C
ENDCHAR
STARTCHAR 0468
ENCODING 1128
SWIDTH 600 0
DWIDTH 15 0
BBX 14 18 1 0
BITMAP
E1C0
E1C0
E1C0
E1E0
E3E0
E360
E360
E370
E770
E730
FFF0
FFF0
FFF8
EEF8
EEF8
ECD8
ECDC
FCDC
ENDCHAR
STARTCHAR 0469
ENCODING 1129
SWIDTH 600 0
DWIDTH 15 0
BBX 14 13 1 0
BITMAP
E1C0
E1C0
E1E0
E3E0
E360
E370
E770
FFF0
FFF8
FFF8
EEF8
ECD8
FCDC
ENDCHAR
STARTCHAR 046A
ENCODING 1130
SWIDTH 600 0
DWIDTH 15 0
BBX 14 18 1 0
BITMAP
FFF8
7FF0
7FF0
38F0
3CE0
1DE0
1DC0
0FC0
0FC0
7FF0
FFF8
E73C
E73C
E73C
E73C
E73C
E73C
E73C
ENDCHAR
STARTCHAR 046B
ENCODING 1131
SWIDTH 600 0
DWIDTH 15 0
BBX 13 13 1 0
BITMAP
FFF8
7FF0
38E0
39E0
1DC0
1F80
7FE0
FFF0
E778
E738
E738
E738
E738
ENDCHAR
STARTCHAR 046C
ENCODING 1132
SWIDTH 600 0
DWIDTH 15 0
BBX 14 18 1 0
BITMAP
CFF8
CFF8
C7F8
C730
C770
C370
C3E0
C3E0
FFE0
FFF8
FFFC
CDDC
DDDC
DDDC
DDDC
DDDC
DDDC
DDDC
ENDCHAR
STARTCHAR 046D
ENCODING 1133
SWIDTH 600 0
DWIDTH 15 0
BBX 14 13 1 0
BITMAP
CFF8
C7F8
C730
C370
C3E0
C1E0
FFF8
FFF8
CCDC
CCDC
CCDC
CCDC
CCDC
ENDCHAR
STARTCHAR 046E
ENCODING 1134
SWIDTH 600 0
DWIDTH 15 0
BBX 11 28 2 -5
BITMAP
F380
3E00
1C00
0000
0000
7E00
7F80
7FC0
01C0
01E0
01E0
01C0
07C0
1F80
1F80
03C0
01E0
00E0
00E0
01E0
03E0
7FC0
FF00
E000
E000
E000
7800
3000
ENDCHAR
STARTCHAR 046F
ENCODING 1135
SWIDTH 600 0
DWIDTH 15 0
BBX 11 24 2 -5
BITMAP
71C0
3B00
1E00
0C00
0000
0000
7F00
7FC0
03C0
01C0
01C0
1FC0
1F80
07C0
00E0
00E0
01E0
3FC0
7F80
F000
E000
6000
7800
3000
ENDCHAR
STARTCHAR 0470
ENCODING 1136
SWIDTH 600 0
DWIDTH 15 0
BBX 14 18 1 0
BITMAP
E79C
E79C
E79C
E79C
E79C
E79C
E79C
E79C
E79C
E7BC
F7B8
7FF8
3FF0
0FC0
0780
0780
0780
0780
ENDCHAR
STARTCHAR 0471
ENCODING 1137
SWIDTH 600 0
DWIDTH 15 0
BBX 14 19 1 -6
BITMAP
E738
E738
E73C
E71C
E71C
E71C
E71C
E71C
E73C
7738
7FF8
3FF0
1FE0
0700
0700
0700
0700
0700
0700
ENDCHAR
STARTCHAR 0472
ENCODING 1138
SWIDTH 600 0
DWIDTH 15 0
BBX 13 18 1 0
BITMAP
0F80
3FC0
7FE0
70F0
7070
E078
E038
E038
FFF8
FFF8
E038
E038
E078
F070
7070
7DF0
3FE0
1F80
ENDCHAR
STARTCHAR 0473
ENCODING 1139
SWIDTH 600 0
DWIDTH 15 0
BBX 13 13 1 0
BITMAP
1FC0
3FE0
78F0
7070
F070
FFF8
FFF8
E070
F070
7070
79F0
3FE0
1F80
ENDCHAR
STARTCHAR 0474
ENCODING 1140
SWIDTH 600 0
DWIDTH 15 0
BBX 16 18 0 0
BITMAP
F007
700F
701F
781C
381C
3838
3C38
1C38
1C30
1C70
0E70
0E60
0EE0
07E0
07E0
07C0
03C0
03C0
ENDCHAR
STARTCHAR 0475
ENCODING 1141
SWIDTH 600 0
DWIDTH 15 0
BBX 13 13 1 0
BITMAP
E078
F078
70E0
70E0
71C0
39C0
39C0
3B80
1F80
1F80
0F00
0F00
0F00
ENDCHAR
STARTCHAR 0476
ENCODING 1142
SWIDTH 600 0
DWIDTH 15 0
BBX 16 24 0 0
BITMAP
7B80
1DC0
0EE0
0770
0000
0000
F007
700F
701F
781C
381C
3838
3C38
1C38
1C30
1C70
0E70
0E60
0EE0
07E0
07E0
07C0
03C0
03C0
ENDCHAR
STARTCHAR 0477
ENCODING 1143
SWIDTH 600 0
DWIDTH 15 0
BBX 14 20 0 0
BITMAP
F700
3B80
1DC0
0EE0
0000
0000
0000
703C
783C
3870
3870
38E0
1CE0
1CE0
1DC0
0FC0
0FC0
0780
0780
0780
ENDCHAR
STARTCHAR 0478
ENCODING 1144
SWIDTH 600 0
DWIDTH 15 0
BBX 14 23 1 -5
BITMAP
3800
7C00
CC00
CE00
C600
C6CC
C6D8
C6D8
C6D8
C6D8
C6D8
C658
C670
C670
C670
CE70
7C70
7860
0060
0060
0060
01C0
01C0
ENDCHAR
STARTCHAR 0479
ENCODING 1145
SWIDTH 600 0
DWIDTH 15 0
BBX 14 18 1 -5
BITMAP
7CCC
7EDC
C6D8
C6D8
C7D8
C7D8
C758
C770
C770
C670
E670
7E70
7C60
0060
0060
0060
01C0
01C0
ENDCHAR
STARTCHAR 047A
ENCODING 1146
SWIDTH 600 0
DWIDTH 15 0
BBX 13 21 1 -2
BITMAP
0700
0F80
3FE0
3FE0
77F0
7070
E078
E038
E038
E038
E038
E038
E038
E078
F070
7770
7FF0
3FE0
1F80
0700
0700
ENDCHAR
STARTCHAR 047B
ENCODING 1147
SWIDTH 600 0
DWIDTH 15 0
BBX 13 17 1 -2
BITMAP
0700
0700
1FC0
3FE0
7FF0
7070
F078
E078
E038
F078
7070
7770
7FF0
3FE0
1FC0
0700
0700
ENDCHAR
STARTCHAR 047C
ENCODING 1148
SWIDTH 600 0
DWIDTH 15 0
BBX 14 22 1 0
BITMAP
0F80
19F0
1830
0300
1B60
7A78
F87C
E01C
E01C
E01C
E01C
E01C
E79C
E79C
E79C
E79C
E79C
E79C
E79C
F7BC
FFFC
7CF0
ENDCHAR
STARTCHAR 047D
ENCODING 1149
SWIDTH 600 0
DWIDTH 15 0
BBX 13 18 1 0
BITMAP
1F00
19E0
1060
0300
0300
3670
7078
E038
E038
E038
E038
E738
E738
E738
E738
E738
7FF8
3DF0
ENDCHAR
STARTCHAR 047E
ENCODING 1150
SWIDTH 600 0
DWIDTH 15 0
BBX 14 22 1 0
BITMAP
3FE0
0300
0300
0000
E71C
E71C
E71C
E71C
E71C
E71C
E71C
E71C
E71C
E71C
E71C
E71C
E71C
E71C
E738
F7B8
7FF8
3DF0
ENDCHAR
STARTCHAR 047F
ENCODING 1151
SWIDTH 600 0
DWIDTH 15 0
BBX 13 18 1 0
BITMAP
3FE0
3FE0
0700
0000
0000
E738
E738
E738
E738
E738
E738
E738
E738
E738
E738
E7B8
7FF0
3DF0
ENDCHAR
STARTCHAR 0480
ENCODING 1152
SWIDTH 600 0
DWIDTH 15 0
BBX 12 22 2 -4
BITMAP
1F00
3FC0
7FE0
F0E0
E0E0
E0F0
E000
E000
E000
E000
E000
E000
E000
E000
F000
7C00
3F00
1F00
0700
0700
0700
0700
ENDCHAR
STARTCHAR 0481
ENCODING 1153
SWIDTH 600 0
DWIDTH 15 0
BBX 12 18 2 -5
BITMAP
1F80
3FE0
79E0
70E0
F070
E000
E000
E000
F000
7000
7800
3F00
1F00
0700
0700
0700
0700
0700
ENDCHAR
STARTCHAR 0482
ENCODING 1154
SWIDTH 600 0
DWIDTH 15 0
BBX 13 16 1 0
BITMAP
0030
0060
0C60
0FC0
03C0
01E0
01F8
4318
E600
7E00
1C00
0F00
1BC0
1880
3000
7000
ENDCHAR
STARTCHAR 0483
ENCODING 1155
SWIDTH 600 0
DWIDTH 15 0
BBX 8 5 -6 14
BITMAP
03
03
FF
C0
C0
ENDCHAR
STARTCHAR 0484
ENCODING 1156
SWIDTH 600 0
DWIDTH 15 0
BBX 10 3 -7 16
BITMAP
0F80
FF80
F0C0
ENDCHAR
STARTCHAR 0485
ENCODING 1157
SWIDTH 600 0
DWIDTH 15 0
BBX 3 4 -4 16
BITMAP
C0
C0
60
20
ENDCHAR
STARTCHAR 0486
ENCODING 1158
SWIDTH 600 0
DWIDTH 15 0
BBX 3 4 -4 16
BITMAP
60
60
C0
C0
ENDCHAR
STARTCHAR 0488
ENCODING 1160
SWIDTH 600 0
DWIDTH 15 0
BBX 23 22 -4 -4
BITMAP
003800
006C00
004400
000000
3E0078
2200C8
000000
000000
000000
000000
F0001E
980032
000000
000000
000000
000000
1C0070
3600D8
000000
000000
007C00
004400
ENDCHAR
STARTCHAR 0489
ENCODING 1161
SWIDTH 600 0
DWIDTH 15 0
BBX 23 23 -4 -5
BITMAP
000800
001800
001000
083000
0C0030
0400E0
0600C0
040000
000000
000000
C00010
70001C
100006
000000
000000
000000
000040
0600C0
1C0060
101820
001020
001000
003000
ENDCHAR
STARTCHAR 048A
ENCODING 1162
SWIDTH 600 0
DWIDTH 15 0
BBX 15 28 1 -5
BITMAP
18E0
18E0
1FC0
0780
0000
F070
F0F0
F0F0
F0F0
F1F0
F1F0
F3F0
F370
F770
F770
FE70
FE70
FC70
FC70
F870
F87E
F07E
F07E
001C
001C
001C
0038
0010
ENDCHAR
STARTCHAR 048B
ENCODING 1163
SWIDTH 600 0
DWIDTH 15 0
BBX 14 24 2 -5
BITMAP
31C0
31C0
3F80
0F00
0000
0000
E0E0
E1E0
E3E0
E3E0
E7E0
E6E0
EEE0
FCE0
F8E0
F8E0
F0FC
F0FC
E0FC
0038
0038
0038
0070
0020
ENDCHAR
STARTCHAR 048C
ENCODING 1164
SWIDTH 600 0
DWIDTH 15 0
BBX 15 18 -1 0
BITMAP
1C00
1C00
1C00
FF80
FF80
1C00
1C00
1FE0
1FF8
1FFC
1C1C
1C1E
1C1E
1C1C
1C1C
1FFC
1FF8
1FE0
ENDCHAR
STARTCHAR 048D
ENCODING 1165
SWIDTH 600 0
DWIDTH 15 0
BBX 14 13 0 0
BITMAP
3800
FF80
FF80
3800
3F80
3FF0
3FF8
383C
381C
381C
3FF8
3FF8
3FE0
ENDCHAR
STARTCHAR 048E
ENCODING 1166
SWIDTH 600 0
DWIDTH 15 0
BBX 12 18 2 0
BITMAP
FF00
FFC0
FFE0
E0F0
E070
E070
E270
E770
E3F0
FFE0
FFC0
E0C0
E070
E020
E000
E000
E000
E000
ENDCHAR
STARTCHAR 048F
ENCODING 1167
SWIDTH 600 0
DWIDTH 15 0
BBX 12 18 2 -5
BITMAP
EF80
FFC0
F1E0
E0E0
E0E0
E0F0
E0F0
E0E0
E6E0
E3E0
F3E0
FFC0
EFE0
E060
E000
E000
E000
E000
ENDCHAR
STARTCHAR 0490
ENCODING 1168
SWIDTH 600 0
DWIDTH 15 0
BBX 12 22 2 0
BITMAP
0070
0070
0070
0070
FFF0
FFF0
FFF0
E000
E000
E000
E000
E000
E000
E000
E000
E000
E000
E000
E000
E000
E000
E000
ENDCHAR
STARTCHAR 0491
ENCODING 1169
SWIDTH 600 0
DWIDTH 15 0
BBX 12 17 2 0
BITMAP
00F0
00F0
00F0
00F0
FFF0
FFF0
E000
E000
E000
E000
E000
E000
E000
E000
E000
E000
E000
ENDCHAR
STARTCHAR 0492
ENCODING 1170
SWIDTH 600 0
DWIDTH 15 0
BBX 13 18 0 0
BITMAP
3FF8
3FF8
3FF8
3800
3800
3800
3800
3800
FF00
FF00
3800
3800
3800
3800
3800
3800
3800
3800
ENDCHAR
STARTCHAR 0493
ENCODING 1171
SWIDTH 600 0
DWIDTH 15 0
BBX 13 13 0 0
BITMAP
3FF8
3FF8
3800
3800
3800
FF00
FF00
3800
3800
3800
3800
3800
3800
ENDCHAR
STARTCHAR 0494
ENCODING 1172
SWIDTH 600 0
DWIDTH 15 0
BBX 13 22 2 -4
BITMAP
FFE0
FFE0
FFE0
E000
E000
E000
E000
E000
FF80
FFC0
E3E0
E0F0
E070
E070
E078
E070
E070
E070
00F0
03E0
03C0
0380
ENDCHAR
STARTCHAR 0495
ENCODING 1173
SWIDTH 600 0
DWIDTH 15 0
BBX 12 16 2 -3
BITMAP
FFE0
FFE0
E000
E000
E000
FF00
FFC0
FFE0
E0F0
E070
E070
E070
E0F0
00E0
03E0
0180
ENDCHAR
STARTCHAR 0496
ENCODING 1174
SWIDTH 600 0
DWIDTH 15 0
BBX 16 22 0 -4
BITMAP
F39E
739C
739C
73B8
3BB8
3BB8
3BB0
1BB0
1FF0
1FF0
3FF0
3BB8
3BB8
7BB8
73BC
739C
F39F
F39F
0007
0007
0007
0007
ENDCHAR
STARTCHAR 0497
ENCODING 1175
SWIDTH 600 0
DWIDTH 15 0
BBX 16 17 0 -4
BITMAP
739C
73BC
3BB8
3BB8
1BF0
1FF0
1FF0
1FF0
3BB8
3BB8
73BC
739F
F39F
0007
0007
0007
0007
ENDCHAR
STARTCHAR 0498
ENCODING 1176
SWIDTH 600 0
DWIDTH 15 0
BBX 13 24 1 -6
BITMAP
0FC0
3FE0
7FF0
F078
E038
0038
0078
00F0
0FE0
0FE0
00F0
0038
0038
E038
F038
78F8
7FF0
1FC0
0700
0700
0700
0700
0700
0700
ENDCHAR
STARTCHAR 0499
ENCODING 1177
SWIDTH 600 0
DWIDTH 15 0
BBX 13 19 1 -6
BITMAP
1FE0
7FF0
7070
7070
0070
0FE0
0FE0
00F0
0078
F078
78F0
7FF0
1FC0
0700
0700
0700
0700
0700
0700
ENDCHAR
STARTCHAR 049A
ENCODING 1178
SWIDTH 600 0
DWIDTH 15 0
BBX 13 22 2 -4
BITMAP
E078
E0F0
E0E0
E1E0
E3C0
E380
E780
EF00
FE00
FF00
FF00
E780
E380
E3C0
E1E0
E0E0
E0F8
E078
0038
0038
0038
0038
ENDCHAR
STARTCHAR 049B
ENCODING 1179
SWIDTH 600 0
DWIDTH 15 0
BBX 14 17 2 -4
BITMAP
E0F0
E1E0
E3C0
E3C0
E780
FF00
FF00
FF80
E780
E3C0
E1E0
E0FC
E0FC
001C
001C
001C
001C
ENDCHAR
STARTCHAR 049C
ENCODING 1180
SWIDTH 600 0
DWIDTH 15 0
BBX 14 18 2 0
BITMAP
E078
E078
E0F0
E0F0
E0E0
EDE0
EDC0
EFC0
FF80
FFC0
EFC0
EDE0
EDE0
E0F0
E0F0
E078
E078
E07C
ENDCHAR
STARTCHAR 049D
ENCODING 1181
SWIDTH 600 0
DWIDTH 15 0
BBX 13 13 2 0
BITMAP
E0F0
E0E0
E1E0
EDC0
EFC0
FF80
FF80
FF80
EFC0
EDE0
E1E0
E0F0
E0F8
ENDCHAR
STARTCHAR 049E
ENCODING 1182
SWIDTH 600 0
DWIDTH 15 0
BBX 15 18 0 0
BITMAP
381E
383C
FF38
FF78
38F0
38E0
39E0
39C0
3F80
3FC0
3FC0
39E0
38F0
3870
3878
3838
383C
381E
ENDCHAR
STARTCHAR 049F
ENCODING 1183
SWIDTH 600 0
DWIDTH 15 0
BBX 15 19 0 0
BITMAP
3800
3800
FF00
FF00
3800
3804
3878
38F0
38E0
39C0
3BC0
3F80
3FC0
3FC0
3DE0
38F0
3878
3838
383E
ENDCHAR
STARTCHAR 04A0
ENCODING 1184
SWIDTH 600 0
DWIDTH 15 0
BBX 15 18 0 0
BITMAP
FE1C
FE3C
FE38
0E38
0E78
0E70
0EF0
0FE0
0FE0
0FE0
0FF0
0EF0
0E70
0E78
0E38
0E3C
0E1C
0E1E
ENDCHAR
STARTCHAR 04A1
ENCODING 1185
SWIDTH 600 0
DWIDTH 15 0
BBX 15 13 0 0
BITMAP
FE3E
FE3C
FE78
0E70
0E70
0FE0
0FE0
0FF0
0E70
0E78
0E3C
0E3C
0E3E
ENDCHAR
STARTCHAR 04A2
ENCODING 1186
SWIDTH 600 0
DWIDTH 15 0
BBX 13 22 2 -4
BITMAP
E0E0
E0E0
E0E0
E0E0
E0E0
E0E0
E0E0
E0E0
FFE0
FFE0
E0E0
E0E0
E0E0
E0E0
E0E0
E0E0
E0F8
E0F8
0038
0038
0038
0038
ENDCHAR
STARTCHAR 04A3
ENCODING 1187
SWIDTH 600 0
DWIDTH 15 0
BBX 13 17 2 -4
BITMAP
E0E0
E0E0
E0E0
E0E0
E0E0
FFE0
FFE0
FFE0
E0E0
E0E0
E0E0
E0F8
E0F8
0038
0038
0038
0038
ENDCHAR
STARTCHAR 04A4
ENCODING 1188
SWIDTH 600 0
DWIDTH 15 0
BBX 14 18 1 0
BITMAP
E3FC
E3FC
E3FC
E3C0
E3C0
E3C0
E3C0
E3C0
FFC0
FFC0
E3C0
E3C0
E3C0
E3C0
E3C0
E3C0
E3C0
E3C0
ENDCHAR
STARTCHAR 04A5
ENCODING 1189
SWIDTH 600 0
DWIDTH 15 0
BBX 14 13 1 0
BITMAP
E1FC
E1FC
E1FC
E1C0
E1C0
FFC0
FFC0
FFC0
E1C0
E1C0
E1C0
E1C0
E1C0
ENDCHAR
STARTCHAR 04A6
ENCODING 1190
SWIDTH 600 0
DWIDTH 15 0
BBX 14 22 1 -4
BITMAP
FF00
FF00
FF00
E700
E700
E700
E700
E700
E7E0
E7F0
E7F8
E738
E738
E738
E73C
E73C
E738
E738
0038
0078
00F0
00E0
ENDCHAR
STARTCHAR 04A7
ENCODING 1191
SWIDTH 600 0
DWIDTH 15 0
BBX 13 16 1 -3
BITMAP
FF00
FF00
FF00
E700
E700
E7E0
E7F0
E7F8
E738
E738
E738
E738
E738
0078
00F0
0060
ENDCHAR
STARTCHAR 04A8
ENCODING 1192
SWIDTH 600 0
DWIDTH 15 0
BBX 13 18 1 0
BITMAP
19E0
3BF0
7BF0
7738
F738
E738
E738
E738
E738
E738
E738
E738
F7B8
73F8
7BF0
7DF0
3FF8
0FF8
ENDCHAR
STARTCHAR 04A9
ENCODING 1193
SWIDTH 600 0
DWIDTH 15 0
BBX 14 13 1 0
BITMAP
39F0
7BF8
F338
E738
E73C
E73C
E73C
E73C
F338
F3F8
7DF0
3FFC
1FFC
ENDCHAR
STARTCHAR 04AA
ENCODING 1194
SWIDTH 600 0
DWIDTH 15 0
BBX 13 24 1 -6
BITMAP
0F80
3FE0
3FF0
7070
7078
E038
E000
E000
E000
E000
E000
E000
E038
F038
7070
7CF0
3FE0
1FC0
0700
0700
0700
0700
0700
0700
ENDCHAR
STARTCHAR 04AB
ENCODING 1195
SWIDTH 600 0
DWIDTH 15 0
BBX 12 19 1 -6
BITMAP
1FC0
3FE0
78F0
7070
7070
7000
F000
7000
7000
7070
7CF0
3FE0
1FC0
0700
0700
0700
0700
0700
0700
ENDCHAR
STARTCHAR 04AC
ENCODING 1196
SWIDTH 600 0
DWIDTH 15 0
BBX 15 22 0 -4
BITMAP
FFFE
FFFE
FFFE
0380
0380
0380
0380
0380
0380
0380
0380
0380
0380
0380
0380
0380
03E0
03E0
00E0
00E0
00E0
00E0
ENDCHAR
STARTCHAR 04AD
ENCODING 1197
SWIDTH 600 0
DWIDTH 15 0
BBX 14 17 1 -4
BITMAP
FFFC
FFFC
0700
0700
0700
0700
0700
0700
0700
0700
0700
07C0
07C0
01C0
01C0
01C0
01C0
ENDCHAR
STARTCHAR 04AE
ENCODING 1198
SWIDTH 600 0
DWIDTH 15 0
BBX 15 18 0 0
BITMAP
F01E
781C
383C
3838
1C78
1C70
1E70
0EE0
0FE0
07C0
07C0
0380
0380
0380
0380
0380
0380
0380
ENDCHAR
STARTCHAR 04AF
ENCODING 1199
SWIDTH 600 0
DWIDTH 15 0
BBX 14 18 1 -5
BITMAP
E03C
F038
7070
7070
3870
38E0
38E0
1CC0
1DC0
0FC0
0F80
0780
0700
0700
0700
0700
0700
0700
ENDCHAR
STARTCHAR 04B0
ENCODING 1200
SWIDTH 600 0
DWIDTH 15 0
BBX 15 18 0 0
BITMAP
F01E
781C
383C
3838
1C78
1C70
1E70
0EE0
0FE0
1FF0
1FF0
1FF0
0380
0380
0380
0380
0380
0380
ENDCHAR
STARTCHAR 04B1
ENCODING 1201
SWIDTH 600 0
DWIDTH 15 0
BBX 14 18 1 -5
BITMAP
E03C
F038
7070
7070
3870
38E0
38E0
1CC0
1DC0
0FC0
0F80
1FE0
1FE0
0700
0700
0700
0700
0700
ENDCHAR
STARTCHAR 04B2
ENCODING 1202
SWIDTH 600 0
DWIDTH 15 0
BBX 14 22 1 -4
BITMAP
F03C
F078
7870
78F0
3CE0
1DE0
1FC0
0FC0
0F80
0F80
0F80
1FC0
1DE0
3CE0
38F0
7870
F07C
F03C
001C
001C
001C
001C
ENDCHAR
STARTCHAR 04B3
ENCODING 1203
SWIDTH 600 0
DWIDTH 15 0
BBX 13 17 1 -4
BITMAP
F078
7870
3CE0
1DE0
0FC0
0F80
0780
0FC0
1FC0
1DE0
38F0
7878
F038
0038
0038
0038
0038
ENDCHAR
STARTCHAR 04B4
ENCODING 1204
SWIDTH 600 0
DWIDTH 15 0
BBX 15 22 0 -4
BITMAP
FFB8
FFB8
FFB8
1C38
1C38
1C38
1C38
1C38
1C38
1C38
1C38
1C38
1C38
1C38
1C38
1FFE
1FFE
1FFE
000E
000E
000E
000E
ENDCHAR
STARTCHAR 04B5
ENCODING 1205
SWIDTH 600 0
DWIDTH 15 0
BBX 15 17 0 -4
BITMAP
FF38
FF38
1F38
1C38
1C38
1C38
1C38
1C38
1C38
1C38
1FFE
1FFE
1FFE
001E
001E
001E
001C
ENDCHAR
STARTCHAR 04B6
ENCODING 1206
SWIDTH 600 0
DWIDTH 15 0
BBX 13 22 2 -4
BITMAP
E0F0
E0F0
E0F0
E0F0
E0F0
E0F0
E0F0
E0F0
F0F0
7FF0
3FF0
04F0
00F0
00F0
00F0
00F0
00F8
00F8
0038
0038
0038
0038
ENDCHAR
STARTCHAR 04B7
ENCODING 1207
SWIDTH 600 0
DWIDTH 15 0
BBX 13 17 2 -4
BITMAP
E0F0
E0F0
E0F0
E0F0
E0F0
E0F0
FFF0
7FF0
1FF0
00F0
00F0
00F8
00F8
0038
0038
0038
0038
ENDCHAR
STARTCHAR 04B8
ENCODING 1208
SWIDTH 600 0
DWIDTH 15 0
BBX 11 18 2 0
BITMAP
E0E0
E0E0
E0E0
E0E0
E0E0
ECE0
ECE0
ECE0
FCE0
7FE0
3FE0
0CE0
0CE0
0CE0
00E0
00E0
00E0
00E0
ENDCHAR
STARTCHAR 04B9
ENCODING 1209
SWIDTH 600 0
DWIDTH 15 0
BBX 12 13 1 0
BITMAP
F070
F070
F070
F670
F670
7670
7FF0
3FF0
0FF0
0670
0670
0070
0070
ENDCHAR
STARTCHAR 04BA
ENCODING 1210
SWIDTH 600 0
DWIDTH 15 0
BBX 12 18 2 0
BITMAP
E000
E000
E000
E000
E000
E000
E000
FF80
FFC0
FBE0
E0E0
E0F0
E0F0
E0F0
E0F0
E0F0
E0F0
E0F0
ENDCHAR
STARTCHAR 04BB
ENCODING 1211
SWIDTH 600 0
DWIDTH 15 0
BBX 11 19 2 0
BITMAP
E000
E000
E000
E000
E000
E000
EFC0
FFE0
F1E0
E0E0
E0E0
E0E0
E0E0
E0E0
E0E0
E0E0
E0E0
E0E0
E0E0
ENDCHAR
STARTCHAR 04BC
ENCODING 1212
SWIDTH 600 0
DWIDTH 15 0
BBX 14 18 0 0
BITMAP
03E0
07F0
0FF8
0E3C
1E1C
DC1C
DC1C
FFFC
7FFC
3FFC
1C00
1C00
1C00
1E00
0F00
0FF8
07F8
03F8
ENDCHAR
STARTCHAR 04BD
ENCODING 1213
SWIDTH 600 0
DWIDTH 15 0
BBX 14 13 0 0
BITMAP
03F0
07F8
EF3C
EE1C
6E1C
7FFC
3FFC
1E00
0E00
0F08
0FB8
07FC
03F0
ENDCHAR
STARTCHAR 04BE
ENCODING 1214
SWIDTH 600 0
DWIDTH 15 0
BBX 14 24 0 -6
BITMAP
03E0
07F0
0FF8
0E3C
1E1C
DC1C
DC1C
FFFC
7FFC
3FFC
1C00
1C00
1C00
1E00
0F00
0FF8
07F8
03F8
01C0
01C0
01C0
01C0
01C0
01C0
ENDCHAR
STARTCHAR 04BF
ENCODING 1215
SWIDTH 600 0
DWIDTH 15 0
BBX 14 19 0 -6
BITMAP
03F0
07F8
EF3C
EE1C
6E1C
7FFC
3FFC
1E00
0E00
0F08
0FB8
07FC
03F0
01C0
01C0
01C0
01C0
01C0
01C0
ENDCHAR
STARTCHAR 04C0
ENCODING 1216
SWIDTH 600 0
DWIDTH 15 0
BBX 11 18 2 0
BITMAP
FFE0
FFE0
FFE0
0E00
0E00
0E00
0E00
0E00
0E00
0E00
0E00
0E00
0E00
0E00
0E00
FFE0
FFE0
FFE0
ENDCHAR
STARTCHAR 04C1
ENCODING 1217
SWIDTH 600 0
DWIDTH 15 0
BBX 15 23 0 0
BITMAP
0C70
0C70
0FE0
03C0
0000
F39E
739C
739C
73B8
3BB8
3BB8
3BB0
1BB0
1FF0
1FF0
3FF0
3BB8
3BB8
7BB8
73BC
739C
F39C
F39E
ENDCHAR
STARTCHAR 04C2
ENCODING 1218
SWIDTH 600 0
DWIDTH 15 0
BBX 15 19 0 0
BITMAP
0C70
0C70
0FE0
03C0
0000
0000
739C
73BC
3BB8
3BB8
1BF0
1FF0
1FF0
1FF0
3BB8
3BB8
73BC
739C
F39E
ENDCHAR
STARTCHAR 04C3
ENCODING 1219
SWIDTH 600 0
DWIDTH 15 0
BBX 13 22 2 -4
BITMAP
E0F0
E0F0
E1E0
E1C0
E3C0
E380
E780
E700
FF80
FFE0
E3F0
E070
E070
E078
E038
E038
E078
E070
0070
01F0
03E0
0380
ENDCHAR
STARTCHAR 04C4
ENCODING 1220
SWIDTH 600 0
DWIDTH 15 0
BBX 12 17 2 -4
BITMAP
E1F0
E1E0
E3C0
E780
E700
FF00
FFC0
FFE0
E1E0
E0F0
E070
E070
E0E0
00E0
03C0
0180
0100
ENDCHAR
STARTCHAR 04C5
ENCODING 1221
SWIDTH 600 0
DWIDTH 15 0
BBX 16 23 1 -5
BITMAP
3FF0
3FF0
3FF0
3870
3870
3870
3870
3870
3870
3870
3870
3870
3870
3870
7870
F07F
F07F
C07F
000E
000E
000E
001C
0008
ENDCHAR
STARTCHAR 04C6
ENCODING 1222
SWIDTH 600 0
DWIDTH 15 0
BBX 16 18 0 -5
BITMAP
1FF8
1FF8
1C38
1C38
1C38
1C38
1C38
1C38
1C38
3C38
F83F
F83F
F03F
000E
000E
000E
001C
0008
ENDCHAR
STARTCHAR 04C7
ENCODING 1223
SWIDTH 600 0
DWIDTH 15 0
BBX 11 23 2 -5
BITMAP
E0E0
E0E0
E0E0
E0E0
E0E0
E0E0
E0E0
E0E0
FFE0
FFE0
FFE0
E0E0
E0E0
E0E0
E0E0
E0E0
E0E0
E0E0
00E0
00E0
01E0
07C0
0780
ENDCHAR
STARTCHAR 04C8
ENCODING 1224
SWIDTH 600 0
DWIDTH 15 0
BBX 11 18 2 -5
BITMAP
E0E0
E0E0
E0E0
E0E0
E0E0
FFE0
FFE0
FFE0
E0E0
E0E0
E0E0
E0E0
E0E0
00E0
00E0
01E0
07C0
0780
ENDCHAR
STARTCHAR 04C9
ENCODING 1225
SWIDTH 600 0
DWIDTH 15 0
BBX 14 23 2 -5
BITMAP
E0E0
E0E0
E0E0
E0E0
E0E0
E0E0
E0E0
E0E0
FFE0
FFE0
E0E0
E0E0
E0E0
E0E0
E0E0
E0FC
E0FC
E0FC
0038
0038
0038
0070
0020
ENDCHAR
STARTCHAR 04CA
ENCODING 1226
SWIDTH 600 0
DWIDTH 15 0
BBX 14 18 2 -5
BITMAP
E0E0
E0E0
E0E0
E0E0
E0E0
FFE0
FFE0
FFE0
E0E0
E0E0
E0FC
E0FC
E0FC
0038
0038
0038
0070
0020
ENDCHAR
STARTCHAR 04CB
ENCODING 1227
SWIDTH 600 0
DWIDTH 15 0
BBX 12 22 2 -4
BITMAP
E0F0
E0F0
E0F0
E0F0
E0F0
E0F0
E0F0
E0F0
F0F0
7FF0
3FF0
04F0
00F0
00F0
00F0
00F0
03F0
03F0
0380
0380
0380
0380
ENDCHAR
STARTCHAR 04CC
ENCODING 1228
SWIDTH 600 0
DWIDTH 15 0
BBX 12 17 2 -4
BITMAP
E0F0
E0F0
E0F0
E0F0
E0F0
E0F0
FFF0
7FF0
1FF0
00F0
00F0
03F0
03F0
0380
0380
0380
0380
ENDCHAR
STARTCHAR 04CD
ENCODING 1229
SWIDTH 600 0
DWIDTH 15 0
BBX 15 23 2 -5
BITMAP
F0F0
F1F0
F1F0
F1F0
FBF0
DB70
DB70
DF70
CE70
EE70
EE70
EE70
E070
E070
E070
E07E
E07E
E07E
001C
001C
001C
0038
0010
ENDCHAR
STARTCHAR 04CE
ENCODING 1230
SWIDTH 600 0
DWIDTH 15 0
BBX 16 18 1 -5
BITMAP
F8F0
F8F0
F8F0
F8F0
F9F0
FDF0
EDB0
EDB0
EDB0
EF30
E73F
E73F
E73F
000E
000E
000E
001C
0008
ENDCHAR
STARTCHAR 04CF
ENCODING 1231
SWIDTH 600 0
DWIDTH 15 0
BBX 11 18 2 0
BITMAP
FFE0
FFE0
FFE0
0E00
0E00
0E00
0E00
0E00
0E00
0E00
0E00
0E00
0E00
0E00
0E00
FFE0
FFE0
FFE0
ENDCHAR
STARTCHAR 04D0
ENCODING 1232
SWIDTH 600 0
DWIDTH 15 0
BBX 15 23 0 0
BITMAP
0C70
0C70
0FE0
03C0
0000
0380
03C0
03C0
07C0
07E0
06E0
0EE0
0E60
0E70
1C70
1C70
1FF8
3FF8
3FF8
381C
781C
701C
F01E
ENDCHAR
STARTCHAR 04D1
ENCODING 1233
SWIDTH 600 0
DWIDTH 15 0
BBX 11 19 2 0
BITMAP
31C0
31C0
3F80
0F00
0000
0000
3F80
7FC0
E1E0
E0E0
00E0
3FE0
7FE0
E0E0
E0E0
E0E0
F3E0
FFE0
7EE0
ENDCHAR
STARTCHAR 04D2
ENCODING 1234
SWIDTH 600 0
DWIDTH 15 0
BBX 15 22 0 0
BITMAP
0C70
1C70
0C20
0000
0380
03C0
03C0
07C0
07E0
06E0
0EE0
0E60
0E70
1C70
1C70
1FF8
3FF8
3FF8
381C
781C
701C
F01E
ENDCHAR
STARTCHAR 04D3
ENCODING 1235
SWIDTH 600 0
DWIDTH 15 0
BBX 11 18 2 0
BITMAP
31C0
71C0
3080
0000
0000
3F80
7FC0
E1E0
E0E0
00E0
3FE0
7FE0
E0E0
E0E0
E0E0
F3E0
FFE0
7EE0
ENDCHAR
STARTCHAR 04D4
ENCODING 1236
SWIDTH 600 0
DWIDTH 15 0
BBX 13 18 1 0
BITMAP
03F8
07F8
07F8
0FC0
0FC0
0DC0
1DC0
1DC0
1DF8
39F8
39C0
3FC0
7FC0
7FC0
71C0
F1F8
E1F8
E1F8
ENDCHAR
STARTCHAR 04D5
ENCODING 1237
SWIDTH 600 0
DWIDTH 15 0
BBX 14 13 1 0
BITMAP
7FF0
FFF8
E738
071C
071C
3FFC
7FFC
F700
E700
E700
E788
FFF8
7DF8
ENDCHAR
STARTCHAR 04D6
ENCODING 1238
SWIDTH 600 0
DWIDTH 15 0
BBX 12 23 2 0
BITMAP
31C0
31C0
3F80
0F00
0000
FFF0
FFF0
FFF0
E000
E000
E000
E000
E000
FFC0
FFC0
E000
E000
E000
E000
E000
FFF0
FFF0
FFF0
ENDCHAR
STARTCHAR 04D7
ENCODING 1239
SWIDTH 600 0
DWIDTH 15 0
BBX 13 19 1 0
BITMAP
18E0
18E0
1FC0
0780
0000
0000
1FC0
3FE0
78F0
7070
7038
FFF8
FFF8
F000
7000
7820
7CF0
3FF0
0FC0
ENDCHAR
STARTCHAR 04D8
ENCODING 1240
SWIDTH 600 0
DWIDTH 15 0
BBX 13 18 1 0
BITMAP
1F80
7FC0
3FE0
20F0
0070
0078
0038
0038
FFF8
FFF8
FFF8
E038
E078
E070
7070
7DE0
3FE0
1F80
ENDCHAR
STARTCHAR 04D9
ENCODING 1241
SWIDTH 600 0
DWIDTH 15 0
BBX 12 13 2 0
BITMAP
7F80
FFC0
61E0
00E0
00F0
FFF0
FFF0
FFF0
E0F0
E0E0
79E0
7FC0
1F80
ENDCHAR
STARTCHAR 04DA
ENCODING 1242
SWIDTH 600 0
DWIDTH 15 0
BBX 13 22 1 0
BITMAP
18E0
38E0
1840
0000
1F80
7FC0
3FE0
20F0
0070
0078
0038
0038
FFF8
FFF8
FFF8
E038
E078
E070
7070
7DE0
3FE0
1F80
ENDCHAR
STARTCHAR 04DB
ENCODING 1243
SWIDTH 600 0
DWIDTH 15 0
BBX 12 18 2 0
BITMAP
31C0
71C0
3080
0000
0000
7F80
FFC0
61E0
00E0
00F0
FFF0
FFF0
FFF0
E0F0
E0E0
79E0
7FC0
1F80
ENDCHAR
STARTCHAR 04DC
ENCODING 1244
SWIDTH 600 0
DWIDTH 15 0
BBX 15 22 0 0
BITMAP
0C70
1C70
0C20
0000
F39E
739C
739C
73B8
3BB8
3BB8
3BB0
1BB0
1FF0
1FF0
3FF0
3BB8
3BB8
7BB8
73BC
739C
F39C
F39E
ENDCHAR
STARTCHAR 04DD
ENCODING 1245
SWIDTH 600 0
DWIDTH 15 0
BBX 15 18 0 0
BITMAP
0C70
1C70
0C20
0000
0000
739C
73BC
3BB8
3BB8
1BF0
1FF0
1FF0
1FF0
3BB8
3BB8
73BC
739C
F39E
ENDCHAR
STARTCHAR 04DE
ENCODING 1246
SWIDTH 600 0
DWIDTH 15 0
BBX 13 22 1 0
BITMAP
18E0
38E0
1840
0000
0FC0
3FE0
7FF0
F078
E038
0038
0078
00F0
0FE0
0FE0
00F0
0038
0038
E038
F038
78F8
7FF0
1FC0
ENDCHAR
STARTCHAR 04DF
ENCODING 1247
SWIDTH 600 0
DWIDTH 15 0
BBX 13 18 1 0
BITMAP
18E0
38E0
1840
0000
0000
1FE0
7FF0
7070
7070
0070
0FE0
0FE0
00F0
0078
F078
78F0
7FF0
1FC0
ENDCHAR
STARTCHAR 04E0
ENCODING 1248
SWIDTH 600 0
DWIDTH 15 0
BBX 12 18 2 0
BITMAP
FFF0
FFF0
FFE0
01C0
03C0
0780
0F00
0E00
0FC0
0FE0
00F0
0070
0070
E070
E0F0
F9E0
7FE0
3F80
ENDCHAR
STARTCHAR 04E1
ENCODING 1249
SWIDTH 600 0
DWIDTH 15 0
BBX 13 18 1 -5
BITMAP
7FF0
7FF0
0070
00E0
01C0
0380
0700
0FC0
0FE0
00F0
0078
0038
0038
F038
7070
7FF0
3FE0
0F80
ENDCHAR
STARTCHAR 04E2
ENCODING 1250
SWIDTH 600 0
DWIDTH 15 0
BBX 12 22 1 0
BITMAP
3FE0
3FE0
0000
0000
F070
F0F0
F0F0
F0F0
F1F0
F1F0
F3F0
F370
F770
F770
FE70
FE70
FC70
FC70
F870
F870
F070
F070
ENDCHAR
STARTCHAR 04E3
ENCODING 1251
SWIDTH 600 0
DWIDTH 15 0
BBX 11 18 2 0
BITMAP
7FC0
7FC0
0000
0000
0000
E0E0
E1E0
E3E0
E3E0
E7E0
E6E0
EEE0
FCE0
F8E0
F8E0
F0E0
F0E0
E0E0
ENDCHAR
STARTCHAR 04E4
ENCODING 1252
SWIDTH 600 0
DWIDTH 15 0
BBX 12 22 1 0
BITMAP
31C0
71C0
3080
0000
F070
F0F0
F0F0
F0F0
F1F0
F1F0
F3F0
F370
F770
F770
FE70
FE70
FC70
FC70
F870
F870
F070
F070
ENDCHAR
STARTCHAR 04E5
ENCODING 1253
SWIDTH 600 0
DWIDTH 15 0
BBX 11 18 2 0
BITMAP
6380
E380
6100
0000
0000
E0E0
E1E0
E3E0
E3E0
E7E0
E6E0
EEE0
FCE0
F8E0
F8E0
F0E0
F0E0
E0E0
ENDCHAR
STARTCHAR 04E6
ENCODING 1254
SWIDTH 600 0
DWIDTH 15 0
BBX 13 23 1 0
BITMAP
18E0
38E0
1840
0000
0000
0F80
3FE0
3FE0
70F0
7070
E078
E038
E038
E038
E038
E038
E038
E078
F070
7070
7DF0
3FE0
1F80
ENDCHAR
STARTCHAR 04E7
ENCODING 1255
SWIDTH 600 0
DWIDTH 15 0
BBX 13 18 1 0
BITMAP
18E0
38E0
1840
0000
0000
1FC0
3FE0
78F0
7070
F070
E078
E038
F078
7070
7070
7DF0
3FE0
1FC0
ENDCHAR
STARTCHAR 04E8
ENCODING 1256
SWIDTH 600 0
DWIDTH 15 0
BBX 13 18 1 0
BITMAP
0F80
3FC0
7FE0
70F0
7070
E078
E038
E038
FFF8
FFF8
E038
E038
E078
F070
7070
7DF0
3FE0
1F80
ENDCHAR
STARTCHAR 04E9
ENCODING 1257
SWIDTH 600 0
DWIDTH 15 0
BBX 13 13 1 0
BITMAP
1FC0
3FE0
78F0
7070
F070
FFF8
FFF8
E070
F070
7070
79F0
3FE0
1F80
ENDCHAR
STARTCHAR 04EA
ENCODING 1258
SWIDTH 600 0
DWIDTH 15 0
BBX 13 22 1 0
BITMAP
18E0
38E0
1840
0000
0F80
3FC0
7FE0
70F0
7070
E078
E038
E038
FFF8
FFF8
E038
E038
E078
F070
7070
7DF0
3FE0
1F80
ENDCHAR
STARTCHAR 04EB
ENCODING 1259
SWIDTH 600 0
DWIDTH 15 0
BBX 13 18 1 0
BITMAP
31C0
71C0
3080
0000
0000
1FC0
3FE0
78F0
7070
F070
FFF8
FFF8
E070
F070
7070
79F0
3FE0
1F80
ENDCHAR
STARTCHAR 04EC
ENCODING 1260
SWIDTH 600 0
DWIDTH 15 0
BBX 12 22 1 0
BITMAP
31C0
71C0
3080
0000
1F80
3FC0
7FE0
F0F0
E070
E070
0070
0070
0FF0
0FF0
0070
0070
E070
E070
E0F0
F9E0
7FC0
1F80
ENDCHAR
STARTCHAR 04ED
ENCODING 1261
SWIDTH 600 0
DWIDTH 15 0
BBX 12 18 1 0
BITMAP
18E0
38E0
1840
0000
0000
1FC0
7FE0
78F0
F070
0070
07F0
07F0
0070
E070
7070
79E0
3FE0
1F80
ENDCHAR
STARTCHAR 04EE
ENCODING 1262
SWIDTH 600 0
DWIDTH 15 0
BBX 15 22 0 0
BITMAP
1FF0
1FF0
0000
0000
F01E
701C
781C
383C
3C38
1C78
1C70
0E70
0EE0
07E0
07E0
03C0
03C0
0380
0380
4F00
7F00
7C00
ENDCHAR
STARTCHAR 04EF
ENCODING 1263
SWIDTH 600 0
DWIDTH 15 0
BBX 14 23 1 -5
BITMAP
3FE0
3FE0
0000
0000
0000
E03C
F038
7078
7870
38F0
38E0
1CE0
1DC0
0FC0
0FC0
0F80
0780
0700
0700
0E00
1E00
7C00
7800
ENDCHAR
STARTCHAR 04F0
ENCODING 1264
SWIDTH 600 0
DWIDTH 15 0
BBX 15 22 0 0
BITMAP
0C70
1C70
0C20
0000
F01E
701C
781C
383C
3C38
1C78
1C70
0E70
0EE0
07E0
07E0
03C0
03C0
0380
0380
4F00
7F00
7C00
ENDCHAR
STARTCHAR 04F1
ENCODING 1265
SWIDTH 600 0
DWIDTH 15 0
BBX 14 23 1 -5
BITMAP
18E0
38E0
1840
0000
0000
E03C
F038
7078
7870
38F0
38E0
1CE0
1DC0
0FC0
0FC0
0F80
0780
0700
0700
0E00
1E00
7C00
7800
ENDCHAR
STARTCHAR 04F2
ENCODING 1266
SWIDTH 600 0
DWIDTH 15 0
BBX 15 23 0 0
BITMAP
01DE
03B8
0330
06E0
0000
F01E
701C
781C
383C
3C38
1C78
1C70
0E70
0EE0
07E0
07E0
03C0
03C0
0380
0380
4F00
7F00
7C00
ENDCHAR
STARTCHAR 04F3
ENCODING 1267
SWIDTH 600 0
DWIDTH 15 0
BBX 14 24 1 -5
BITMAP
03BC
0770
0660
0DC0
0000
0000
E03C
F038
7078
7870
38F0
38E0
1CE0
1DC0
0FC0
0FC0
0F80
0780
0700
0700
0E00
1E00
7C00
7800
ENDCHAR
STARTCHAR 04F4
ENCODING 1268
SWIDTH 600 0
DWIDTH 15 0
BBX 12 22 2 0
BITMAP
6380
E380
6100
0000
E0F0
E0F0
E0F0
E0F0
E0F0
E0F0
E0F0
E0F0
F0F0
7FF0
3FF0
04F0
00F0
00F0
00F0
00F0
00F0
00F0
ENDCHAR
STARTCHAR 04F5
ENCODING 1269
SWIDTH 600 0
DWIDTH 15 0
BBX 12 18 2 0
BITMAP
31C0
71C0
3080
0000
0000
E0F0
E0F0
E0F0
E0F0
E0F0
E0F0
FFF0
7FF0
1FF0
00F0
00F0
00F0
00F0
ENDCHAR
STARTCHAR 04F6
ENCODING 1270
SWIDTH 600 0
DWIDTH 15 0
BBX 11 22 2 -4
BITMAP
FFE0
FFE0
FFE0
E000
E000
E000
E000
E000
E000
E000
E000
E000
E000
E000
E000
E000
F800
F800
3800
3800
3800
3800
ENDCHAR
STARTCHAR 04F7
ENCODING 1271
SWIDTH 600 0
DWIDTH 15 0
BBX 11 17 2 -4
BITMAP
FFE0
FFE0
E000
E000
E000
E000
E000
E000
E000
E000
E000
F000
F000
7000
7000
7000
7000
ENDCHAR
STARTCHAR 04F8
ENCODING 1272
SWIDTH 600 0
DWIDTH 15 0
BBX 13 22 1 0
BITMAP
31C0
71C0
3080
0000
E038
E038
E038
E038
E038
E038
E038
F038
FE38
FF38
E738
E7B8
E3B8
E7B8
E738
EF38
FE38
FC38
ENDCHAR
STARTCHAR 04F9
ENCODING 1273
SWIDTH 600 0
DWIDTH 15 0
BBX 13 18 1 0
BITMAP
18E0
38E0
1840
0000
0000
E038
E038
E038
E038
E038
FE38
FF38
E738
E3B8
E3B8
EF38
FF38
FC38
ENDCHAR
STARTCHAR 04FA
ENCODING 1274
SWIDTH 600 0
DWIDTH 15 0
BBX 13 23 1 -5
BITMAP
3FF8
3FF8
3FF8
3800
3800
3800
3800
3800
FF00
FF00
3800
3800
3800
3800
3800
3F00
3F00
3F00
0700
0700
0F00
3E00
3C00
ENDCHAR
STARTCHAR 04FB
ENCODING 1275
SWIDTH 600 0
DWIDTH 15 0
BBX 13 18 1 -5
BITMAP
3FF8
3FF8
3800
3800
3800
FF00
FF00
3800
3800
3800
3E00
3E00
3E00
0E00
0E00
1E00
7C00
7800
ENDCHAR
STARTCHAR 04FC
ENCODING 1276
SWIDTH 600 0
DWIDTH 15 0
BBX 15 23 1 -5
BITMAP
F03C
F078
7870
78F0
3CE0
1DE0
1FC0
0FC0
0F80
0F80
0F80
1FC0
1DE0
3CE0
38F0
787E
F07E
F03E
000E
000E
001E
007C
0078
ENDCHAR
STARTCHAR 04FD
ENCODING 1277
SWIDTH 600 0
DWIDTH 15 0
BBX 14 18 1 -5
BITMAP
F078
7870
3CE0
1DE0
0FC0
0F80
0780
0FC0
1FC0
1DE0
38FC
787C
F03C
001C
001C
003C
00F8
00F0
ENDCHAR
STARTCHAR 04FE
ENCODING 1278
SWIDTH 600 0
DWIDTH 15 0
BBX 14 18 1 0
BITMAP
F03C
F078
7870
78F0
3CE0
1DE0
1FC0
0FC0
1FE0
1FE0
0F80
1FC0
1DE0
3CE0
38F0
7870
F078
F03C
ENDCHAR
STARTCHAR 04FF
ENCODING 1279
SWIDTH 600 0
DWIDTH 15 0
BBX 13 13 1 0
BITMAP
F078
7870
3CE0
1DE0
0FC0
3FE0
3FE0
0FC0
1FC0
1DE0
38F0
7870
F038
ENDCHAR
STARTCHAR 0500
ENCODING 1280
SWIDTH 600 0
DWIDTH 15 0
BBX 12 18 1 0
BITMAP
0070
0070
0070
0070
0070
0070
0070
1FF0
7FF0
7870
F070
E070
E070
E070
F070
7FF0
3FF0
0FF0
ENDCHAR
STARTCHAR 0501
ENCODING 1281
SWIDTH 600 0
DWIDTH 15 0
BBX 12 19 1 0
BITMAP
0070
0070
0070
0070
0070
0070
1F70
3FF0
78F0
7070
7070
F070
F070
F070
7070
7070
7DF0
3FF0
1F70
ENDCHAR
STARTCHAR 0502
ENCODING 1282
SWIDTH 600 0
DWIDTH 15 0
BBX 14 18 1 0
BITMAP
0380
0380
0380
0380
0380
0380
03B8
3F9C
7F9C
739C
F39C
E39C
E39C
E39C
F3BC
7FF8
3FF8
1FE0
ENDCHAR
STARTCHAR 0503
ENCODING 1283
SWIDTH 600 0
DWIDTH 15 0
BBX 13 19 1 0
BITMAP
0780
0780
0780
0780
0780
0780
3F80
7F80
77B8
F7B8
E7B8
E7B8
E7B8
E7B8
E7B8
F3B8
77B8
7FF0
3DE0
ENDCHAR
STARTCHAR 0504
ENCODING 1284
SWIDTH 600 0
DWIDTH 15 0
BBX 13 18 1 0
BITMAP
F000
FC00
FE00
0F00
0700
0700
0F40
0E38
7C38
7838
7E38
0E38
0F38
0738
0738
0778
07F0
03E0
ENDCHAR
STARTCHAR 0505
ENCODING 1285
SWIDTH 600 0
DWIDTH 15 0
BBX 13 13 1 0
BITMAP
FC00
FE00
0F00
0700
0778
0E38
7C38
7F38
0738
0738
0738
07F0
03F0
ENDCHAR
STARTCHAR 0506
ENCODING 1286
SWIDTH 600 0
DWIDTH 15 0
BBX 13 23 2 -5
BITMAP
FC00
FF00
FF80
03C0
01C0
01C0
01C0
03C0
7F80
7E00
7F80
03C0
01C0
01C0
01C0
01F8
01F8
01F8
0038
0070
0070
00E0
0020
ENDCHAR
STARTCHAR 0507
ENCODING 1287
SWIDTH 600 0
DWIDTH 15 0
BBX 12 18 2 -5
BITMAP
FE00
FF80
0780
03C0
03C0
0380
7F00
7F80
0380
03C0
01F0
01F0
01F0
0070
0070
0060
00E0
0040
ENDCHAR
STARTCHAR 0508
ENCODING 1288
SWIDTH 600 0
DWIDTH 15 0
BBX 15 18 0 0
BITMAP
3FC0
3FC0
3FC0
39C0
39C0
39C0
39C0
39DC
39CC
39CE
39CE
39CE
39CE
39CC
39DC
F1DC
F1F8
E0F8
ENDCHAR
STARTCHAR 0509
ENCODING 1289
SWIDTH 600 0
DWIDTH 15 0
BBX 14 13 1 0
BITMAP
7F80
7F80
73B8
73B8
73B8
73B8
73BC
73B8
73B8
73B8
E3B8
E3F0
C1E0
ENDCHAR
STARTCHAR 050A
ENCODING 1290
SWIDTH 600 0
DWIDTH 15 0
BBX 14 18 1 0
BITMAP
E380
E380
E380
E380
E380
E380
E380
E3B8
FFB8
FFB8
FFBC
E3BC
E3B8
E3B8
E3B8
E3B8
E3F0
E1E0
ENDCHAR
STARTCHAR 050B
ENCODING 1291
SWIDTH 600 0
DWIDTH 15 0
BBX 13 13 1 0
BITMAP
E700
E700
E778
E738
E738
FF38
FF38
FF38
E738
E738
E7F8
E3F0
E1E0
ENDCHAR
STARTCHAR 050C
ENCODING 1292
SWIDTH 600 0
DWIDTH 15 0
BBX 13 18 1 0
BITMAP
0FC0
1FE0
3FE0
7800
7000
7000
F000
F000
F038
F038
F038
F038
F038
7038
7838
3CF8
1FF0
0FC0
ENDCHAR
STARTCHAR 050D
ENCODING 1293
SWIDTH 600 0
DWIDTH 15 0
BBX 12 13 2 0
BITMAP
1FC0
7FC0
7840
F000
E000
E000
E070
E070
E070
F070
7CF0
3FE0
1FC0
ENDCHAR
STARTCHAR 050E
ENCODING 1294
SWIDTH 600 0
DWIDTH 15 0
BBX 13 18 1 0
BITMAP
FFE0
FFE0
FFE0
0E00
0E00
0E00
0E00
0E38
0E38
0E38
0E38
0E38
0E38
0E38
0E38
0F78
07F0
03E0
ENDCHAR
STARTCHAR 050F
ENCODING 1295
SWIDTH 600 0
DWIDTH 15 0
BBX 13 13 1 0
BITMAP
FFE0
FFE0
1E00
1E00
1E70
1E38
1E38
1E38
1E38
1E38
0E70
0FF0
07E0
ENDCHAR
STARTCHAR 0510
ENCODING 1296
SWIDTH 600 0
DWIDTH 15 0
BBX 13 18 1 0
BITMAP
1F80
3FE0
7FF0
F070
E078
E000
F000
7800
3F80
3F80
7800
E000
E000
E038
F078
78F0
7FE0
1FC0
ENDCHAR
STARTCHAR 0511
ENCODING 1297
SWIDTH 600 0
DWIDTH 15 0
BBX 12 13 2 0
BITMAP
3FC0
FFE0
F0F0
E070
E000
7F80
3F80
F000
E000
E070
F0F0
7FE0
3FC0
ENDCHAR
STARTCHAR 0512
ENCODING 1298
SWIDTH 600 0
DWIDTH 15 0
BBX 15 23 1 -5
BITMAP
3FF0
3FF0
3FF0
3870
3870
3870
3870
3870
3870
3870
3870
3870
3870
3870
7870
F07E
F07E
C07E
000E
000E
001E
007C
0078
ENDCHAR
STARTCHAR 0513
ENCODING 1299
SWIDTH 600 0
DWIDTH 15 0
BBX 16 18 0 -5
BITMAP
1FF8
1FF8
1C38
1C38
1C38
1C38
1C38
1C38
1C38
3C38
F83F
F83F
F03F
0007
0007
000F
003E
003C
ENDCHAR
STARTCHAR 1E00
ENCODING 7680
SWIDTH 600 0
DWIDTH 15 0
BBX 15 23 0 -5
BITMAP
0380
03C0
03C0
07C0
07E0
06E0
0EE0
0E60
0E70
1C70
1C70
1FF8
3FF8
3FF8
381C
781C
701C
F01E
0000
0380
0680
0380
0100
ENDCHAR
STARTCHAR 1E01
ENCODING 7681
SWIDTH 600 0
DWIDTH 15 0
BBX 11 18 2 -5
BITMAP
3F80
7FC0
E1E0
E0E0
00E0
3FE0
7FE0
E0E0
E0E0
E0E0
F3E0
FFE0
7EE0
0000
1C00
3400
1C00
0800
ENDCHAR
STARTCHAR 1E3E
ENCODING 7742
SWIDTH 600 0
DWIDTH 15 0
BBX 12 22 2 0
BITMAP
03C0
0700
0E00
0000
F0F0
F1F0
F1F0
F1F0
FBF0
DB70
DB70
DF70
CE70
EE70
EE70
EE70
E070
E070
E070
E070
E070
E070
ENDCHAR
STARTCHAR 1E3F
ENCODING 7743
SWIDTH 600 0
DWIDTH 15 0
BBX 13 18 1 0
BITMAP
00F0
01C0
0380
0000
0000
FEF0
FFF8
E738
E738
E738
E738
E738
E738
E738
E738
E738
E738
E738
ENDCHAR
STARTCHAR 1E80
ENCODING 7808
SWIDTH 600 0
DWIDTH 15 0
BBX 15 22 0 0
BITMAP
1E00
0F00
0700
0080
E38E
738C
739C
739C
739C
73DC
77DC
76DC
36DC
36D8
3ED8
3EF8
3EF8
3C78
3C78
3C78
1C70
1C70
ENDCHAR
STARTCHAR 1E81
ENCODING 7809
SWIDTH 600 0
DWIDTH 15 0
BBX 14 18 0 0
BITMAP
1E00
0F00
0700
0080
0000
E39C
739C
739C
739C
779C
76D8
36D8
36D8
36F8
3CF8
3C70
1C70
1C70
ENDCHAR
STARTCHAR 1E82
ENCODING 7810
SWIDTH 600 0
DWIDTH 15 0
BBX 15 22 0 0
BITMAP
00F0
01C0
0380
0000
E38E
738C
739C
739C
739C
73DC
77DC
76DC
36DC
36D8
3ED8
3EF8
3EF8
3C78
3C78
3C78
1C70
1C70
ENDCHAR
STARTCHAR 1E83
ENCODING 7811
SWIDTH 600 0
DWIDTH 15 0
BBX 14 18 0 0
BITMAP
00F0
01C0
0380
0000
0000
E39C
739C
739C
739C
779C
76D8
36D8
36D8
36F8
3CF8
3C70
1C70
1C70
ENDCHAR
STARTCHAR 1E84
ENCODING 7812
SWIDTH 600 0
DWIDTH 15 0
BBX 15 22 0 0
BITMAP
0C70
1C70
0C20
0000
E38E
738C
739C
739C
739C
73DC
77DC
76DC
36DC
36D8
3ED8
3EF8
3EF8
3C78
3C78
3C78
1C70
1C70
ENDCHAR
STARTCHAR 1E85
ENCODING 7813
SWIDTH 600 0
DWIDTH 15 0
BBX 14 18 0 0
BITMAP
0C70
1C70
0C20
0000
0000
E39C
739C
739C
739C
779C
76D8
36D8
36D8
36F8
3CF8
3C70
1C70
1C70
ENDCHAR
STARTCHAR 1EA0
ENCODING 7840
SWIDTH 600 0
DWIDTH 15 0
BBX 15 22 0 -4
BITMAP
0380
03C0
03C0
07C0
07E0
06E0
0EE0
0E60
0E70
1C70
1C70
1FF8
3FF8
3FF8
381C
781C
701C
F01E
0000
0180
03C0
0380
ENDCHAR
STARTCHAR 1EA1
ENCODING 7841
SWIDTH 600 0
DWIDTH 15 0
BBX 11 17 2 -4
BITMAP
3F80
7FC0
E1E0
E0E0
00E0
3FE0
7FE0
E0E0
E0E0
E0E0
F3E0
FFE0
7EE0
0000
0C00
1E00
1C00
ENDCHAR
STARTCHAR 1EA2
ENCODING 7842
SWIDTH 600 0
DWIDTH 15 0
BBX 15 24 0 0
BITMAP
03C0
00E0
00E0
03C0
0380
0000
0380
03C0
03C0
07C0
07E0
06E0
0EE0
0E60
0E70
1C70
1C70
1FF8
3FF8
3FF8
381C
781C
701C
F01E
ENDCHAR
STARTCHAR 1EA3
ENCODING 7843
SWIDTH 600 0
DWIDTH 15 0
BBX 11 20 2 0
BITMAP
0F00
0380
0380
0F00
0E00
0000
0000
3F80
7FC0
E1E0
E0E0
00E0
3FE0
7FE0
E0E0
E0E0
E0E0
F3E0
FFE0
7EE0
ENDCHAR
STARTCHAR 1EA4
ENCODING 7844
SWIDTH 600 0
DWIDTH 15 0
BBX 16 24 0 0
BITMAP
0007
000C
03DC
06E0
1C30
0000
0380
03C0
03C0
07C0
07E0
06E0
0EE0
0E60
0E70
1C70
1C70
1FF8
3FF8
3FF8
381C
781C
701C
F01E
ENDCHAR
STARTCHAR 1EA5
ENCODING 7845
SWIDTH 600 0
DWIDTH 15 0
BBX 13 20 2 0
BITMAP
0038
0060
1EE0
3700
E180
0000
0000
3F80
7FC0
E1E0
E0E0
00E0
3FE0
7FE0
E0E0
E0E0
E0E0
F3E0
FFE0
7EE0
ENDCHAR
STARTCHAR 1EA6
ENCODING 7846
SWIDTH 600 0
DWIDTH 15 0
BBX 15 25 0 0
BITMAP
E000
6000
3000
3BC0
0660
0C38
0000
0380
03C0
03C0
07C0
07E0
06E0
0EE0
0E60
0E70
1C70
1C70
1FF8
3FF8
3FF8
381C
781C
701C
F01E
ENDCHAR
STARTCHAR 1EA7
ENCODING 7847
SWIDTH 600 0
DWIDTH 15 0
BBX 14 21 -1 0
BITMAP
E000
6000
3000
3BC0
0660
0C38
0000
0000
07F0
0FF8
1C3C
1C1C
001C
07FC
0FFC
1C1C
1C1C
1C1C
1E7C
1FFC
0FDC
ENDCHAR
STARTCHAR 1EA8
ENCODING 7848
SWIDTH 600 0
DWIDTH 15 0
BBX 15 25 0 0
BITMAP
000C
0006
000E
03C8
0660
1C30
0000
0380
03C0
03C0
07C0
07E0
06E0
0EE0
0E60
0E70
1C70
1C70
1FF8
3FF8
3FF8
381C
781C
701C
F01E
ENDCHAR
STARTCHAR 1EA9
ENCODING 7849
SWIDTH 600 0
DWIDTH 15 0
BBX 13 21 2 0
BITMAP
0030
0018
0038
0F20
1980
70C0
0000
0000
3F80
7FC0
E1E0
E0E0
00E0
3FE0
7FE0
E0E0
E0E0
E0E0
F3E0
FFE0
7EE0
ENDCHAR
STARTCHAR 1EAA
ENCODING 7850
SWIDTH 600 0
DWIDTH 15 0
BBX 15 26 0 0
BITMAP
0020
07E0
04C0
0000
03C0
0660
1C30
0000
0380
03C0
03C0
07C0
07E0
06E0
0EE0
0E60
0E70
1C70
1C70
1FF8
3FF8
3FF8
381C
781C
701C
F01E
ENDCHAR
STARTCHAR 1EAB
ENCODING 7851
SWIDTH 600 0
DWIDTH 15 0
BBX 11 22 2 0
BITMAP
0100
3F00
2600
0000
1E00
3300
E180
0000
0000
3F80
7FC0
E1E0
E0E0
00E0
3FE0
7FE0
E0E0
E0E0
E0E0
F3E0
FFE0
7EE0
ENDCHAR
STARTCHAR 1EAC
ENCODING 7852
SWIDTH 600 0
DWIDTH 15 0
BBX 15 27 0 -4
BITMAP
0180
03C0
07E0
0E30
0000
0380
03C0
03C0
07C0
07E0
06E0
0EE0
0E60
0E70
1C70
1C70
1FF8
3FF8
3FF8
381C
781C
701C
F01E
0000
0180
03C0
0380
ENDCHAR
STARTCHAR 1EAD
ENCODING 7853
SWIDTH 600 0
DWIDTH 15 0
BBX 11 23 2 -4
BITMAP
0C00
1E00
3F00
7180
0000
0000
3F80
7FC0
E1E0
E0E0
00E0
3FE0
7FE0
E0E0
E0E0
E0E0
F3E0
FFE0
7EE0
0000
0C00
1E00
1C00
ENDCHAR
STARTCHAR 1EAE
ENCODING 7854
SWIDTH 600 0
DWIDTH 15 0
BBX 15 24 0 0
BITMAP
00E0
0180
0C30
0E60
07C0
0000
0380
03C0
03C0
07C0
07E0
06E0
0EE0
0E60
0E70
1C70
1C70
1FF8
3FF8
3FF8
381C
781C
701C
F01E
ENDCHAR
STARTCHAR 1EAF
ENCODING 7855
SWIDTH 600 0
DWIDTH 15 0
BBX 11 20 2 0
BITMAP
0380
0600
30C0
3980
1F00
0000
0000
3F80
7FC0
E1E0
E0E0
00E0
3FE0
7FE0
E0E0
E0E0
E0E0
F3E0
FFE0
7EE0
ENDCHAR
STARTCHAR 1EB0
ENCODING 7856
SWIDTH 600 0
DWIDTH 15 0
BBX 15 25 0 0
BITMAP
0700
0300
0CB0
0E60
07C0
0000
0000
0380
03C0
03C0
07C0
07E0
06E0
0EE0
0E60
0E70
1C70
1C70
1FF8
3FF8
3FF8
381C
781C
701C
F01E
ENDCHAR
STARTCHAR 1EB1
ENCODING 7857
SWIDTH 600 0
DWIDTH 15 0
BBX 11 21 2 0
BITMAP
1C00
0C00
32C0
3980
1F00
0000
0000
0000
3F80
7FC0
E1E0
E0E0
00E0
3FE0
7FE0
E0E0
E0E0
E0E0
F3E0
FFE0
7EE0
ENDCHAR
STARTCHAR 1EB2
ENCODING 7858
SWIDTH 600 0
DWIDTH 15 0
BBX 15 26 0 0
BITMAP
0180
0040
01C0
0100
0C30
0EF0
03C0
0000
0380
03C0
03C0
07C0
07E0
06E0
0EE0
0E60
0E70
1C70
1C70
1FF8
3FF8
3FF8
381C
781C
701C
F01E
ENDCHAR
STARTCHAR 1EB3
ENCODING 7859
SWIDTH 600 0
DWIDTH 15 0
BBX 11 22 2 0
BITMAP
0C00
0200
0E00
0800
6180
7780
1E00
0000
0000
3F80
7FC0
E1E0
E0E0
00E0
3FE0
7FE0
E0E0
E0E0
E0E0
F3E0
FFE0
7EE0
ENDCHAR
STARTCHAR 1EB4
ENCODING 7860
SWIDTH 600 0
DWIDTH 15 0
BBX 15 25 0 0
BITMAP
0F60
0DC0
0000
1C60
0EE0
07C0
0000
0380
03C0
03C0
07C0
07E0
06E0
0EE0
0E60
0E70
1C70
1C70
1FF8
3FF8
3FF8
381C
781C
701C
F01E
ENDCHAR
STARTCHAR 1EB5
ENCODING 7861
SWIDTH 600 0
DWIDTH 15 0
BBX 11 21 2 0
BITMAP
3D80
3700
0000
7180
3B80
1F00
0000
0000
3F80
7FC0
E1E0
E0E0
00E0
3FE0
7FE0
E0E0
E0E0
E0E0
F3E0
FFE0
7EE0
ENDCHAR
STARTCHAR 1EB6
ENCODING 7862
SWIDTH 600 0
DWIDTH 15 0
BBX 15 27 0 -4
BITMAP
0C70
0C70
0FE0
03C0
0000
0380
03C0
03C0
07C0
07E0
06E0
0EE0
0E60
0E70
1C70
1C70
1FF8
3FF8
3FF8
381C
781C
701C
F01E
0000
0180
03C0
0380
ENDCHAR
STARTCHAR 1EB7
ENCODING 7863
SWIDTH 600 0
DWIDTH 15 0
BBX 11 23 2 -4
BITMAP
31C0
31C0
3F80
0F00
0000
0000
3F80
7FC0
E1E0
E0E0
00E0
3FE0
7FE0
E0E0
E0E0
E0E0
F3E0
FFE0
7EE0
0000
0C00
1E00
1C00
ENDCHAR
STARTCHAR 1EB8
ENCODING 7864
SWIDTH 600 0
DWIDTH 15 0
BBX 12 22 2 -4
BITMAP
FFF0
FFF0
FFF0
E000
E000
E000
E000
E000
FFC0
FFC0
E000
E000
E000
E000
E000
FFF0
FFF0
FFF0
0000
0600
0F00
0E00
ENDCHAR
STARTCHAR 1EB9
ENCODING 7865
SWIDTH 600 0
DWIDTH 15 0
BBX 13 17 1 -4
BITMAP
1FC0
3FE0
78F0
7070
7038
FFF8
FFF8
F000
7000
7820
7CF0
3FF0
0FC0
0000
0300
0780
0700
ENDCHAR
STARTCHAR 1EBA
ENCODING 7866
SWIDTH 600 0
DWIDTH 15 0
BBX 12 24 2 0
BITMAP
0F00
0380
0380
0F00
0E00
0000
FFF0
FFF0
FFF0
E000
E000
E000
E000
E000
FFC0
FFC0
E000
E000
E000
E000
E000
FFF0
FFF0
FFF0
ENDCHAR
STARTCHAR 1EBB
ENCODING 7867
SWIDTH 600 0
DWIDTH 15 0
BBX 13 20 1 0
BITMAP
0780
01C0
01C0
0780
0700
0000
0000
1FC0
3FE0
78F0
7070
7038
FFF8
FFF8
F000
7000
7820
7CF0
3FF0
0FC0
ENDCHAR
STARTCHAR 1EBC
ENCODING 7868
SWIDTH 600 0
DWIDTH 15 0
BBX 12 23 2 0
BITMAP
0840
3FC0
3FC0
2100
0000
FFF0
FFF0
FFF0
E000
E000
E000
E000
E000
FFC0
FFC0
E000
E000
E000
E000
E000
FFF0
FFF0
FFF0
ENDCHAR
STARTCHAR 1EBD
ENCODING 7869
SWIDTH 600 0
DWIDTH 15 0
BBX 13 19 1 0
BITMAP
0840
3FC0
3FC0
2100
0000
0000
1FC0
3FE0
78F0
7070
7038
FFF8
FFF8
F000
7000
7820
7CF0
3FF0
0FC0
ENDCHAR
STARTCHAR 1EBE
ENCODING 7870
SWIDTH 600 0
DWIDTH 15 0
BBX 14 24 2 0
BITMAP
001C
0030
0F70
1B80
70C0
0000
FFF0
FFF0
FFF0
E000
E000
E000
E000
E000
FFC0
FFC0
E000
E000
E000
E000
E000
FFF0
FFF0
FFF0
ENDCHAR
STARTCHAR 1EBF
ENCODING 7871
SWIDTH 600 0
DWIDTH 15 0
BBX 15 20 1 0
BITMAP
000E
0018
07B8
0DC0
3860
0000
0000
1FC0
3FE0
78F0
7070
7038
FFF8
FFF8
F000
7000
7820
7CF0
3FF0
0FC0
ENDCHAR
STARTCHAR 1EC0
ENCODING 7872
SWIDTH 600 0
DWIDTH 15 0
BBX 14 25 0 0
BITMAP
E000
6000
3000
3BC0
0660
0C38
0000
3FFC
3FFC
3FFC
3800
3800
3800
3800
3800
3FF0
3FF0
3800
3800
3800
3800
3800
3FFC
3FFC
3FFC
ENDCHAR
STARTCHAR 1EC1
ENCODING 7873
SWIDTH 600 0
DWIDTH 15 0
BBX 15 21 -1 0
BITMAP
E000
6000
3000
3BC0
0660
0C38
0000
0000
07F0
0FF8
1E3C
1C1C
1C0E
3FFE
3FFE
3C00
1C00
1E08
1F3C
0FFC
03F0
ENDCHAR
STARTCHAR 1EC2
ENCODING 7874
SWIDTH 600 0
DWIDTH 15 0
BBX 13 25 2 0
BITMAP
0030
0018
0038
0F20
1980
70C0
0000
FFF0
FFF0
FFF0
E000
E000
E000
E000
E000
FFC0
FFC0
E000
E000
E000
E000
E000
FFF0
FFF0
FFF0
ENDCHAR
STARTCHAR 1EC3
ENCODING 7875
SWIDTH 600 0
DWIDTH 15 0
BBX 14 21 1 0
BITMAP
0018
000C
001C
0790
0CC0
3860
0000
0000
1FC0
3FE0
78F0
7070
7038
FFF8
FFF8
F000
7000
7820
7CF0
3FF0
0FC0
ENDCHAR
STARTCHAR 1EC4
ENCODING 7876
SWIDTH 600 0
DWIDTH 15 0
BBX 12 26 2 0
BITMAP
0080
1F80
1300
0000
0F00
1980
70C0
0000
FFF0
FFF0
FFF0
E000
E000
E000
E000
E000
FFC0
FFC0
E000
E000
E000
E000
E000
FFF0
FFF0
FFF0
ENDCHAR
STARTCHAR 1EC5
ENCODING 7877
SWIDTH 600 0
DWIDTH 15 0
BBX 13 22 1 0
BITMAP
0080
1F80
1300
0000
0F00
1980
70C0
0000
0000
1FC0
3FE0
78F0
7070
7038
FFF8
FFF8
F000
7000
7820
7CF0
3FF0
0FC0
ENDCHAR
STARTCHAR 1EC6
ENCODING 7878
SWIDTH 600 0
DWIDTH 15 0
BBX 12 27 2 -4
BITMAP
0600
0F00
1F80
38C0
0000
FFF0
FFF0
FFF0
E000
E000
E000
E000
E000
FFC0
FFC0
E000
E000
E000
E000
E000
FFF0
FFF0
FFF0
0000
0600
0F00
0E00
ENDCHAR
STARTCHAR 1EC7
ENCODING 7879
SWIDTH 600 0
DWIDTH 15 0
BBX 13 23 1 -4
BITMAP
0600
0F00
1F80
38C0
0000
0000
1FC0
3FE0
78F0
7070
7038
FFF8
FFF8
F000
7000
7820
7CF0
3FF0
0FC0
0000
0300
0780
0700
ENDCHAR
STARTCHAR 1EC8
ENCODING 7880
SWIDTH 600 0
DWIDTH 15 0
BBX 11 24 2 0
BITMAP
0F00
0380
0380
0F00
0E00
0000
FFE0
FFE0
FFE0
0E00
0E00
0E00
0E00
0E00
0E00
0E00
0E00
0E00
0E00
0E00
0E00
FFE0
FFE0
FFE0
ENDCHAR
STARTCHAR 1EC9
ENCODING 7881
SWIDTH 600 0
DWIDTH 15 0
BBX 12 20 2 0
BITMAP
0780
01C0
01C0
0780
0700
0000
0000
FF00
FF00
0F00
0F00
0F00
0F00
0F00
0F00
0F00
0F00
FFF0
FFF0
FFF0
ENDCHAR
STARTCHAR 1ECA
ENCODING 7882
SWIDTH 600 0
DWIDTH 15 0
BBX 11 22 2 -4
BITMAP
FFE0
FFE0
FFE0
0E00
0E00
0E00
0E00
0E00
0E00
0E00
0E00
0E00
0E00
0E00
0E00
FFE0
FFE0
FFE0
0000
0600
0F00
0E00
ENDCHAR
STARTCHAR 1ECB
ENCODING 7883
SWIDTH 600 0
DWIDTH 15 0
BBX 10 22 3 -4
BITMAP
1E00
1E00
0C00
0000
0000
FE00
FE00
1E00
1E00
1E00
1E00
1E00
1E00
1E00
1E00
FFC0
FFC0
FFC0
0000
0C00
1E00
1C00
ENDCHAR
STARTCHAR 1ECC
ENCODING 7884
SWIDTH 600 0
DWIDTH 15 0
BBX 13 22 1 -4
BITMAP
0F80
3FE0
3FE0
70F0
7070
E078
E038
E038
E038
E038
E038
E038
E078
F070
7070
7DF0
3FE0
1F80
0000
0300
0780
0700
ENDCHAR
STARTCHAR 1ECD
ENCODING 7885
SWIDTH 600 0
DWIDTH 15 0
BBX 13 17 1 -4
BITMAP
1FC0
3FE0
78F0
7070
F070
E078
E038
F078
7070
7070
7DF0
3FE0
1FC0
0000
0300
0780
0700
ENDCHAR
STARTCHAR 1ECE
ENCODING 7886
SWIDTH 600 0
DWIDTH 15 0
BBX 13 24 1 0
BITMAP
0780
01C0
01C0
0780
0700
0000
0F80
3FE0
3FE0
70F0
7070
E078
E038
E038
E038
E038
E038
E038
E078
F070
7070
7DF0
3FE0
1F80
ENDCHAR
STARTCHAR 1ECF
ENCODING 7887
SWIDTH 600 0
DWIDTH 15 0
BBX 13 20 1 0
BITMAP
0780
01C0
01C0
0780
0700
0000
0000
1FC0
3FE0
78F0
7070
F070
E078
E038
F078
7070
7070
7DF0
3FE0
1FC0
ENDCHAR
STARTCHAR 1ED0
ENCODING 7888
SWIDTH 600 0
DWIDTH 15 0
BBX 15 25 1 0
BITMAP
000E
0018
07B8
0DC0
3860
0000
0000
0F80
3FE0
3FE0
70F0
7070
E078
E038
E038
E038
E038
E038
E038
E078
F070
7070
7DF0
3FE0
1F80
ENDCHAR
STARTCHAR 1ED1
ENCODING 7889
SWIDTH 600 0
DWIDTH 15 0
BBX 15 20 1 0
BITMAP
000E
0018
07B8
0DC0
3860
0000
0000
1FC0
3FE0
78F0
7070
F070
E078
E038
F078
7070
7070
7DF0
3FE0
1FC0
ENDCHAR
STARTCHAR 1ED2
ENCODING 7890
SWIDTH 600 0
DWIDTH 15 0
BBX 15 25 -1 0
BITMAP
E000
6000
3000
3BC0
0660
0C38
0000
03E0
0FF8
0FF8
1C3C
1C1C
381E
380E
380E
380E
380E
380E
380E
381E
3C1C
1C1C
1F7C
0FF8
07E0
ENDCHAR
STARTCHAR 1ED3
ENCODING 7891
SWIDTH 600 0
DWIDTH 15 0
BBX 15 21 -1 0
BITMAP
E000
6000
3000
3BC0
0660
0C38
0000
0000
07F0
0FF8
1E3C
1C1C
3C1C
381E
380E
3C1E
3C1C
1C1C
1F7C
0FF8
07F0
ENDCHAR
STARTCHAR 1ED4
ENCODING 7892
SWIDTH 600 0
DWIDTH 15 0
BBX 14 25 1 0
BITMAP
0018
000C
001C
0790
0CC0
3860
0000
0F80
3FE0
3FE0
70F0
7070
E078
E038
E038
E038
E038
E038
E038
E078
F070
7070
7DF0
3FE0
1F80
ENDCHAR
STARTCHAR 1ED5
ENCODING 7893
SWIDTH 600 0
DWIDTH 15 0
BBX 14 21 1 0
BITMAP
0018
000C
001C
0790
0CC0
3860
0000
0000
1FC0
3FE0
78F0
7070
F070
E078
E038
F078
7070
7070
7DF0
3FE0
1FC0
ENDCHAR
STARTCHAR 1ED6
ENCODING 7894
SWIDTH 600 0
DWIDTH 15 0
BBX 13 26 1 0
BITMAP
0040
0FC0
0980
0000
0780
0CC0
3860
0000
0F80
3FE0
3FE0
70F0
7070
E078
E038
E038
E038
E038
E038
E038
E078
F070
7070
7DF0
3FE0
1F80
ENDCHAR
STARTCHAR 1ED7
ENCODING 7895
SWIDTH 600 0
DWIDTH 15 0
BBX 13 22 1 0
BITMAP
0040
0FC0
0980
0000
0780
0CC0
3860
0000
0000
1FC0
3FE0
78F0
7070
F070
E078
E038
F078
7070
7070
7DF0
3FE0
1FC0
ENDCHAR
STARTCHAR 1ED8
ENCODING 7896
SWIDTH 600 0
DWIDTH 15 0
BBX 13 28 1 -4
BITMAP
0600
0F00
1F80
38C0
0000
0000
0F80
3FE0
3FE0
70F0
7070
E078
E038
E038
E038
E038
E038
E038
E078
F070
7070
7DF0
3FE0
1F80
0000
0300
0780
0700
ENDCHAR
STARTCHAR 1ED9
ENCODING 7897
SWIDTH 600 0
DWIDTH 15 0
BBX 13 23 1 -4
BITMAP
0600
0F00
1F80
38C0
0000
0000
1FC0
3FE0
78F0
7070
F070
E078
E038
F078
7070
7070
7DF0
3FE0
1FC0
0000
0300
0780
0700
ENDCHAR
STARTCHAR 1EDA
ENCODING 7898
SWIDTH 600 0
DWIDTH 15 0
BBX 14 22 1 0
BITMAP
00F0
01C0
0380
0000
0F8C
3FEC
3FF8
7878
7078
F038
E038
E038
E038
E038
E038
E038
F038
7078
7070
7DF0
3FE0
0FC0
ENDCHAR
STARTCHAR 1EDB
ENCODING 7899
SWIDTH 600 0
DWIDTH 15 0
BBX 14 18 1 0
BITMAP
01E0
0380
0700
0004
0018
1FD8
3FF8
78F0
7070
F070
E078
E078
E078
F070
7070
7DF0
3FE0
1FC0
ENDCHAR
STARTCHAR 1EDC
ENCODING 7900
SWIDTH 600 0
DWIDTH 15 0
BBX 14 22 1 0
BITMAP
3C00
1E00
0E00
0100
0F8C
3FEC
3FF8
7878
7078
F038
E038
E038
E038
E038
E038
E038
F038
7078
7070
7DF0
3FE0
0FC0
ENDCHAR
STARTCHAR 1EDD
ENCODING 7901
SWIDTH 600 0
DWIDTH 15 0
BBX 14 18 1 0
BITMAP
3C00
1E00
0E00
0104
0018
1FD8
3FF8
78F0
7070
F070
E078
E078
E078
F070
7070
7DF0
3FE0
1FC0
ENDCHAR
STARTCHAR 1EDE
ENCODING 7902
SWIDTH 600 0
DWIDTH 15 0
BBX 14 24 1 0
BITMAP
0780
01C0
01C0
0780
0700
0000
0F8C
3FEC
3FF8
7878
7078
F038
E038
E038
E038
E038
E038
E038
F038
7078
7070
7DF0
3FE0
0FC0
ENDCHAR
STARTCHAR 1EDF
ENCODING 7903
SWIDTH 600 0
DWIDTH 15 0
BBX 14 20 1 0
BITMAP
0780
01C0
01C0
0780
0700
0004
0018
1FD8
3FF8
78F0
7070
F070
E078
E078
E078
F070
7070
7DF0
3FE0
1FC0
ENDCHAR
STARTCHAR 1EE0
ENCODING 7904
SWIDTH 600 0
DWIDTH 15 0
BBX 14 23 1 0
BITMAP
0420
1FE0
1FE0
1080
0000
0F8C
3FEC
3FF8
7878
7078
F038
E038
E038
E038
E038
E038
E038
F038
7078
7070
7DF0
3FE0
0FC0
ENDCHAR
STARTCHAR 1EE1
ENCODING 7905
SWIDTH 600 0
DWIDTH 15 0
BBX 14 19 1 0
BITMAP
0840
3FC0
3FC0
2100
0004
0018
1FD8
3FF8
78F0
7070
F070
E078
E078
E078
F070
7070
7DF0
3FE0
1FC0
ENDCHAR
STARTCHAR 1EE2
ENCODING 7906
SWIDTH 600 0
DWIDTH 15 0
BBX 14 22 1 -4
BITMAP
0F8C
3FEC
3FF8
7878
7078
F038
E038
E038
E038
E038
E038
E038
F038
7078
7070
7DF0
3FE0
0FC0
0000
0300
0780
0700
ENDCHAR
STARTCHAR 1EE3
ENCODING 7907
SWIDTH 600 0
DWIDTH 15 0
BBX 14 18 1 -4
BITMAP
001C
1FD8
3FF8
78F0
7070
F070
E078
E078
E078
F070
7070
7DF0
3FE0
1FC0
0000
0300
0780
0700
ENDCHAR
STARTCHAR 1EE4
ENCODING 7908
SWIDTH 600 0
DWIDTH 15 0
BBX 11 22 2 -4
BITMAP
E0E0
E0E0
E0E0
E0E0
E0E0
E0E0
E0E0
E0E0
E0E0
E0E0
E0E0
E0E0
E0E0
E0E0
E0E0
FBE0
7FC0
3F80
0000
0600
0F00
0E00
ENDCHAR
STARTCHAR 1EE5
ENCODING 7909
SWIDTH 600 0
DWIDTH 15 0
BBX 11 17 2 -4
BITMAP
E0E0
E0E0
E0E0
E0E0
E0E0
E0E0
E0E0
E0E0
E0E0
E0E0
F3E0
7FE0
3EE0
0000
0C00
1E00
1C00
ENDCHAR
STARTCHAR 1EE6
ENCODING 7910
SWIDTH 600 0
DWIDTH 15 0
BBX 11 24 2 0
BITMAP
0F00
0380
0380
0F00
0E00
0000
E0E0
E0E0
E0E0
E0E0
E0E0
E0E0
E0E0
E0E0
E0E0
E0E0
E0E0
E0E0
E0E0
E0E0
E0E0
FBE0
7FC0
3F80
ENDCHAR
STARTCHAR 1EE7
ENCODING 7911
SWIDTH 600 0
DWIDTH 15 0
BBX 11 20 2 0
BITMAP
0F00
0380
0380
0F00
0E00
0000
0000
E0E0
E0E0
E0E0
E0E0
E0E0
E0E0
E0E0
E0E0
E0E0
E0E0
F3E0
7FE0
3EE0
ENDCHAR
STARTCHAR 1EE8
ENCODING 7912
SWIDTH 600 0
DWIDTH 15 0
BBX 16 22 2 0
BITMAP
01E0
0380
0700
0000
E0E7
E0E7
E0EE
E0FC
E0E0
E0E0
E0E0
E0E0
E0E0
E0E0
E0E0
E0E0
E0E0
E0E0
E0E0
FBE0
7FC0
3F80
ENDCHAR
STARTCHAR 1EE9
ENCODING 7913
SWIDTH 600 0
DWIDTH 15 0
BBX 15 18 2 0
BITMAP
03C0
0700
0E00
0000
000E
E0EC
E0FC
E0F8
E0E0
E0E0
E0E0
E0E0
E0E0
E0E0
E0E0
F3E0
7FE0
7EE0
ENDCHAR
STARTCHAR 1EEA
ENCODING 7914
SWIDTH 600 0
DWIDTH 15 0
BBX 16 22 2 0
BITMAP
7800
3C00
1C00
0200
E0E7
E0E7
E0EE
E0FC
E0E0
E0E0
E0E0
E0E0
E0E0
E0E0
E0E0
E0E0
E0E0
E0E0
E0E0
FBE0
7FC0
3F80
ENDCHAR
STARTCHAR 1EEB
ENCODING 7915
SWIDTH 600 0
DWIDTH 15 0
BBX 15 18 2 0
BITMAP
7800
3C00
1C00
0200
000E
E0EC
E0FC
E0F8
E0E0
E0E0
E0E0
E0E0
E0E0
E0E0
E0E0
F3E0
7FE0
7EE0
ENDCHAR
STARTCHAR 1EEC
ENCODING 7916
SWIDTH 600 0
DWIDTH 15 0
BBX 16 24 2 0
BITMAP
0F00
0380
0380
0F00
0E00
0000
E0E7
E0E7
E0EE
E0FC
E0E0
E0E0
E0E0
E0E0
E0E0
E0E0
E0E0
E0E0
E0E0
E0E0
E0E0
FBE0
7FC0
3F80
ENDCHAR
STARTCHAR 1EED
ENCODING 7917
SWIDTH 600 0
DWIDTH 15 0
BBX 15 20 2 0
BITMAP
0F00
0380
0380
0F00
0E00
0000
000E
E0EC
E0FC
E0F8
E0E0
E0E0
E0E0
E0E0
E0E0
E0E0
E0E0
F3E0
7FE0
7EE0
ENDCHAR
STARTCHAR 1EEE
ENCODING 7918
SWIDTH 600 0
DWIDTH 15 0
BBX 16 23 2 0
BITMAP
0840
3FC0
3FC0
2100
0000
E0E7
E0E7
E0EE
E0FC
E0E0
E0E0
E0E0
E0E0
E0E0
E0E0
E0E0
E0E0
E0E0
E0E0
E0E0
FBE0
7FC0
3F80
ENDCHAR
STARTCHAR 1EEF
ENCODING 7919
SWIDTH 600 0
DWIDTH 15 0
BBX 15 19 2 0
BITMAP
0840
3FC0
3FC0
2100
0000
000E
E0EC
E0FC
E0F8
E0E0
E0E0
E0E0
E0E0
E0E0
E0E0
E0E0
F3E0
7FE0
7EE0
ENDCHAR
STARTCHAR 1EF0
ENCODING 7920
SWIDTH 600 0
DWIDTH 15 0
BBX 16 22 2 -4
BITMAP
E0E7
E0E7
E0EE
E0FC
E0E0
E0E0
E0E0
E0E0
E0E0
E0E0
E0E0
E0E0
E0E0
E0E0
E0E0
FBE0
7FC0
3F80
0000
0600
0F00
0E00
ENDCHAR
STARTCHAR 1EF1
ENCODING 7921
SWIDTH 600 0
DWIDTH 15 0
BBX 15 18 2 -4
BITMAP
000E
E0EC
E0FC
E0F8
E0E0
E0E0
E0E0
E0E0
E0E0
E0E0
E0E0
F3E0
7FE0
7EE0
0000
0C00
1E00
1C00
ENDCHAR
STARTCHAR 1EF2
ENCODING 7922
SWIDTH 600 0
DWIDTH 15 0
BBX 15 22 0 0
BITMAP
1E00
0F00
0700
0080
F01E
781C
383C
3838
1C78
1C70
1E70
0EE0
0FE0
07C0
07C0
0380
0380
0380
0380
0380
0380
0380
ENDCHAR
STARTCHAR 1EF3
ENCODING 7923
SWIDTH 600 0
DWIDTH 15 0
BBX 14 23 1 -5
BITMAP
3C00
1E00
0E00
0100
0000
E03C
F038
7078
7870
38F0
38E0
1CE0
1DC0
0FC0
0FC0
0F80
0780
0700
0700
0E00
1E00
7C00
7800
ENDCHAR
STARTCHAR 1EF4
ENCODING 7924
SWIDTH 600 0
DWIDTH 15 0
BBX 15 22 0 -4
BITMAP
F01E
781C
383C
3838
1C78
1C70
1E70
0EE0
0FE0
07C0
07C0
0380
0380
0380
0380
0380
0380
0380
0000
0180
03C0
0380
ENDCHAR
STARTCHAR 1EF5
ENCODING 7925
SWIDTH 600 0
DWIDTH 15 0
BBX 14 18 1 -5
BITMAP
E03C
F038
7078
7870
38F0
38E0
1CE0
1DC0
0FC0
0FC0
0F80
0780
0700
0700
0E00
1E60
7CF0
78E0
ENDCHAR
STARTCHAR 1EF6
ENCODING 7926
SWIDTH 600 0
DWIDTH 15 0
BBX 15 24 0 0
BITMAP
03C0
00E0
00E0
03C0
0380
0000
F01E
781C
383C
3838
1C78
1C70
1E70
0EE0
0FE0
07C0
07C0
0380
0380
0380
0380
0380
0380
0380
ENDCHAR
STARTCHAR 1EF7
ENCODING 7927
SWIDTH 600 0
DWIDTH 15 0
BBX 14 25 1 -5
BITMAP
0780
01C0
01C0
0780
0700
0000
0000
E03C
F038
7078
7870
38F0
38E0
1CE0
1DC0
0FC0
0FC0
0F80
0780
0700
0700
0E00
1E00
7C00
7800
ENDCHAR
STARTCHAR 1EF8
ENCODING 7928
SWIDTH 600 0
DWIDTH 15 0
BBX 15 23 0 0
BITMAP
0210
0FF0
0FF0
0840
0000
F01E
781C
383C
3838
1C78
1C70
1E70
0EE0
0FE0
07C0
07C0
0380
0380
0380
0380
0380
0380
0380
ENDCHAR
STARTCHAR 1EF9
ENCODING 7929
SWIDTH 600 0
DWIDTH 15 0
BBX 14 24 1 -5
BITMAP
0420
1FE0
1FE0
1080
0000
0000
E03C
F038
7078
7870
38F0
38E0
1CE0
1DC0
0FC0
0FC0
0F80
0780
0700
0700
0E00
1E00
7C00
7800
ENDCHAR
STARTCHAR 1F4D
ENCODING 8013
SWIDTH 600 0
DWIDTH 15 0
BBX 16 20 -2 0
BITMAP
5C00
D800
D1F0
F7FC
07FC
0E1E
0E0E
1C0F
1C07
1C07
1C07
1C07
1C07
1C07
1C0F
1E0E
0E0E
0FBE
07FC
03F0
ENDCHAR
STARTCHAR 2000
ENCODING 8192
SWIDTH 600 0
DWIDTH 15 0
BBX 0 0 0 0
BITMAP
ENDCHAR
STARTCHAR 2001
ENCODING 8193
SWIDTH 600 0
DWIDTH 15 0
BBX 0 0 0 0
BITMAP
ENDCHAR
STARTCHAR 2002
ENCODING 8194
SWIDTH 600 0
DWIDTH 15 0
BBX 0 0 0 0
BITMAP
ENDCHAR
STARTCHAR 2003
ENCODING 8195
SWIDTH 600 0
DWIDTH 15 0
BBX 0 0 0 0
BITMAP
ENDCHAR
STARTCHAR 2004
ENCODING 8196
SWIDTH 600 0
DWIDTH 15 0
BBX 0 0 0 0
BITMAP
ENDCHAR
STARTCHAR 2005
ENCODING 8197
SWIDTH 600 0
DWIDTH 15 0
BBX 0 0 0 0
BITMAP
ENDCHAR
STARTCHAR 2006
ENCODING 8198
SWIDTH 600 0
DWIDTH 15 0
BBX 0 0 0 0
BITMAP
ENDCHAR
STARTCHAR 2007
ENCODING 8199
SWIDTH 600 0
DWIDTH 15 0
BBX 0 0 0 0
BITMAP
ENDCHAR
STARTCHAR 2008
ENCODING 8200
SWIDTH 600 0
DWIDTH 15 0
BBX 0 0 0 0
BITMAP
ENDCHAR
STARTCHAR 2009
ENCODING 8201
SWIDTH 600 0
DWIDTH 15 0
BBX 0 0 0 0
BITMAP
ENDCHAR
STARTCHAR 200A
ENCODING 8202
SWIDTH 600 0
DWIDTH 15 0
BBX 0 0 0 0
BITMAP
ENDCHAR
STARTCHAR 200B
ENCODING 8203
SWIDTH 600 0
DWIDTH 15 0
BBX 0 0 0 0
BITMAP
ENDCHAR
STARTCHAR 2013
ENCODING 8211
SWIDTH 600 0
DWIDTH 15 0
BBX 13 3 1 7
BITMAP
FFF8
FFF8
FFF8
ENDCHAR
STARTCHAR 2014
ENCODING 8212
SWIDTH 600 0
DWIDTH 15 0
BBX 13 3 1 7
BITMAP
FFF8
FFF8
FFF8
ENDCHAR
STARTCHAR 2015
ENCODING 8213
SWIDTH 600 0
DWIDTH 15 0
BBX 13 3 1 7
BITMAP
FFF8
FFF8
FFF8
ENDCHAR
STARTCHAR 2017
ENCODING 8215
SWIDTH 600 0
DWIDTH 15 0
BBX 11 5 2 -5
BITMAP
FFE0
FFE0
0000
FFE0
FFE0
ENDCHAR
STARTCHAR 2018
ENCODING 8216
SWIDTH 600 0
DWIDTH 15 0
BBX 4 7 6 12
BITMAP
30
60
E0
E0
E0
E0
E0
ENDCHAR
STARTCHAR 2019
ENCODING 8217
SWIDTH 600 0
DWIDTH 15 0
BBX 3 7 6 12
BITMAP
60
60
60
60
E0
C0
40
ENDCHAR
STARTCHAR 201A
ENCODING 8218
SWIDTH 600 0
DWIDTH 15 0
BBX 3 7 6 -4
BITMAP
60
60
60
60
E0
C0
C0
ENDCHAR
STARTCHAR 201B
ENCODING 8219
SWIDTH 600 0
DWIDTH 15 0
BBX 3 7 6 12
BITMAP
C0
C0
C0
C0
E0
60
40
ENDCHAR
STARTCHAR 201C
ENCODING 8220
SWIDTH 600 0
DWIDTH 15 0
BBX 8 7 4 12
BITMAP
33
66
EE
EE
EE
EE
EE
ENDCHAR
STARTCHAR 201D
ENCODING 8221
SWIDTH 600 0
DWIDTH 15 0
BBX 7 7 4 12
BITMAP
66
66
66
66
EE
CC
44
ENDCHAR
STARTCHAR 201E
ENCODING 8222
SWIDTH 600 0
DWIDTH 15 0
BBX 8 7 4 -4
BITMAP
77
77
77
66
6E
EE
44
ENDCHAR
STARTCHAR 2020
ENCODING 8224
SWIDTH 600 0
DWIDTH 15 0
BBX 12 18 1 0
BITMAP
0700
0700
0700
0700
0700
FFF0
FFF0
0700
0700
0700
0700
0700
0700
0700
0700
0700
0700
0700
ENDCHAR
STARTCHAR 2021
ENCODING 8225
SWIDTH 600 0
DWIDTH 15 0
BBX 12 23 2 -5
BITMAP
0E00
0E00
0E00
0E00
0E00
FFF0
FFF0
0E00
0E00
0E00
0E00
0E00
0E00
0E00
0E00
FFF0
FFF0
FFF0
0E00
0E00
0E00
0E00
0E00
ENDCHAR
STARTCHAR 2022
ENCODING 8226
SWIDTH 600 0
DWIDTH 15 0
BBX 6 6 5 6
BITMAP
78
F8
FC
F8
F8
70
ENDCHAR
STARTCHAR 2025
ENCODING 8229
SWIDTH 600 0
DWIDTH 15 0
BBX 11 4 3 0
BITMAP
71C0
FBE0
FBE0
71C0
ENDCHAR
STARTCHAR 2026
ENCODING 8230
SWIDTH 600 0
DWIDTH 15 0
BBX 15 4 1 0
BITMAP
739C
FFFE
FFFE
739C
ENDCHAR
STARTCHAR 2030
ENCODING 8240
SWIDTH 600 0
DWIDTH 15 0
BBX 14 18 1 0
BITMAP
7800
FC00
CC00
CC00
CC60
FCC0
7B80
0700
0C00
3800
7000
CF70
1FF8
19DC
199C
19DC
1FF8
0FF8
ENDCHAR
STARTCHAR 2032
ENCODING 8242
SWIDTH 600 0
DWIDTH 15 0
BBX 2 7 6 12
BITMAP
C0
C0
C0
C0
C0
C0
C0
ENDCHAR
STARTCHAR 2033
ENCODING 8243
SWIDTH 600 0
DWIDTH 15 0
BBX 7 7 4 12
BITMAP
C6
C6
C6
C6
C6
C6
C6
ENDCHAR
STARTCHAR 2039
ENCODING 8249
SWIDTH 600 0
DWIDTH 15 0
BBX 5 9 5 2
BITMAP
18
30
70
E0
C0
E0
70
30
18
ENDCHAR
STARTCHAR 203A
ENCODING 8250
SWIDTH 600 0
DWIDTH 15 0
BBX 5 9 5 2
BITMAP
C0
60
70
38
18
38
70
60
C0
ENDCHAR
STARTCHAR 203C
ENCODING 8252
SWIDTH 600 0
DWIDTH 15 0
BBX 13 18 1 0
BITMAP
E038
E038
E038
E038
E038
E038
E038
E038
E038
E038
E038
E038
0000
0000
0000
E038
E038
E038
ENDCHAR
STARTCHAR 2044
ENCODING 8260
SWIDTH 600 0
DWIDTH 15 0
BBX 8 12 3 3
BITMAP
03
03
06
06
0C
0C
18
18
30
30
60
C0
ENDCHAR
STARTCHAR 2074
ENCODING 8308
SWIDTH 600 0
DWIDTH 15 0
BBX 10 11 3 7
BITMAP
0700
0700
0F00
1B00
1B00
3300
6300
FFC0
FFC0
0300
0300
ENDCHAR
STARTCHAR 207F
ENCODING 8319
SWIDTH 600 0
DWIDTH 15 0
BBX 8 10 4 8
BITMAP
DC
FE
E7
C7
C7
C7
C7
C7
C7
C7
ENDCHAR
STARTCHAR 20A3
ENCODING 8355
SWIDTH 600 0
DWIDTH 15 0
BBX 14 18 0 0
BITMAP
3FFC
3FFC
3FFC
3800
3800
3800
3800
3800
3FF8
3FF8
3FF8
3800
3800
FF00
FF00
3800
3800
3800
ENDCHAR
STARTCHAR 20A4
ENCODING 8356
SWIDTH 600 0
DWIDTH 15 0
BBX 13 18 1 0
BITMAP
07C0
0FF0
1FF0
3C38
3838
3800
3800
FF80
FF80
3800
FF80
FF80
3C00
3C00
3800
FFF8
FFF8
FFF8
ENDCHAR
STARTCHAR 20A7
ENCODING 8359
SWIDTH 600 0
DWIDTH 15 0
BBX 13 18 2 0
BITMAP
F000
FC00
DCC0
CEC0
CEC0
CFF0
CFF0
CEC0
CCC0
FCC0
F8C0
C0C0
C0C0
C0C0
C0C0
C0C0
C0F0
C078
ENDCHAR
STARTCHAR 20AB
ENCODING 8363
SWIDTH 600 0
DWIDTH 15 0
BBX 14 22 1 -3
BITMAP
0070
0070
03FC
03FC
0070
0070
1F70
3FF0
78F0
7070
7070
F070
F070
F070
7070
7070
7DF0
3FF0
1F70
0000
7FF0
7FF0
ENDCHAR
STARTCHAR 20AC
ENCODING 8364
SWIDTH 600 0
DWIDTH 15 0
BBX 13 18 1 0
BITMAP
01F8
07F0
0FF0
1E00
1C00
1C00
1C00
FFC0
1C00
1C00
FFC0
FFC0
1C00
1C00
1E00
0F10
07F0
03F8
ENDCHAR
STARTCHAR 2105
ENCODING 8453
SWIDTH 600 0
DWIDTH 15 0
BBX 13 18 1 0
BITMAP
7800
FC00
CC00
C060
C0C0
CCC0
FD80
7980
0300
0300
06F0
0DF8
0D98
1998
1998
0198
01F8
00F0
ENDCHAR
STARTCHAR 2113
ENCODING 8467
SWIDTH 600 0
DWIDTH 15 0
BBX 11 18 2 0
BITMAP
0200
0FC0
1FC0
1CE0
1CE0
3CE0
3CE0
3DC0
3FC0
3F80
7E00
FC00
FC00
3C00
1C00
1F80
0F80
0780
ENDCHAR
STARTCHAR 2116
ENCODING 8470
SWIDTH 600 0
DWIDTH 15 0
BBX 13 18 1 0
BITMAP
E330
E378
E348
F348
F348
F348
FB30
FB00
FB78
FB00
EF00
EF00
EF00
E700
E700
E700
E700
E300
ENDCHAR
STARTCHAR 2122
ENCODING 8482
SWIDTH 600 0
DWIDTH 15 0
BBX 13 7 1 11
BITMAP
FB18
3318
33B8
33B8
33B8
3358
3358
ENDCHAR
STARTCHAR 2126
ENCODING 8486
SWIDTH 600 0
DWIDTH 15 0
BBX 13 18 1 0
BITMAP
0F80
3FE0
3FF0
7870
7078
F078
F078
F038
F038
F038
F078
7070
7070
3060
38E0
FDF8
FDF8
FDF8
ENDCHAR
STARTCHAR 212E
ENCODING 8494
SWIDTH 600 0
DWIDTH 15 0
BBX 12 13 2 0
BITMAP
1F80
3060
6060
E070
E070
E070
FFF0
E000
E000
6000
6000
3060
1F80
ENDCHAR
STARTCHAR 215B
ENCODING 8539
SWIDTH 600 0
DWIDTH 15 0
BBX 14 18 1 0
BITMAP
1000
F000
F000
3060
30C0
30C0
3180
3180
3300
0370
06FC
0CCC
0CCC
1878
18DC
01CC
00FC
00F8
ENDCHAR
STARTCHAR 215C
ENCODING 8540
SWIDTH 600 0
DWIDTH 15 0
BBX 15 18 0 0
BITMAP
3C00
7E00
6600
0620
1C70
0660
E6C0
7EC0
3D80
01B8
037E
0366
0666
0C3C
0C6E
00E6
007E
007C
ENDCHAR
STARTCHAR 215D
ENCODING 8541
SWIDTH 600 0
DWIDTH 15 0
BBX 15 18 0 0
BITMAP
7E00
7E00
6000
7C20
7E60
0660
C6C0
7F80
3D80
0338
037C
06CE
06EC
0C78
0CEC
00C6
00FE
007C
ENDCHAR
STARTCHAR 215E
ENCODING 8542
SWIDTH 600 0
DWIDTH 15 0
BBX 14 18 1 0
BITMAP
FE00
FE00
0C00
0CC0
18C0
1980
3180
3300
6300
0670
0CF8
0DCC
18DC
1878
30DC
018C
01FC
00F8
ENDCHAR
STARTCHAR 2202
ENCODING 8706
SWIDTH 600 0
DWIDTH 15 0
BBX 13 19 1 0
BITMAP
0E00
3F80
3FC0
21E0
00F0
0070
0270
1FB0
3FF8
78F8
7078
F078
F078
F070
7070
7070
7DE0
3FE0
1F80
ENDCHAR
STARTCHAR 2206
ENCODING 8710
SWIDTH 600 0
DWIDTH 15 0
BBX 15 18 0 0
BITMAP
03C0
03C0
03C0
07E0
07E0
07E0
0E70
0E70
0E70
1C38
1C38
1C38
3C3C
381C
381C
7FFE
7FFE
FFFE
ENDCHAR
STARTCHAR 220F
ENCODING 8719
SWIDTH 600 0
DWIDTH 15 0
BBX 11 21 2 -3
BITMAP
FFE0
FFE0
FFE0
E0E0
E0E0
E0E0
E0E0
E0E0
E0E0
E0E0
E0E0
E0E0
E0E0
E0E0
E0E0
E0E0
E0E0
E0E0
E0E0
E0E0
E0E0
ENDCHAR
STARTCHAR 2211
ENCODING 8721
SWIDTH 600 0
DWIDTH 15 0
BBX 15 21 0 -3
BITMAP
FFFC
FFFC
7FFC
3800
3C00
1E00
0F00
0780
0380
01C0
01E0
01C0
03C0
0780
0700
0E00
1C00
3C00
7800
FFFE
FFFE
ENDCHAR
STARTCHAR 2212
ENCODING 8722
SWIDTH 600 0
DWIDTH 15 0
BBX 10 3 2 7
BITMAP
FFC0
FFC0
FFC0
ENDCHAR
STARTCHAR 2215
ENCODING 8725
SWIDTH 600 0
DWIDTH 15 0
BBX 10 20 3 -2
BITMAP
03C0
0380
0380
0700
0700
0700
0E00
0E00
0E00
1C00
1C00
1C00
3800
3800
3000
7000
7000
E000
E000
E000
ENDCHAR
STARTCHAR 221A
ENCODING 8730
SWIDTH 600 0
DWIDTH 15 0
BBX 13 18 1 0
BITMAP
0038
0030
0030
0070
0060
0060
00E0
00E0
00C0
F1C0
F9C0
3980
1980
1B80
1F00
0F00
0F00
0E00
ENDCHAR
STARTCHAR 221E
ENCODING 8734
SWIDTH 600 0
DWIDTH 15 0
BBX 14 9 1 3
BITMAP
7870
FDF8
EF9C
C71C
C30C
C71C
CF9C
FDF8
78F0
ENDCHAR
STARTCHAR 222B
ENCODING 8747
SWIDTH 600 0
DWIDTH 15 0
BBX 9 24 3 -5
BITMAP
0F80
1F80
1E00
1C00
1C00
1C00
1C00
1C00
1C00
1C00
1C00
1C00
1C00
1C00
1C00
1C00
1C00
1C00
1C00
1C00
1C00
3C00
F800
F000
ENDCHAR
STARTCHAR 2248
ENCODING 8776
SWIDTH 600 0
DWIDTH 15 0
BBX 11 10 2 3
BITMAP
2020
7C20
FFE0
87E0
8080
0000
7820
FFE0
CFE0
81C0
ENDCHAR
STARTCHAR 2260
ENCODING 8800
SWIDTH 600 0
DWIDTH 15 0
BBX 11 11 2 2
BITMAP
0180
FFE0
FFE0
FFE0
0600
0600
0C00
FFE0
FFE0
1000
3000
ENDCHAR
STARTCHAR 2264
ENCODING 8804
SWIDTH 600 0
DWIDTH 15 0
BBX 11 15 2 0
BITMAP
0060
01E0
0FE0
7F00
F800
F000
7F00
1FE0
03E0
0060
0000
0000
FFE0
FFE0
FFE0
ENDCHAR
STARTCHAR 2265
ENCODING 8805
SWIDTH 600 0
DWIDTH 15 0
BBX 11 15 2 0
BITMAP
C000
F800
FF00
1FC0
01E0
03E0
1FC0
FE00
F800
C000
0000
0000
FFE0
FFE0
FFE0
ENDCHAR
STARTCHAR 25CA
ENCODING 9674
SWIDTH 600 0
DWIDTH 15 0
BBX 11 18 2 0
BITMAP
0E00
0F00
1F00
1B80
3B80
71C0
71C0
F0E0
E0E0
E0E0
E0E0
71C0
71C0
3B80
3B80
1F00
1F00
0E00
ENDCHAR
STARTCHAR F6C3
ENCODING 63171
SWIDTH 600 0
DWIDTH 15 0
BBX 4 5 3 -2
BITMAP
70
70
60
60
C0
ENDCHAR
STARTCHAR FEFF
ENCODING 65279
SWIDTH 600 0
DWIDTH 15 0
BBX 0 0 0 0
BITMAP
ENDCHAR
STARTCHAR FFFC
ENCODING 65532
SWIDTH 600 0
DWIDTH 15 0
BBX 13 13 1 0
BITMAP
DBD8
8008
0000
8008
8008
3F10
AF18
2D50
9628
8008
0000
8008
DBD8
ENDCHAR
STARTCHAR FFFD
ENCODING 65533
SWIDTH 600 0
DWIDTH 15 0
BBX 15 24 0 -1
BITMAP
0100
0100
0380
0780
07C0
0FE0
0FE0
1C70
3830
3118
7F1C
7F1C
FE3E
7E7C
3C78
3FF8
1C70
1C60
0FE0
07C0
07C0
0380
0300
0100
ENDCHAR
ENDFONT
